<svg viewBox="0 0 24 24" fill="none" xmlns="http://www.w3.org/2000/svg"><path d="M0 4a4 4 0 014-4h16a4 4 0 014 4v16a4 4 0 01-4 4H4a4 4 0 01-4-4V4z" fill="#002496"/><path d="M22 14.237c-.014.04-.036.08-.043.122-.135.84-.613 1.358-1.357 1.62-.482.171-.981.22-1.486.222h-2.63c-.223 0-.276-.056-.276-.294v-7.4c0-.24.053-.295.273-.296h2.613c.549 0 1.079.088 1.567.372 1.005.585 1.247 1.985.487 2.887-.17.201-.403.341-.606.508.086.034.2.074.308.127.61.287.988.772 1.11 1.473.006.032.025.059.036.088.004.191.004.38.004.57zm-4.113-1.527v2.116c.522-.018 1.035-.015 1.544-.06.374-.035.67-.243.782-.647.188-.663-.14-1.243-.789-1.333-.505-.068-1.02-.053-1.537-.075zm-.003-1.328c.431 0 .854.003 1.276-.003.081-.001.164-.037.24-.07.34-.14.51-.43.499-.836-.012-.395-.195-.676-.543-.784-.486-.149-.982-.052-1.473-.077l.001 1.77zM12.183 16.34c-1.61-.308-2.889-1.684-3.159-3.394-.356-2.258.942-4.348 3.039-4.84 1.304-.305 2.463.053 3.465.988.158.147.158.244.014.399-.236.253-.473.505-.71.755-.136.141-.205.146-.346.022-.753-.648-1.582-.798-2.451-.338-.893.472-1.318 1.288-1.304 2.34.017 1.254.834 2.253 1.99 2.44.667.107 1.258-.11 1.77-.574.187-.17.234-.17.405.01l.663.705c.175.186.176.264-.001.436-.684.673-1.493 1.043-2.424 1.114l-.95-.063zM6.874 14.374c-.862 0-1.705.001-2.548-.003-.096 0-.121.049-.145.128-.148.478-.298.954-.448 1.43-.07.224-.131.27-.354.27-.401.002-.804 0-1.206 0-.274 0-.3-.037-.204-.307l2.32-6.596c.098-.277.195-.554.29-.832.057-.171.159-.256.336-.255.463.006.928.006 1.391 0 .175-.001.28.073.34.249.858 2.494 1.718 4.988 2.578 7.482.073.213.04.26-.182.262h-1.29c-.268 0-.316-.037-.4-.3l-.478-1.528zM5.554 9.95c-.32 1.027-.623 2.01-.93 2.997h1.837L5.553 9.95z" fill="#fff"/><path d="M13.053 13.635c-.738-.004-1.34-.65-1.333-1.432.006-.792.613-1.425 1.364-1.42.736.005 1.338.653 1.333 1.435-.007.792-.612 1.422-1.364 1.417z" fill="#02AEEE"/></svg>