<svg xmlns="http://www.w3.org/2000/svg" viewBox="0 0 22 22"><g fill="none" fill-rule="evenodd"><circle cx="11" cy="11" r="11" fill="#F7931A"/><path fill="#FFF" d="M16.075 9.487c.215-1.44-.882-2.216-2.382-2.732l.487-1.953-1.188-.296-.474 1.901a49.68 49.68 0 0 0-.952-.224l.478-1.913-1.188-.297-.487 1.952a39.73 39.73 0 0 1-.758-.178l.001-.006-1.638-.41-.316 1.27s.881.202.863.214c.48.12.568.439.553.691L8.52 9.73c.033.009.076.021.123.04l-.125-.031-.777 3.115c-.059.147-.208.366-.544.283.012.017-.864-.216-.864-.216l-.59 1.36 1.546.386c.288.072.57.147.847.218l-.491 1.975 1.186.296.487-1.953c.324.088.639.169.947.245l-.485 1.945 1.188.296.491-1.97c2.026.383 3.55.228 4.19-1.605.517-1.476-.025-2.327-1.091-2.882.776-.179 1.36-.69 1.517-1.745zm-2.715 3.808c-.367 1.475-2.85.678-3.656.478l.653-2.616c.805.2 3.387.599 3.003 2.138zm.368-3.829c-.335 1.342-2.402.66-3.073.493l.591-2.372c.671.167 2.83.479 2.482 1.879z"/></g></svg>