<svg xmlns="http://www.w3.org/2000/svg" viewBox="0 0 22 22"><path fill="#01798a" d="M20.8 4h-5.4a2 2 0 0 0-1.8 1.4l-2.5 11.2a1 1 0 0 0 1 1.3h5.6a1.8 1.8 0 0 0 1.6-1.3l2.6-11.2a1 1 0 0 0-1-1.4"/><path fill="#024381" d="M11 16.6l2.6-11.2A2 2 0 0 1 15.4 4h-6a2 2 0 0 0-1.8 1.3L5.1 16.6A1 1 0 0 0 6 18h6a1 1 0 0 1-1-1.3"/><path fill="#dd0228" d="M5 16.6L7.7 5.4A2 2 0 0 1 9.5 4h-5a2 2 0 0 0-1.8 1.4L0 16.6a1.4 1.4 0 0 0 0 .2v.2a1 1 0 0 0 1 1h5a1 1 0 0 1-1-1.4"/><path fill="#fff" d="M3.6 9h.2a.3.3 0 0 0 .3-.1l.4-.7h1.2l-.3.4h1.4l-.2.7H5a.8.8 0 0 1-.7.4h-.8l.1-.7m-.1 1h3l-.2.6H5l-.2.7H6l-.2.7H4.7l-.3 1c0 .2 0 .2.3.2h1l-.2.7H3.6q-.5 0-.3-.6l.3-1.3H3l.1-.7h.8l.2-.7h-.7zm4.7-1.8v.4a2.2 2.2 0 0 1 1.1-.4h2l-.8 2.6q-.1.4-.8.4H7.5L7 13.1l.1.1h.4l-.1.6h-1q-.7 0-.6-.4l1.4-5.2h1zm1.7.7H8.2l-.2.7a1.4 1.4 0 0 1 .8-.2h1zm-.7 1.7c.2 0 .2 0 .2-.2l.1-.4H7.8v.6zm-1.1.8h1v.4h.4l.1-.4h.8v.4a.7.7 0 0 1-.8.6H9v.7c0 .1.1.2.3.2h.5l-.2.5h-1c-.4 0-.6-.1-.6-.4v-2M12.3 9l.2-.8h1.1v.3a2.9 2.9 0 0 1 1-.3H16l-.2.8h-.3l-1 3.8h.2l-.2.7h-.2l-.1.3H13v-.3h-2l.2-.7h.2l1-3.8h-.1m1.2 0l-.3 1a4.8 4.8 0 0 1 1-.3l.2-.7zm-.4 1.5l-.3 1a3.2 3.2 0 0 1 1-.2l.1-.8zm.2 2.3l.2-.8h-.9l-.2.8zM16 8h1v.4c0 .1 0 .2.2.2h.2l-.2.7h-.8c-.3 0-.4-.1-.4-.4zm-.4 1.5h3.5l-.2.7h-1l-.3.7h1.1l-.2.7h-1.2l-.3.4h.6l.2.9.2.1h.2l-.2.7h-.7c-.3 0-.5 0-.5-.3l-.2-.8-.6.8a.6.6 0 0 1-.6.3h-1l.2-.7h.3a.4.4 0 0 0 .3-.1l.9-1.3h-1l.2-.7h1.2l.2-.7h-1.3l.2-.7"/></svg>