<svg xmlns="http://www.w3.org/2000/svg" viewBox="0 0 22 22"><defs><linearGradient id="a" x1="88.996%" x2="86.082%" y1="0%" y2="94.71%"><stop offset="0%" stop-color="#FAD79A"/><stop offset="40.618%" stop-color="#F2B15F"/><stop offset="100%" stop-color="#CA6512"/></linearGradient><linearGradient id="b" x1="0%" x2="76.763%" y1="65.085%" y2="0%"><stop offset="0%" stop-color="#FAD79A"/><stop offset="40.618%" stop-color="#F2B15F"/><stop offset="100%" stop-color="#CA6512"/></linearGradient><linearGradient id="c" x1="31.331%" x2="31.331%" y1="100%" y2="0%"><stop offset="0%" stop-color="#FAD79A"/><stop offset="40.618%" stop-color="#F2B15F"/><stop offset="100%" stop-color="#CA6512"/></linearGradient></defs><g fill="none" fill-rule="evenodd"><path fill="url(#a)" d="M4.141 18.205c-1.325-1.144-2.039-4.473-.714-7.093-.315 3.524 1.989 6.294 3.599 7.122.803-.074 2.041-.287 3.072-.686-4.474-2.206-6.319-11.002.95-17.51C.882 3.446-1.502 14.815.815 17.473c.969.321 2.118.599 3.326.732"/><path fill="url(#b)" d="M.814 17.473c8.036 7.098 19.072 3.48 20.216.144a16.49 16.49 0 0 0-1.028-3.246c-.328 1.719-2.854 4-5.788 4.165 3.21-1.489 4.459-4.869 4.369-6.679-.463-.656-1.268-1.623-2.13-2.317.328 4.977-6.367 10.973-15.639 7.933"/><path fill="url(#c)" d="M6.337 8.043c4.148-2.773 12.687.026 14.69 9.577C23.157 7.113 14.507-.636 11.046.041a16.576 16.576 0 0 0-2.301 2.513c1.656-.576 4.894.47 6.502 2.929-2.893-2.035-6.443-1.426-7.968-.445-.336.73-.772 1.911-.942 3.005"/></g></svg>
