<svg viewBox="0 0 24 24" fill="none" xmlns="http://www.w3.org/2000/svg"><path d="M0 6a6 6 0 016-6h12a6 6 0 016 6v12a6 6 0 01-6 6H6a6 6 0 01-6-6V6z" fill="#151C2F"/><path d="M11.998 1l-.13.478v13.883l.13.14 5.998-3.809L11.998 1z" fill="#62688F"/><path d="M11.998 1L6 11.692l5.998 3.81V1z" fill="#8A92B2"/><path d="M11.998 16.722l-.074.096v4.946l.074.231 6.001-9.08-6.001 3.807z" fill="#62688F"/><path d="M11.998 21.995v-5.273L6 12.915l5.998 9.08z" fill="#8A92B2"/><path d="M11.998 15.501l5.998-3.809-5.998-2.929v6.738z" fill="#454A75"/><path d="M6 11.693l5.998 3.809V8.764L6 11.693z" fill="#62688F"/></svg>