<svg viewBox="0 0 24 24" fill="none" xmlns="http://www.w3.org/2000/svg"><path d="M0 6a3 3 0 013-3h21v15a3 3 0 01-3 3H0V6z" fill="#fff"/><path fill-rule="evenodd" clip-rule="evenodd" d="M17.56 12.334H19.168a.959.959 0 01.133.011.784.784 0 01.042.007l.01.003a.605.605 0 01.133.045.808.808 0 01.133.08.763.763 0 01.16.166.693.693 0 01.106.245.765.765 0 01-.107.583.738.738 0 01-.185.186.667.667 0 01-.213.098l-.026.007-.01.002-.017.003a.773.773 0 01-.106.012l-.026.002a.94.94 0 01-.027 0l-.014.001H17.56v-1.45zm2.138-1.642a.718.718 0 01-.08.508.643.643 0 01-.424.297.596.596 0 01-.027.006h-.006a.632.632 0 01-.02.004l-.027.003a1.351 1.351 0 01-.08.006h-1.473v-1.339H19.034a1.294 1.294 0 01.08.007c.01 0 .019.002.027.003a.92.92 0 01.02.002l.006.001a.782.782 0 01.16.05.646.646 0 01.238.179.636.636 0 01.133.273zm3.291-6.942H23V17.5a2.765 2.765 0 01-.436 1.486l-.026.04a2.046 2.046 0 01-.106.148l-.027.034a2.121 2.121 0 01-.106.126l-.026.03-.027.028-.027.027-.026.027-.027.026-.026.026-.027.024a3.052 3.052 0 01-.053.048l-.026.023-.027.023-.027.021a4.986 4.986 0 01-.026.021l-.027.021a2.65 2.65 0 01-.026.02l-.027.02-.026.02-.027.018-.026.018-.027.018-.026.018a2.398 2.398 0 01-.027.017l-.026.016-.027.016-.027.016a2.29 2.29 0 01-.026.015l-.027.015-.026.015-.027.014-.026.014-.027.013a1.307 1.307 0 01-.053.026l-.026.012-.027.012a2.132 2.132 0 01-.027.012l-.026.011-.027.011-.026.011-.027.01-.026.01-.027.01a1.402 1.402 0 01-.026.01c-.01.002-.018.006-.027.009l-.026.008-.027.009-.027.008-.026.008a2.643 2.643 0 01-.027.008l-.026.007-.027.007-.026.007-.027.006-.026.007a2.06 2.06 0 01-.027.005l-.026.006-.027.006-.027.005-.026.005-.027.004-.026.005-.027.003-.026.004-.027.004-.026.003c-.01 0-.018.002-.027.003a1.19 1.19 0 01-.026.003l-.027.002-.026.002-.027.002-.027.002-.026.002h-.027l-.026.002h-.08l-.005.001H16.216v-5.606H20.521l.026-.001h.027l.026-.002.027-.001.026-.002.027-.002.026-.002.027-.002a1.14 1.14 0 00.053-.006l.026-.003.027-.003.027-.004.026-.005.027-.004.026-.005.027-.005.026-.005.027-.006.026-.006.027-.007.027-.006a2.064 2.064 0 00.053-.015l.026-.008.027-.008.026-.009.027-.009.026-.01.027-.01a2.084 2.084 0 00.106-.044l.027-.013a1.083 1.083 0 00.053-.026l.026-.014a1.673 1.673 0 00.16-.1l.026-.019.027-.02.026-.021a1.42 1.42 0 00.212-.218l.027-.036.027-.039a1.248 1.248 0 00.159-.363 1.265 1.265 0 00-.08-.835 1.055 1.055 0 00-.133-.209 1.164 1.164 0 00-.159-.166l-.026-.023a1.916 1.916 0 00-.16-.115 2.345 2.345 0 00-.053-.031l-.026-.015-.027-.015a1.642 1.642 0 00-.026-.013l-.027-.014a2.158 2.158 0 00-.026-.012l-.027-.012a2.132 2.132 0 00-.026-.012l-.027-.011-.027-.01a1.208 1.208 0 00-.026-.01l-.027-.01a1.185 1.185 0 00-.053-.019l-.026-.009-.027-.008-.026-.007a9.284 9.284 0 00-.027-.008l-.026-.007-.027-.006a1.145 1.145 0 00-.106-.024l-.027-.005-.026-.005-.027-.004-.026-.005c-.01 0-.018-.002-.027-.003l-.026-.004-.027-.003-.027-.003-.026-.003-.027-.003-.026-.002-.025-.002v-.032l.025-.003.026-.005.027-.004.026-.005.027-.006.026-.006a2.07 2.07 0 00.027-.006l.027-.007.026-.007.027-.007.026-.008.027-.008a2.071 2.071 0 00.106-.038l.027-.01a1.062 1.062 0 00.106-.05l.026-.013.027-.014a1.67 1.67 0 00.026-.016l.027-.015a1.71 1.71 0 00.026-.017l.027-.018.026-.018c.01-.006.018-.013.027-.02a1.33 1.33 0 00.266-.269 1.017 1.017 0 00.106-.18 1.21 1.21 0 00-.107-1.208 1.217 1.217 0 00-.504-.4 1.601 1.601 0 00-.239-.09l-.026-.008a1.9 1.9 0 00-.053-.015l-.027-.007a1.733 1.733 0 00-.053-.012l-.027-.006-.026-.005-.027-.005-.026-.005-.027-.004-.026-.004-.027-.004-.026-.003-.027-.004-.026-.002-.027-.003-.026-.002-.027-.002-.027-.002-.026-.002h-.01l-.017-.001-.026-.002-.027-.001-.026-.002-.027-.001-.026-.001-.027-.001-.027-.001h-.026l-.027-.001H16.216V6.5a2.761 2.761 0 01.482-1.555l.027-.038.026-.037.027-.035.027-.035.026-.033a3.235 3.235 0 01.053-.063l.027-.03.026-.03a2.281 2.281 0 01.053-.056l.027-.027.026-.026.027-.026.026-.025.027-.024.026-.024a2.942 2.942 0 01.107-.089l.026-.02.027-.021a2.61 2.61 0 01.053-.04l.026-.018.027-.019.027-.018.026-.017a2.26 2.26 0 01.027-.017l.026-.017.027-.016.026-.016.027-.015.026-.015.027-.015.026-.014.027-.014.026-.014.027-.013.027-.013.026-.012.027-.012.026-.012.027-.011.026-.011.027-.011.026-.01.027-.01c.009-.004.018-.008.027-.01l.026-.01.027-.01.026-.008.027-.009.026-.008.027-.008.026-.008.027-.007.026-.007.027-.007.026-.007.027-.006.026-.006.027-.006.027-.005.026-.005.027-.006.026-.004.027-.004.026-.005c.01 0 .018-.002.027-.003l.026-.004.027-.003.027-.003.026-.003.027-.003.026-.002.027-.002.026-.002.027-.001.026-.001.027-.001.026-.001h.053l.007-.001H22.99z" fill="url(#paint0_linear)"/><path fill-rule="evenodd" clip-rule="evenodd" d="M1.057 13.32A7.027 7.027 0 011 13.291V6.5a2.762 2.762 0 01.454-1.514c.01-.013.018-.027.027-.04l.026-.038.027-.036.026-.036.027-.034.026-.033a2.636 2.636 0 01.053-.064l.027-.03.026-.03.027-.028a2.578 2.578 0 01.053-.055l.026-.026.027-.026.026-.024.027-.025.026-.024c.01-.007.018-.015.027-.023l.026-.022a2.552 2.552 0 01.133-.105l.026-.019a2.598 2.598 0 01.106-.073c.01-.005.018-.011.027-.017l.026-.016.027-.017.026-.015.027-.016.026-.015.027-.015.026-.014c.01-.004.018-.01.027-.014l.026-.013.027-.013.026-.013.027-.013.026-.012.027-.012.026-.011.027-.011.026-.011.027-.01.026-.01.027-.01.026-.01.027-.01.026-.008.027-.009.026-.008.027-.008.026-.008.027-.007.026-.007.027-.007.026-.007.027-.006.026-.006.027-.006.026-.006.027-.005.026-.005.027-.004.026-.005.027-.004.026-.004.027-.003.026-.004.027-.003.026-.003.027-.002.026-.002.027-.003.026-.001.027-.002.026-.001.027-.001.026-.001h.053l.012-.001H7.783V17.5a2.777 2.777 0 01-.261 1.17 2.802 2.802 0 01-.185.332l-.027.04a3.265 3.265 0 01-.185.243l-.027.03-.026.03-.027.03-.026.028a2.94 2.94 0 01-.133.129l-.026.024c-.01.007-.018.015-.027.023l-.026.023-.027.022-.026.021-.027.021-.026.02-.027.02-.026.02-.027.02-.026.018-.027.018-.026.017-.027.018-.026.016-.027.017-.026.016-.027.015a1.519 1.519 0 01-.08.045l-.026.014-.026.013-.027.014-.026.013-.027.012-.026.012-.027.012-.026.012-.027.011-.026.01-.027.012-.026.01-.027.01-.026.01-.027.008-.026.01a2.551 2.551 0 01-.027.008l-.026.009-.027.008-.026.008-.027.007a2.289 2.289 0 01-.026.007l-.027.008-.026.006a2.432 2.432 0 01-.027.006l-.026.007-.027.005-.026.006-.027.005a1.2 1.2 0 01-.026.005l-.027.005-.026.004-.027.005-.026.004-.027.003a2.255 2.255 0 01-.026.004l-.027.003c-.009 0-.017.002-.026.003l-.027.002-.026.003-.027.002-.026.002-.027.001-.026.002h-.027l-.026.002h-.053l-.025.001H1v-5.796l.057.015.026.007.027.006.026.007.027.006.026.006.027.006.026.006.027.006.026.006.027.006.026.005.027.006.026.005.027.006.026.005.027.005.026.006.027.005.026.005.027.005.026.005.027.005.026.005.027.005.026.004.027.005.026.005.027.004.026.005.027.004.026.004.027.005.026.004.027.004.026.004.027.004.026.004.027.004.026.004.027.004.026.003.027.004.026.004.027.004.026.003.027.004.026.003.027.003.026.004.027.003.026.003.027.003.026.003.027.003.026.003.027.003.026.003.027.003.026.002.027.003.026.003.027.002.026.003.027.002.026.003.027.002.026.002.027.002.026.003.027.002.026.002.027.002.026.002.027.002.026.002.027.001.026.002.027.002.026.001.027.002.026.001.027.002h.026l.027.002.026.001.027.002h.026l.027.002h.026l.027.002h.026l.027.001.026.001h.027l.026.001h.027l.026.001h.027l.026.001h.08l.026.001h.159l.027-.001h.026l.027-.001h.026l.027-.001.026-.001h.027l.026-.002h.027l.026-.002h.026l.027-.002.026-.001.027-.002.026-.001.027-.002.026-.001.027-.002.026-.002.027-.002.026-.002.027-.002.026-.002.027-.002.026-.003.027-.002.026-.003.027-.003.026-.002.027-.003.026-.003.027-.004.026-.003.027-.003.026-.004.027-.003.026-.004.027-.004.026-.004.027-.004.026-.004.027-.004.026-.005.027-.004.026-.005.027-.005.026-.005.027-.005.026-.006.027-.005.026-.006.027-.006.026-.006.027-.006.026-.006.027-.007.026-.006.027-.007.026-.007.027-.007.026-.008.027-.008.026-.007.027-.008.026-.009.027-.008.026-.009.027-.009.026-.009.027-.01.026-.009.027-.01.026-.01.027-.01.026-.011.027-.011.026-.012.027-.011.026-.012.027-.013.026-.012.027-.013.026-.014.027-.014.026-.014a2.025 2.025 0 00.08-.045l.026-.016.027-.016.026-.017.027-.018.026-.018.027-.019.026-.019c.01-.006.018-.013.027-.02l.026-.02.027-.022.026-.022a1.854 1.854 0 00.053-.047l.027-.024.026-.026.027-.027.026-.027.027-.03a1.495 1.495 0 00.08-.096l.026-.036a1.96 1.96 0 00.132-.214 1.807 1.807 0 00.16-.426 2.173 2.173 0 00.052-.315c.009-.09.013-.18.013-.273V9.356H4.852v3.19a1.676 1.676 0 01-.033.328 1.417 1.417 0 01-.132.363 1.19 1.19 0 01-.477.478 1.177 1.177 0 01-.053.028l-.026.013a1.849 1.849 0 01-.16.063 1.912 1.912 0 01-.211.055 15.055 15.055 0 01-.053.01l-.027.004a1.132 1.132 0 01-.053.007l-.026.003-.027.002-.026.002a2.214 2.214 0 01-.053.004l-.027.001h-.026l-.027.002H3.31l-.026-.001-.027-.001H3.23l-.027-.002-.026-.001-.027-.002-.026-.001-.027-.002-.026-.002-.027-.002-.026-.002-.027-.002-.026-.003-.027-.003-.026-.002-.027-.003-.026-.004-.027-.003-.026-.004-.027-.003-.026-.004-.027-.004-.026-.004-.027-.004-.026-.005-.027-.005-.026-.004-.027-.005-.026-.005-.027-.006-.026-.005-.027-.005-.026-.006-.027-.006-.026-.006-.027-.006-.026-.006-.027-.007-.026-.006-.027-.007-.026-.007-.027-.007-.026-.007-.027-.007-.026-.008-.027-.007-.026-.008-.027-.008-.026-.008-.027-.008-.026-.008-.027-.008-.026-.009-.027-.009-.026-.008-.027-.01-.026-.008-.027-.01-.026-.009-.027-.01-.026-.01-.027-.009-.026-.01-.027-.01-.026-.01-.027-.01-.026-.01-.027-.01-.026-.011-.027-.011-.026-.011-.027-.011-.026-.011-.027-.011-.026-.012-.027-.011-.026-.012-.027-.012-.026-.011-.027-.012-.026-.012-.027-.013-.026-.012-.027-.012-.026-.013z" fill="url(#paint1_linear)"/><path fill-rule="evenodd" clip-rule="evenodd" d="M8.665 10.053a2.57 2.57 0 00-.057.047V6.5a2.762 2.762 0 01.428-1.473 2.756 2.756 0 01.053-.08l.027-.039.026-.036.027-.035.026-.035.027-.033a2.746 2.746 0 01.053-.063l.026-.03.027-.03a2.544 2.544 0 01.079-.083l.026-.027c.01-.008.018-.017.027-.026l.026-.024.027-.025.026-.023a2.43 2.43 0 01.292-.225 2.757 2.757 0 01.053-.035l.026-.016.027-.017.026-.015.027-.016.026-.015.027-.014.026-.015c.01-.004.018-.009.027-.014l.026-.013.027-.013.026-.013.027-.013.026-.012.027-.011.026-.012a2.26 2.26 0 01.027-.011l.026-.01.027-.011.026-.01.027-.01.026-.01.027-.01.026-.008.027-.009.026-.008.027-.008.026-.008.027-.007.026-.007.027-.007.026-.007.027-.006.026-.006.027-.006.026-.006.027-.005.026-.005.027-.004.026-.005.027-.004.026-.004c.01 0 .018-.002.027-.003l.026-.004.027-.003c.009 0 .018-.002.026-.003l.027-.002.026-.002.027-.003.026-.001.027-.002.026-.001.027-.001.026-.001h.053l.012-.001H15.391V17.5a2.777 2.777 0 01-.26 1.17 2.51 2.51 0 01-.186.332l-.027.04-.026.038a1.91 1.91 0 01-.08.108l-.026.033-.027.033-.026.031a2.503 2.503 0 01-.053.06l-.026.03-.027.027-.026.028a3.31 3.31 0 01-.053.052l-.027.025-.026.025-.027.023-.026.024-.027.022-.026.023-.027.021-.026.021-.027.02-.026.02-.027.02-.026.02c-.01.005-.018.012-.027.018l-.026.018-.027.017-.026.018-.027.016a2.365 2.365 0 01-.026.017l-.027.016a2.308 2.308 0 01-.053.03l-.026.015-.027.014-.026.014-.027.014-.026.013-.027.014-.026.012-.027.012-.026.012-.027.012-.026.01-.027.012-.026.01-.027.01-.026.01-.027.01-.026.01-.027.008a1.17 1.17 0 01-.026.01l-.027.008-.026.008-.027.008-.026.007-.027.007-.026.007-.027.007a2.538 2.538 0 01-.026.006l-.027.007-.026.005-.027.006-.026.005-.027.005-.026.005-.027.004-.026.005-.027.003-.026.004-.027.004c-.009 0-.018.002-.026.003-.01 0-.018.002-.027.003l-.026.002-.027.003-.026.002-.027.002-.026.001-.027.002h-.026a1.173 1.173 0 01-.053.002h-.027l-.024.001H8.608V13.9a2.882 2.882 0 00.216.167l.027.018.026.018.027.017a2.137 2.137 0 00.053.033l.026.016.027.016.026.015.027.016.026.014.027.015.026.014.027.013.026.014.027.013.026.013.027.013.026.012.027.012.026.012.026.011.027.011.026.012.027.01.026.01.027.011.026.01.027.01.026.01.027.01.026.009.027.01.026.008.027.009.026.008.027.009.026.008.027.008.026.008.027.008.026.007.027.008.026.007.027.007.026.007.027.007.026.006.027.007.026.006.027.006.026.006.027.006.026.006.027.006.026.005.027.006.026.005.027.005.026.005.027.005.026.005.027.004.026.005.027.004.026.005.027.004.026.004.027.004.026.004.027.004.026.003.027.004.026.003.027.004.026.003.027.003.026.003.027.003.026.003.027.003.026.003.027.002.026.003.027.002.026.003.027.002.026.002.027.002.026.002.027.002.026.002.027.002.026.002.027.001.026.002.027.001.026.002h.027l.026.002.027.001.026.001.027.001.026.001.027.001h.026l.027.002h.053l.026.001h.027l.026.001h.053l.027.001h.212l.026-.001h.027l.026-.001h.027l.026-.001h.027l.026-.002h.027l.026-.001h.027l.026-.002h.027l.026-.002h.027l.026-.002h.013l.014-.001.026-.002h.027l.026-.002.027-.002.026-.002.027-.001.026-.002.027-.002.026-.002.027-.002.026-.002.027-.003.026-.002.027-.002.026-.003.027-.002.026-.003.027-.003.026-.003.027-.002.026-.003.027-.003.026-.003.027-.003.026-.004.027-.003.026-.003.027-.004.026-.003.027-.004.026-.003.027-.004.026-.004.027-.003.026-.004.027-.004.026-.004.027-.004.026-.004.027-.004.026-.004.027-.004.026-.005.027-.004.026-.004.027-.005.026-.004.027-.005.026-.004.027-.005.026-.005.027-.005.026-.004.027-.005.026-.005.027-.005.026-.005.027-.005.026-.005.027-.005.026-.006.027-.005.026-.005.027-.005.026-.006.027-.006.026-.005.027-.006.026-.005.027-.006.026-.006.027-.005.026-.006.027-.006.026-.006.027-.006.026-.007.027-.006.026-.006.027-.006.026-.007v-1.163l-.026.013-.027.013-.026.013-.027.013-.026.013-.027.012-.026.013-.027.012-.026.012-.027.012-.026.012-.027.012-.026.012-.027.011-.026.012-.027.011-.026.011-.027.011-.026.01-.027.012-.026.01-.027.01-.026.01-.027.011-.026.01-.027.01-.026.01-.027.009-.026.01-.027.008-.026.01-.027.008-.026.01-.027.008-.026.008-.027.009-.026.008-.027.008-.026.008-.027.007-.026.008-.027.007-.026.008-.027.007-.026.007-.027.006-.026.007-.027.007-.026.006-.027.006-.026.006-.027.006-.026.006-.027.005-.026.006-.027.005-.026.005-.027.005-.026.005-.027.005-.026.005-.027.004-.026.004-.027.004-.026.004-.027.004-.026.004-.027.004-.026.003-.027.003-.026.003-.027.003-.026.003-.027.003-.026.003-.027.002-.026.002-.027.003h-.016l-.01.002-.027.001-.026.002-.027.002h-.026l-.027.002h-.026l-.027.002h-.053l-.026.001h-.08l-.026-.001h-.027l-.026-.002h-.027l-.026-.002-.027-.002-.026-.002-.027-.002-.026-.002c-.01 0-.018-.002-.027-.003l-.026-.002-.027-.003-.026-.004-.027-.003-.026-.004a2.104 2.104 0 01-.027-.004l-.026-.004-.027-.005-.026-.005-.027-.005-.026-.005-.027-.006-.026-.006-.027-.006a2.05 2.05 0 01-.026-.007l-.027-.007-.026-.007a9.284 9.284 0 01-.027-.007l-.026-.008a1.164 1.164 0 01-.027-.009l-.026-.009-.027-.008a1.192 1.192 0 01-.026-.01l-.027-.01-.026-.01-.027-.01-.026-.012-.027-.011-.026-.013-.027-.012a2.174 2.174 0 01-.026-.013l-.027-.014-.026-.014a2.262 2.262 0 01-.027-.015l-.026-.015a2.327 2.327 0 01-.053-.033l-.027-.017-.026-.018-.027-.019-.026-.019-.027-.02a1.88 1.88 0 01-.026-.022l-.027-.022a1.52 1.52 0 01-.212-.22 1.257 1.257 0 01-.106-.15 1.405 1.405 0 01-.106-.2 1.649 1.649 0 01-.106-.313 2.122 2.122 0 01-.053-.32 2.59 2.59 0 01.027-.67 2.105 2.105 0 01.106-.375 1.649 1.649 0 01.318-.507l.026-.028.027-.026.026-.026.027-.024a1.52 1.52 0 01.08-.066l.026-.02.026-.02a.978.978 0 01.027-.019l.026-.018a1.5 1.5 0 01.053-.034l.027-.016.026-.015.027-.015.026-.014a2.197 2.197 0 01.053-.027l.027-.012.026-.012.027-.012.026-.011.027-.01.026-.011.027-.01.026-.01.027-.008a2.056 2.056 0 01.053-.018l.026-.008.027-.007.026-.008.027-.006.026-.007.027-.006.026-.006.027-.006.026-.005.027-.005.026-.005.027-.005.026-.004.027-.004.026-.004.027-.003.026-.004.027-.003.026-.002.027-.003.026-.002.027-.002.026-.002.027-.002.026-.001a2.181 2.181 0 01.053-.002l.027-.001h.026l.027-.001h.106l.026.001.027.001h.026l.027.002.026.002h.027l.026.003.027.001.01.001.016.001.027.002.026.003.027.002.026.003.027.002.026.003.027.003.026.003.027.004.026.003.027.003.026.004.027.004.026.004.027.004.026.004.027.005.026.004.027.005.026.005.027.005.026.005.027.005.026.005.027.006.026.006.027.006.026.006.027.006.026.006.027.007.026.006.027.007.026.007.027.007.026.007.027.008.026.007.027.008.026.008.027.008.026.008.027.008.026.008.027.01.026.008.027.009.026.009.027.01.026.008.027.01.026.01.027.01.026.01.027.01.026.01.027.01.026.011.027.01.026.012.027.01.026.012.027.011.026.012.027.012.026.011.027.012.026.012.027.013.026.012.027.012.026.013.027.013.026.012.027.013.026.013.027.014.026.013V9.545l-.026-.007-.027-.006-.026-.006-.027-.007-.026-.006-.027-.006-.026-.006-.027-.006-.026-.006-.027-.005-.026-.006-.027-.006-.026-.005-.027-.006-.026-.006-.027-.005-.026-.005-.027-.006-.026-.005-.027-.005-.026-.006-.027-.005-.026-.005-.027-.005-.026-.005-.027-.005-.026-.005-.027-.005-.026-.004-.027-.005-.026-.005-.027-.005-.026-.004-.027-.005-.026-.004-.027-.005-.026-.004-.027-.004-.026-.005-.027-.004-.026-.004-.027-.004-.026-.004-.027-.004-.026-.004-.027-.004-.026-.004-.027-.003-.026-.004-.027-.004-.026-.003-.027-.004-.026-.003-.027-.004-.026-.003-.027-.003-.026-.003-.027-.003-.026-.003-.027-.003-.026-.003-.027-.003-.026-.003-.027-.003-.026-.002-.027-.003-.026-.002-.027-.003-.026-.002-.027-.002-.026-.002-.027-.002-.026-.002-.027-.002-.026-.002-.027-.002-.026-.002-.027-.001-.026-.002-.027-.001-.026-.001h-.014l-.013-.001-.026-.002H12.4l-.026-.002h-.027l-.026-.002h-.027l-.026-.001-.027-.001h-.026l-.027-.001-.026-.001h-.027l-.026-.001h-.053l-.027-.001H11.74l-.027.001h-.026l-.027.001h-.026l-.027.002h-.026l-.027.001-.026.001-.027.001-.026.001-.027.001-.026.002-.027.001-.026.001-.027.002-.026.001-.027.002-.026.002-.027.002-.026.001-.027.002-.026.002-.027.002-.026.003-.027.002-.026.002-.027.003-.026.002-.027.003-.026.003-.027.002-.026.003-.027.003-.026.003-.027.004-.026.003-.027.003-.026.004-.027.003-.026.004-.027.004-.026.004-.027.004-.026.004-.027.004-.026.004-.027.005-.026.004-.027.005-.026.005-.027.005-.026.005-.027.005-.026.005-.027.005-.026.006-.027.006-.026.005-.027.006-.026.006-.027.006-.026.007-.027.006-.026.007-.027.007-.026.007-.027.007-.026.007-.027.007-.026.008-.027.008-.026.008-.027.008-.026.008-.027.008-.026.009-.027.009-.026.009-.027.009-.026.009-.027.01-.026.01-.027.01-.026.01-.027.01-.026.01-.027.011-.026.011-.027.012-.026.011-.026.012-.027.012-.026.012-.027.013-.026.013-.027.013-.026.014-.027.013-.026.014-.027.015-.026.014-.027.015-.026.016a2.983 2.983 0 00-.053.032l-.027.016-.026.017-.027.017-.026.018-.027.018a3.252 3.252 0 00-.053.038l-.026.02a2.228 2.228 0 00-.08.061z" fill="url(#paint2_linear)"/><defs><linearGradient id="paint0_linear" x1="16.216" y1="12" x2="23" y2="12" gradientUnits="userSpaceOnUse"><stop stop-color="#007B40"/><stop offset="1" stop-color="#55B330"/></linearGradient><linearGradient id="paint1_linear" x1="1" y1="12" x2="7.783" y2="12" gradientUnits="userSpaceOnUse"><stop stop-color="#1D2970"/><stop offset="1" stop-color="#006DBA"/></linearGradient><linearGradient id="paint2_linear" x1="8.608" y1="12" x2="15.391" y2="12" gradientUnits="userSpaceOnUse"><stop stop-color="#6E2B2F"/><stop offset="1" stop-color="#E30138"/></linearGradient></defs></svg>