<svg viewBox="0 0 24 24" fill="none" xmlns="http://www.w3.org/2000/svg"><path d="M0 4a4 4 0 014-4h16a4 4 0 014 4v16a4 4 0 01-4 4H4a4 4 0 01-4-4V4z" fill="#B10365"/><path d="M5.411 9.989H3V4.853c0-.649.238-1.566 1.308-2.386 1.028-.787 2.748-.439 3.44.096 2.747-1.642 4.729.706 4.729 1.985v5.44H10.12V4.93c0-.248-.168-.611-.598-.611-.43 0-.573.426-.56.649v5.02H6.57V4.93c-.006-.223-.134-.668-.598-.668-.464 0-.567.445-.56.668v5.059zM5.411 19.113H3v-5.135c0-.649.238-1.566 1.308-2.386 1.028-.787 2.748-.439 3.44.095 2.747-1.641 4.729.707 4.729 1.986v5.44H10.12v-5.058c0-.248-.168-.611-.598-.611-.43 0-.573.426-.56.649v5.02H6.57v-5.058c-.006-.223-.134-.668-.598-.668-.464 0-.567.445-.56.668v5.058z" fill="#fff"/><path fill-rule="evenodd" clip-rule="evenodd" d="M21 15.124c0 2.193-1.74 3.97-3.888 3.97-2.147 0-3.888-1.777-3.888-3.97 0-2.193 1.741-3.971 3.888-3.971S21 12.931 21 15.123zm-2.206-.02a1.69 1.69 0 01-1.682 1.7 1.69 1.69 0 01-1.682-1.7 1.69 1.69 0 011.682-1.698c.93 0 1.682.76 1.682 1.699zM17.112 9.97C19.26 9.97 21 8.191 21 5.998s-1.74-3.97-3.888-3.97c-2.147 0-3.888 1.777-3.888 3.97 0 2.193 1.74 3.97 3.888 3.97zm0-2.291c.93 0 1.682-.761 1.682-1.7a1.69 1.69 0 00-1.682-1.698A1.69 1.69 0 0015.43 5.98a1.69 1.69 0 001.682 1.699z" fill="#fff"/><path d="M8.87 20.153h-.315v-.292h.315v.292zM8.555 20.298h.315v1.212h-.315v-1.212z" fill="#fff"/><path fill-rule="evenodd" clip-rule="evenodd" d="M7.916 20.444a.434.434 0 00-.366-.173.38.38 0 00-.342.185v-.583h-.31v1.637h.304v-.153c.041.06.08.101.115.125.06.04.139.06.237.06a.42.42 0 00.364-.186.794.794 0 00.131-.468.708.708 0 00-.133-.445zm-.259.738a.212.212 0 01-.186.099c-.092 0-.16-.034-.206-.103a.46.46 0 01-.067-.258.6.6 0 01.032-.215.23.23 0 01.232-.157c.111 0 .188.053.229.16a.597.597 0 01.033.214.46.46 0 01-.067.26zM6.407 20.906c0 .178-.05.33-.15.457-.1.126-.252.189-.456.189-.204 0-.356-.063-.456-.19a.714.714 0 01-.15-.456c0-.175.05-.326.15-.455.1-.128.252-.192.456-.192.204 0 .356.064.456.192.1.128.15.28.15.455zm-.607.38c.09 0 .16-.033.209-.099a.468.468 0 00.073-.281.462.462 0 00-.073-.28.244.244 0 00-.21-.1c-.09 0-.16.034-.21.1a.462.462 0 00-.072.28c0 .122.024.215.073.281.05.066.12.1.21.1z" fill="#fff"/><path d="M4.331 20.271c.053 0 .104.01.155.031a.352.352 0 01.206.265c.007.04.01.1.01.179l-.002.764h-.317v-.772a.258.258 0 00-.022-.113c-.028-.057-.079-.085-.153-.085-.085 0-.144.037-.177.11a.348.348 0 00-.025.138v.722h-.313v-.722a.413.413 0 00-.021-.157c-.026-.058-.078-.087-.154-.087-.088 0-.148.029-.178.087a.344.344 0 00-.025.15v.729H3V20.3h.302v.177a.508.508 0 01.108-.135.367.367 0 01.234-.07c.091 0 .164.02.22.06.045.038.08.087.103.146a.399.399 0 01.151-.157.453.453 0 01.213-.05zM9.457 21.51h.31v-1.64h-.31v1.64z" fill="#fff"/><path fill-rule="evenodd" clip-rule="evenodd" d="M10.817 20.266a.61.61 0 01.267.056.47.47 0 01.196.18.62.62 0 01.09.25c.008.055.012.135.01.24h-.812c.005.121.042.206.112.255a.26.26 0 00.155.046.22.22 0 00.155-.056.263.263 0 00.058-.083h.317a.405.405 0 01-.11.219.533.533 0 01-.427.177.594.594 0 01-.4-.15c-.115-.099-.172-.26-.172-.484 0-.21.052-.37.155-.483a.53.53 0 01.406-.167zm0 .26a.21.21 0 00-.167.07.35.35 0 00-.074.187h.482c-.005-.084-.03-.148-.075-.19a.226.226 0 00-.166-.066z" fill="#fff"/><path d="M14.249 20.302a.453.453 0 00-.368.019.398.398 0 00-.152.157.356.356 0 00-.102-.146.364.364 0 00-.22-.06.367.367 0 00-.234.07.509.509 0 00-.109.135V20.3h-.301v1.21h.314v-.73c0-.066.009-.115.025-.149.03-.058.09-.087.179-.087.076 0 .127.029.153.087a.41.41 0 01.022.157v.722h.313v-.722c0-.054.008-.1.025-.139.032-.073.091-.109.177-.109.074 0 .125.028.152.085.015.03.022.067.022.113v.772h.318l.002-.764c0-.079-.003-.138-.01-.18a.352.352 0 00-.206-.264z" fill="#fff"/><path fill-rule="evenodd" clip-rule="evenodd" d="M16.17 20.906c0 .178-.05.33-.15.457-.1.126-.252.189-.456.189-.204 0-.356-.063-.456-.19a.714.714 0 01-.15-.456c0-.175.05-.326.15-.455.1-.128.252-.192.456-.192.204 0 .356.064.456.192.1.128.15.28.15.455zm-.607.38c.09 0 .16-.033.209-.099a.468.468 0 00.073-.281.463.463 0 00-.073-.28.244.244 0 00-.21-.1c-.09 0-.16.034-.21.1a.463.463 0 00-.072.28c0 .122.024.215.073.281.049.066.119.1.21.1z" fill="#fff"/><path d="M17.63 20.368a.448.448 0 00-.3-.1.388.388 0 00-.243.074.534.534 0 00-.113.135V20.3h-.3v1.21h.31v-.656c0-.075.01-.137.03-.185.039-.091.111-.137.216-.137.086 0 .144.032.175.094a.344.344 0 01.025.147v.737h.318v-.816c0-.152-.04-.26-.118-.326z" fill="#fff"/><path fill-rule="evenodd" clip-rule="evenodd" d="M18.782 20.266a.61.61 0 01.267.056.47.47 0 01.195.18.618.618 0 01.09.25c.009.055.012.135.01.24h-.812c.005.121.042.206.113.255a.26.26 0 00.154.046.22.22 0 00.156-.056.263.263 0 00.058-.083h.316a.404.404 0 01-.11.219.533.533 0 01-.426.177.594.594 0 01-.4-.15c-.115-.099-.173-.26-.173-.484 0-.21.052-.37.156-.483a.53.53 0 01.406-.167zm0 .26a.21.21 0 00-.168.07.35.35 0 00-.074.187h.482a.275.275 0 00-.075-.19.226.226 0 00-.165-.066z" fill="#fff"/><path d="M19.92 21.744l-.039-.002v.254a1.25 1.25 0 00.142.004c.137 0 .228-.028.274-.083.046-.055.108-.198.186-.427l.407-1.192h-.33l-.244.894-.26-.894h-.345l.436 1.265c.003.009-.004.033-.02.073-.015.04-.032.067-.05.08a.154.154 0 01-.07.025.468.468 0 01-.087.003z" fill="#fff"/></svg>