<svg viewBox="0 0 24 24" fill="none" xmlns="http://www.w3.org/2000/svg"><path fill-rule="evenodd" clip-rule="evenodd" d="M12 0a12 12 0 110 24 12 12 0 010-24z" fill="#F01010"/><path fill-rule="evenodd" clip-rule="evenodd" d="M11.45 8.12h-1.02l-.57-.04c-.05.02-.07.07-.1.15a.2.2 0 00.05.18l.22.01c.27.06.48.11.6.16.14.08.23.2.26.36.04.16.06.38.04.65l-.05 1.34c-.02.52-.06 1.06-.1 1.62-.03.86-.11 2.95-.35 3.57a.51.51 0 01-.26.29c-.13.05-.28.1-.46.12l-.3.04c-.05.03-.07.09-.05.18 0 .05.01.1.07.16l.7-.05h1.46l.74.05c.06-.04.1-.09.1-.16a.23.23 0 00-.08-.18l-.52-.04a.76.76 0 01-.39-.12.39.39 0 01-.1-.15c-.12-.25-.12-.69-.11-.95 0-.56.02-1.11.03-1.67l.06-1.45.07-1.17.06-1.18h.03c.15.3.3.6.43.95l.44.95 1.24 2.56.38.8c.17.35.34.67.48 1a8.24 8.24 0 01.34.85c.07.07.18.06.26 0a30.12 30.12 0 011.5-3.02l1.19-2.32c.09-.2.18-.4.31-.64a21 21 0 01.37-.68l.2-.42h.02l.04 5.54c.02.3 0 .5-.02.67-.02.13-.05.25-.18.31-.07.09-.22.12-.46.14l-.4.04c-.04.03-.06.09-.04.18 0 .05.01.1.07.16l.85-.05h1.59l.83.05c.05-.04.07-.09.07-.16a.2.2 0 00-.03-.18l-.45-.04c-.2-.02-.35-.07-.44-.16a.57.57 0 01-.19-.34 68.17 68.17 0 01-.12-2.59c-.01-.72-.05-1.4-.07-2.04V9.7c0-.3.02-.54.06-.72.03-.16.13-.3.26-.4.13-.07.35-.12.64-.16l.28-.01c.04-.04.05-.1.04-.18a.2.2 0 00-.06-.15l-.65.04h-.99l-.6-.04c-.01.3-.12.65-.29 1.04l-.73 1.5-1.3 2.54c-.33.68-.64 1.34-1.05 2h-.03a41.4 41.4 0 01-.93-1.84l-1.56-3.05c-.2-.43-.4-.84-.54-1.22-.13-.38-.18-.7-.16-.97l-.63.04zm-7.57 6.81c0 .46-.02.8-.06 1.04-.03.47-.35.62-.79.65l-.28.03c-.1.1-.08.28.02.35.58-.04 1.1-.06 1.7-.06.62 0 1.2.03 1.82.06.04-.04.06-.1.08-.16 0-.1-.02-.15-.06-.19l-.38-.03c-.3-.02-.5-.08-.62-.17a5.52 5.52 0 01-.29-1.5v-1.28c-.41.01-.79 0-1.12-.06l-.02 1.32zm-1.2-6.67c-.03.07.01.12.07.18l.49.05c.2.02.36.08.45.17.1.07.15.2.17.4.02.2.04.5.04.88v2.7c.37.02.75.02 1.12 0V8.91a.66.66 0 01.04-.34c.02-.06.1-.11.19-.13.11-.02.3-.02.54-.02.72.02 1.26.2 1.66.59.38.38.56.9.56 1.57.02.58-.13 1.08-.45 1.48-.28.34-.7.6-1.26.73-.54.13-1.31.18-2.35.16-.9-.01-1.88-.07-2.95-.18 1.18.24 2.07.4 2.63.46a10 10 0 002.67-.04c.43-.05.83-.16 1.19-.3.34-.14.67-.34 1.03-.58.2-.14.4-.38.57-.7.13-.28.2-.63.22-1.05a2.52 2.52 0 00-1.1-2.03 3.92 3.92 0 00-1.17-.42C6.6 8.04 6.1 8 5.5 8 4.95 8 4.44 8 4 8.02c-.45.02-.87.03-1.22.07a.2.2 0 00-.1.17z" fill="#fff"/></svg>