<svg viewBox="0 0 22 22" xmlns="http://www.w3.org/2000/svg"><g fill="none" fill-rule="evenodd"><path d="M10.78.03c-.4.1-.67.44-.95.72L.8 9.78c-.45.44-.88.83-.8 1.5.06.34.3.57.52.8l.8.8 3.7 3.66c.87.88 1.77 1.75 2.66 2.64.56.56 1.1 1.16 1.7 1.7.55.47 1.02 1.28 1.86 1.1.38-.1.65-.44.9-.7l9.1-9.1c.43-.42.84-.78.75-1.45-.07-.3-.3-.52-.5-.73l-8.8-8.8C12.2.7 11.62-.16 10.8.04" fill="#0072BC"/><path d="M10.9.9c-.4.05-.65.33-.93.6L8.55 2.95C6.67 4.85 4.78 6.7 2.9 8.6L1.47 10c-.34.34-.66.67-.6 1.2.05.37.3.57.54.83l.87.85c1.25 1.26 2.53 2.5 3.8 3.76 1.13 1.15 2.3 2.28 3.43 3.43.47.45.92 1.14 1.65 1.04.38-.03.62-.36.87-.6.5-.53 1.02-1 1.53-1.5 1.95-1.98 3.9-3.93 5.86-5.88.35-.3.67-.64 1-.97.4-.4.8-.76.7-1.4-.04-.3-.26-.5-.45-.68l-8.12-8.12C12.1 1.5 11.63.8 10.93.9" fill="#FEE001"/><path d="M10.88 1.77c-.34.06-.56.34-.8.57l-1.3 1.3C7.1 5.34 5.3 7 3.66 8.8c-.45.5-.94.95-1.4 1.42-.23.22-.52.47-.5.82.08.58.82 1.08 1.2 1.46l6.75 6.75c.36.35.85 1.1 1.43.98.35-.06.57-.35.8-.6l7.8-7.78c.28-.3.57-.56.5-1-.02-.28-.2-.45-.4-.64l-.73-.72C18 8.4 16.92 7.3 15.84 6.23 14.72 5.1 13.52 4 12.44 2.8c-.4-.42-.9-1.15-1.56-1.03" fill="#0072BC"/><path d="M9.43 9.2v2.54c-.2-.03-.37-.17-.53-.3-.4-.3-.77-.7-1.04-1.13-.12-.16-.23-.56-.4-.7-.08-.04-.24 0-.33 0h-.85c.05.43.3.86.5 1.2.78 1.44 2.2 2.4 3.78 2.4V8.33l-.04-.34-.24-.02H7.3c.05-.93.64-1.83 1.3-2.4.23-.2.54-.46.83-.5v2.5h1.13V3.53c-2.02.02-3.7 1.6-4.23 3.6-.14.5-.17.98-.17 1.5 0 .13-.02.43.07.54.05.06.16.04.23.04h2.97zm2-5.68v8.7l.03.98c.16-.04.32 0 .48-.03.34-.03.68-.12 1-.24 1.27-.47 2.3-1.68 2.7-3.02.14-.46.2-.94.2-1.43 0-.1.03-.4-.05-.5-.1-.07-.45 0-.57 0H13.7c-.15 0-.5-.08-.6 0-.07.06-.05.2-.05.25v.72c0 .07-.02.2.06.25.13.05.34 0 .46 0h1.05c-.04 1.12-1.06 2.2-1.97 2.6V5.03c.24.06.47.24.66.4.65.48 1.14 1.28 1.3 2.12h1.1c0-.37-.14-.75-.26-1.1-.62-1.7-2.25-2.94-4-2.94zM6.18 9.68v2.66c0 .33-.08.77.2 1 .5.4 1.37.32 1.97.37.36.05.8.07.98.48.12.27.02.6 0 .9-.07.55-.17 1.1-.28 1.66-.05.24-.2.6-.16.84 0 .18.3.37.4.5.4.42.8.94 1.26 1.3v-5.5c0-.1.04-.32-.03-.4-.04-.07-.15-.05-.22-.05-.17 0-.37-.05-.56-.08-.53-.1-1.02-.32-1.46-.64-.6-.44-1.16-1-1.53-1.7-.13-.27-.26-.53-.37-.8-.06-.16-.1-.38-.2-.5zm9.62 0c-.4 1.34-1.25 2.7-2.45 3.3-.45.2-.9.3-1.37.38-.1.02-.44-.02-.5.07-.07.1-.03.32-.03.42v5.5c.18-.1.32-.3.46-.45l.83-.87c.1-.12.36-.32.38-.5.03-.2-.1-.5-.13-.7-.1-.55-.2-1.1-.28-1.67-.05-.28-.15-.7 0-.97.14-.37.5-.45.83-.48.6-.06 1.26 0 1.84-.24.16-.08.38-.2.44-.4.08-.23 0-.56 0-.8v-1.7c0-.26.1-.68 0-.92z" fill="#FFE000"/></g></svg>
