<svg xmlns="http://www.w3.org/2000/svg" viewBox="0 0 22 22"><defs><linearGradient id="a" x1="88.016%" x2="7.84%" y1="63.54%" y2="5.375%"><stop offset="0%" stop-color="#006941"/><stop offset="40%" stop-color="#007B48"/><stop offset="100%" stop-color="#87C541"/></linearGradient><linearGradient id="b" x1="15.991%" x2="82.751%" y1="2.125%" y2="83.146%"><stop offset="0%" stop-color="#006941"/><stop offset="30%" stop-color="#007B48"/><stop offset="100%" stop-color="#87C541"/></linearGradient></defs><g fill="none" fill-rule="evenodd"><path fill="url(#a)" d="M7.852.335C6.345.67 5.759 1.339 5.759 2.344c.084 1.423 1.674 4.102 2.344 5.274a38.238 38.238 0 0 0 4.52 5.776c1.424 1.34 2.261 1.675 3.768-.334 1.256-1.675 2.428-3.35 3.432-5.358.419-.921.837-1.926 1.172-3.014.419-1.256.251-2.428-1.004-3.265 1.255.586 1.758 1.674 1.841 2.93.084 1.172-.25 2.428-.502 3.349-.67 2.344-1.507 4.688-2.595 6.78-.837 1.591-1.842 3.517-2.846 4.94-2.26 3.181-4.521 2.093-7.032 0-1.675-1.34-3.182-3.098-4.521-4.94C2.996 12.558 1.49 9.796.569 7.619-.687 4.688.318 3.181 1.825 2.177 3.415 1.172 5.843.586 7.852.335z"/><path fill="url(#b)" d="M7.768 7.032c2.428-.335 8.623-.753 10.8.419.753.418.753.92.67 1.506.25-.418.418-.837.669-1.255.418-.921.837-1.926 1.172-3.014.418-1.256.251-2.428-1.005-3.265-.502-.251-1.004-.418-1.507-.586-1.423-.418-3.013-.586-4.604-.67C13.293 0 12.54 0 11.87 0c-1.255 0-2.679.084-4.018.251-1.507.335-2.093 1.005-2.093 2.01.084 1.255 1.256 3.432 2.01 4.771z"/></g></svg>
