<svg width="283" height="228" viewBox="0 0 283 228" fill="none" xmlns="http://www.w3.org/2000/svg">
<path d="M43.3462 213.89L1.42241 105.055C-2.78539 94.1298 2.65797 81.8573 13.5893 77.6475L211.469 1.42628C222.395 -2.78152 234.667 2.66184 238.875 13.5932L280.799 122.428C285.007 133.353 279.563 145.626 268.632 149.835L70.7578 226.057C59.8264 230.264 47.5601 224.815 43.3462 213.89Z" fill="#DE4C3C"/>
<path d="M253.984 52.8004L16.7218 144.767L32.5203 185.778L269.792 93.8538L253.984 52.8004Z" fill="#7A4930"/>
<path d="M0.00219727 137.833V21.2054C0.00219727 9.49494 9.49714 0 21.2076 0H233.257C244.968 0 254.463 9.49494 254.463 21.2054V137.833C254.463 149.543 244.968 159.038 233.257 159.038H21.2076C9.49714 159.038 0.00219727 149.543 0.00219727 137.833Z" fill="#4398D1"/>
<path d="M233.257 0H210.727L51.6888 159.038H233.257C244.968 159.038 254.463 149.543 254.463 137.833V21.2054C254.463 9.49494 244.968 0 233.257 0Z" fill="#3E8CC7"/>
<path d="M21.2075 84.8194H42.4129V95.4221H21.2075V84.8194Z" fill="#5EB3D1"/>
<path d="M21.2075 116.628H42.4129V127.23H21.2075V116.628Z" fill="#5EB3D1"/>
<path d="M116.63 116.628H137.835V127.23H116.63V116.628Z" fill="#5EB3D1"/>
<path d="M53.0156 84.8194H74.219V95.4221H53.0156V84.8194Z" fill="#5EB3D1"/>
<path d="M84.8217 84.8194H106.027V95.4221H84.8217V84.8194Z" fill="#5EB3D1"/>
<path d="M116.63 84.8194H137.835V95.4221H116.63V84.8194Z" fill="#5EB3D1"/>
<path d="M217.353 21.2054H227.956V37.1094H217.353V21.2054Z" fill="#5EB3D1"/>
<path d="M196.148 21.2054H206.751V37.1094H196.148V21.2054Z" fill="#5EB3D1"/>
<path d="M174.942 21.2054H185.545V37.1094H174.942V21.2054Z" fill="#5EB3D1"/>
<path d="M153.739 21.2054H164.34V37.1094H153.739V21.2054Z" fill="#5EB3D1"/>
<path d="M21.2075 55.1335V29.6879C21.2075 25.0013 25.0035 21.2054 29.6901 21.2054H55.1357C59.8223 21.2054 63.6162 25.0013 63.6162 29.6879V55.1335C63.6162 59.8201 59.8223 63.6161 55.1357 63.6161H29.6901C25.0035 63.6161 21.2075 59.8201 21.2075 55.1335Z" fill="#FDB62F"/>
<path d="M21.2075 37.1094H37.1115V47.7121H21.2075V37.1094Z" fill="#FD7B2F"/>
<path d="M47.7144 37.1094H63.6163V47.7121H47.7144V37.1094Z" fill="#FD7B2F"/>
</svg>
