<svg xmlns="http://www.w3.org/2000/svg" viewBox="0 0 22 22"><defs><radialGradient id="a" cy="70.041%" r="70.207%" fx="50%" fy="70.041%" gradientTransform="matrix(0 1 -.71161 0 .998 .2)"><stop offset="0%" stop-color="#E4F0FA"/><stop offset="33.958%" stop-color="#C7E2F4"/><stop offset="76.407%" stop-color="#5DB0DE"/><stop offset="100%" stop-color="#0084CA"/></radialGradient></defs><g fill="none" fill-rule="evenodd"><path fill="#DA2027" d="M20.214 16.702c-2.544-1.355-5.704-2.157-9.127-2.157-3.423 0-6.583.802-9.127 2.157a10.82 10.82 0 0 0 9.127 5 10.82 10.82 0 0 0 9.127-5"/><path fill="url(#a)" d="M14.241 13.145c2.5.374 4.776 1.184 6.661 2.313a10.785 10.785 0 0 0 1.015-4.582c0-5.979-4.849-10.828-10.828-10.828C5.111.048.262 4.897.262 10.876c0 1.638.364 3.19 1.015 4.582 1.873-1.122 4.133-1.93 6.617-2.306V7.59h6.347v5.554z"/></g></svg>
