<svg class="svg-icon" style="width: 20px; height: 20px;vertical-align: middle;fill: #fff;overflow: hidden;" viewBox="0 0 1024 1024" version="1.1" xmlns="http://www.w3.org/2000/svg"><path d="M516.5 814.9c-23 0-46.1-8.8-63.6-26.3L253.1 589c-35.1-35.1-35.1-92.2 0-127.3l297.2-297.2c17-17 39.6-26.3 63.6-26.3s46.7 9.3 63.6 26.3l199.7 199.7c35.1 35.1 35.1 92.2 0 127.3L580.1 788.6c-17.5 17.6-40.6 26.3-63.6 26.3z m97.4-616.7c-8.1 0-15.6 3.1-21.2 8.7L295.6 504.1c-11.7 11.7-11.7 30.7 0 42.4l199.7 199.7c11.7 11.7 30.7 11.7 42.4 0l297.1-297.1c11.7-11.7 11.7-30.7 0-42.4L635.2 207c-5.7-5.7-13.2-8.8-21.3-8.8zM271.8 580.9c-14.7 0-27.5-10.8-29.7-25.8-2.3-16.4 9.1-31.6 25.5-33.9l319.5-45.6c16.4-2.3 31.6 9.1 33.9 25.5 2.3 16.4-9.1 31.6-25.5 33.9L276 580.6c-1.4 0.2-2.8 0.3-4.2 0.3z m320.4-46.3c-1.4 0-2.8-0.1-4.3-0.3-16.4-2.3-27.8-17.5-25.5-33.9L608 180.8c2.3-16.4 17.5-27.8 33.9-25.5 16.4 2.3 27.8 17.5 25.5 33.9l-45.6 319.5c-2.1 15.1-14.9 25.9-29.6 25.9zM455 775.1c-1.4 0-2.8-0.1-4.3-0.3-16.4-2.3-27.8-17.5-25.5-33.9l30.9-216.4c2.3-16.4 17.5-27.8 33.9-25.5 16.4 2.3 27.8 17.5 25.5 33.9l-30.9 216.4c-2.1 15-15 25.8-29.6 25.8z m152.1-343.6c-14.7 0-27.5-10.8-29.7-25.8-2.3-16.4 9.1-31.6 25.5-33.9l216.4-30.9c16.4-2.3 31.6 9.1 33.9 25.5 2.3 16.4-9.1 31.6-25.5 33.9l-216.4 30.9c-1.3 0.2-2.8 0.3-4.2 0.3z m194.4 462.1h-580c-49.6 0-90-40.4-90-90v-20c0-49.6 40.4-90 90-90h77.1c16.6 0 30 13.4 30 30s-13.4 30-30 30h-77.1c-16.5 0-30 13.5-30 30v20c0 16.5 13.5 30 30 30h580c16.5 0 30-13.5 30-30v-20c0-16.5-13.5-30-30-30h-78.9c-16.6 0-30-13.4-30-30s13.4-30 30-30h78.9c49.6 0 90 40.4 90 90v20c0 49.7-40.3 90-90 90z"  /></svg>