<svg id="bot" xmlns="http://www.w3.org/2000/svg" width="88.638" height="84.83" viewBox="0 0 88.638 84.83">
  <path id="Path_29588" data-name="Path 29588" d="M87.021,42.415A42.415,42.415,0,1,1,44.606,0,42.415,42.415,0,0,1,87.021,42.415Zm0,0" transform="translate(-0.287)" fill="#30d6ce"/>
  <path id="Path_29589" data-name="Path 29589" d="M84.228,29.431a1.731,1.731,0,0,1-3.462,0A26,26,0,0,0,54.8,3.462H35.407A26,26,0,0,0,9.439,29.431a1.731,1.731,0,1,1-3.462,0A29.464,29.464,0,0,1,35.407,0H54.8A29.464,29.464,0,0,1,84.228,29.431Zm0,0" transform="translate(-0.783)" fill="#025f80"/>
  <path id="Path_29590" data-name="Path 29590" d="M88.638,27.892v6.925a5.194,5.194,0,0,1-5.194,5.194H81.367a1.74,1.74,0,0,1-3.462,0H74.789a1.731,1.731,0,0,1-1.731-1.731V24.43A1.731,1.731,0,0,1,74.789,22.7h2.58L76.8,21.147a2.6,2.6,0,0,1,4.881-1.777L82.9,22.7h.549A5.194,5.194,0,0,1,88.638,27.892ZM13.85,22.7H11.27l.565-1.552A2.6,2.6,0,0,0,6.954,19.37L5.743,22.7H5.194A5.194,5.194,0,0,0,0,27.892v6.925a5.194,5.194,0,0,0,5.194,5.194H13.85a1.731,1.731,0,0,0,1.731-1.731V24.43A1.731,1.731,0,0,0,13.85,22.7Zm0,0" transform="translate(0 -2.314)" fill="#ff6466"/>
  <path id="Path_29591" data-name="Path 29591" d="M83.445,28.652v6.925a5.194,5.194,0,0,1-5.194,5.194H74.789a1.731,1.731,0,0,1-1.731-1.731V25.189a1.731,1.731,0,0,1,1.731-1.731h3.462A5.194,5.194,0,0,1,83.445,28.652ZM5.194,35.577V28.652a5.194,5.194,0,0,1,3.155-4.777.216.216,0,0,0-.083-.417H5.194A5.194,5.194,0,0,0,0,28.652v6.925A5.193,5.193,0,0,0,5.194,40.77h5.194A5.194,5.194,0,0,1,5.194,35.577Zm0,0" transform="translate(0 -3.073)" fill="#ff393a"/>
  <path id="Path_29592" data-name="Path 29592" d="M55.411,64.449c0,3.824-2.325,6.925-5.194,6.925s-5.194-3.1-5.194-6.925,2.325-6.925,5.194-6.925S55.411,60.625,55.411,64.449Zm0,0" transform="translate(-5.898 -7.535)" fill="#0069a3"/>
  <path id="Path_29593" data-name="Path 29593" d="M56.037,64.536a7.28,7.28,0,0,1-3.116,6.347A7.28,7.28,0,0,1,49.8,64.536a7.28,7.28,0,0,1,3.116-6.347A7.28,7.28,0,0,1,56.037,64.536Zm0,0" transform="translate(-6.524 -7.623)" fill="#08c"/>
  <path id="Path_29594" data-name="Path 29594" d="M79.082,30.961A24.237,24.237,0,0,1,54.845,55.2H37.186a24.237,24.237,0,0,1,0-48.474H54.845A24.237,24.237,0,0,1,79.082,30.961ZM55.71,58.66H36.321A24.233,24.233,0,0,0,14.712,71.914a42.413,42.413,0,0,0,62.608,0A24.233,24.233,0,0,0,55.71,58.66Zm0,0" transform="translate(-1.696 -0.881)" fill="#97f0f2"/>
  <path id="Path_29595" data-name="Path 29595" d="M55.862,55.2H44.952a24.237,24.237,0,1,1,0-48.474h10.91a24.237,24.237,0,0,1,0,48.474ZM47.033,85.71a42.305,42.305,0,0,0,31.3-13.8A24.233,24.233,0,0,0,56.728,58.66H44.263a24.244,24.244,0,0,0-23.424,18A42.231,42.231,0,0,0,47.033,85.71Zm0,0" transform="translate(-2.714 -0.881)" fill="#c0fbff"/>
  <path id="Path_29596" data-name="Path 29596" d="M64.232,86.1a15.531,15.531,0,0,1-.953,5.373,42.236,42.236,0,0,1-14.628,2.418,42.236,42.236,0,0,1-14.628-2.418A15.582,15.582,0,1,1,64.232,86.1Zm0,0" transform="translate(-4.332 -9.238)" fill="#08c"/>
  <path id="Path_29597" data-name="Path 29597" d="M58.877,47.111H36.025A12.118,12.118,0,0,1,23.906,34.993V29.8A12.118,12.118,0,0,1,36.025,17.681H58.877A12.118,12.118,0,0,1,71,29.8v5.194A12.118,12.118,0,0,1,58.877,47.111ZM42.087,83.1a8.02,8.02,0,0,1-6.322-7.745v-.068a15.511,15.511,0,0,1,2.789-8.9,15.593,15.593,0,0,0-5.731,18.165,42.6,42.6,0,0,0,29.251,0,15.538,15.538,0,0,0,.584-1.971,42.633,42.633,0,0,1-20.571.515Zm0,0" transform="translate(-3.132 -2.316)" fill="#006cbc"/>
  <path id="Path_29598" data-name="Path 29598" d="M59.66,47.111H42A12.118,12.118,0,0,1,29.883,34.993V29.8A12.118,12.118,0,0,1,42,17.681H59.66A12.118,12.118,0,0,1,71.778,29.8v5.194A12.118,12.118,0,0,1,59.66,47.111Zm0,0" transform="translate(-3.915 -2.316)" fill="#08c"/>
  <path id="Path_29599" data-name="Path 29599" d="M53.566,38.325a1.731,1.731,0,0,1,0,2.448,6.933,6.933,0,0,1-9.794,0,1.731,1.731,0,1,1,2.449-2.448,3.467,3.467,0,0,0,4.9,0,1.731,1.731,0,0,1,2.448,0Zm-10.059-10.6a6.934,6.934,0,0,0-9.794,0,1.732,1.732,0,0,0,2.449,2.449,3.465,3.465,0,0,1,4.9,0,1.732,1.732,0,1,0,2.449-2.449Zm20.119,0a6.934,6.934,0,0,0-9.794,0,1.732,1.732,0,0,0,2.449,2.449,3.466,3.466,0,0,1,4.9,0,1.731,1.731,0,1,0,2.448-2.449Zm0,0" transform="translate(-4.35 -3.367)" fill="#30d6ce"/>
  <path id="Path_29600" data-name="Path 29600" d="M53.205,86.667v9.1q-1.289.078-2.6.078t-2.6-.078v-9.1a2.6,2.6,0,1,1,5.194,0Zm0,0" transform="translate(-6.289 -11.013)" fill="#84deea"/>
  <path id="Path_29601" data-name="Path 29601" d="M53.127,85.414v3.809a2.6,2.6,0,1,1-5.194,0V85.414a2.6,2.6,0,1,1,5.194,0Zm-2.6-4.674a3.116,3.116,0,1,0-3.116-3.116A3.116,3.116,0,0,0,50.53,80.74Zm0,0" transform="translate(-6.211 -9.76)" fill="#fff5f5"/>
  <path id="Path_29602" data-name="Path 29602" d="M88.152,43.38v3.462a6.933,6.933,0,0,1-6.925,6.925H51.8V50.3H81.228a3.467,3.467,0,0,0,3.462-3.462V43.38Zm0,0" transform="translate(-6.785 -5.683)" fill="#025f80"/>
  <path id="Path_29603" data-name="Path 29603" d="M55.4,55.511H43.992a2.953,2.953,0,0,1,0-5.905H55.4a2.953,2.953,0,0,1,0,5.905Zm0,0" transform="translate(-5.376 -6.498)" fill="#ff6466"/>
  <path id="Path_29604" data-name="Path 29604" d="M56.182,55.511H49.968a2.953,2.953,0,1,1,0-5.905h6.213a2.953,2.953,0,0,1,0,5.905Zm0,0" transform="translate(-6.159 -6.498)" fill="#ff895a"/>
</svg>
