<svg xmlns="http://www.w3.org/2000/svg" xmlns:xlink="http://www.w3.org/1999/xlink" width="155.562" height="113.725" viewBox="0 0 155.562 113.725">
  <defs>
    <clipPath id="clip-path">
      <rect id="Rectangle_4556" data-name="Rectangle 4556" width="155.562" height="113.725" fill="none"/>
    </clipPath>
  </defs>
  <g id="Group_14150" data-name="Group 14150" transform="translate(-0.009 -0.007)">
    <g id="Group_14149" data-name="Group 14149" transform="translate(0.009 0.007)" clip-path="url(#clip-path)">
      <g id="Mask_Group_538" data-name="Mask Group 538" transform="translate(5.268 2.578)">
        <g id="Group_14981" data-name="Group 14981">
          <g id="Union_2" data-name="Union 2">
            <path id="Path_32962" data-name="Path 32962" d="M36.424,103.155c-10.619-8-21.333-15.9-31.938-23.911C1.645,77.2,1.571,73.67,1.145,70.725a59.443,59.443,0,0,1,.25-15.943,5.921,5.921,0,0,1,2.423-3.65q15.168-12.007,30.4-23.882a20.542,20.542,0,0,1,12.242-3.136q23.485-.121,46.956-.125c3.165,0,6.294-.272,9.451-.441a15.187,15.187,0,0,0-4.6,6.426,6.408,6.408,0,0,0,.969,6.176,3.673,3.673,0,0,0,4.7-.169,48.449,48.449,0,0,0,8.335-15.135,15.027,15.027,0,0,1,13.079-7.557,18.867,18.867,0,0,0-6.47,8.629,6.414,6.414,0,0,0,1.858,6.4,10.347,10.347,0,0,0,8.467-.661,13.988,13.988,0,0,0,6.426-4.891c2.7-6.205,1.109-13.189,3.261-19.5a6.388,6.388,0,0,1,2.739-2.9,30.232,30.232,0,0,0,2.644,16.707,20.4,20.4,0,0,1,1.807,16.325,9.588,9.588,0,0,1-7.3,5.155c-3.657.984-7.99.639-10.986,3.026a2.78,2.78,0,0,0,1.028,4.979c6.1,1,10.67-3.378,15.143-6.286a15.189,15.189,0,0,1-.639,3.892,36.124,36.124,0,0,0-2.416,4.164,71.443,71.443,0,0,0-.69,11.61c.338,7.77.543,15.532.962,23.309l-1.66,11.794a17.419,17.419,0,0,1-8.717,9.246,27.97,27.97,0,0,1-13.63,2.174c-22.964-.015-45.92.051-68.877-.051a33.689,33.689,0,0,1-3.936-.3l-1.292-.25A16.672,16.672,0,0,1,36.424,103.155Zm81.552-9.238a1.747,1.747,0,0,0,.492.257l-.184-.3Z" transform="translate(-0.726 -0.358)" fill="#f33"/>
          </g>
          <g id="NEW" transform="translate(35.787 51.626)" style="isolation: isolate">
            <g id="Group_14148" data-name="Group 14148" style="isolation: isolate">
              <path id="Path_32963" data-name="Path 32963" d="M28.732,33.1H22.886L12.289,16.95A24.1,24.1,0,0,1,11,14.812h-.073c.1.911.147,2.3.147,4.157V33.1H5.6V7.388h6.242l10.2,15.657c.463.7.9,1.4,1.292,2.093H23.4a27.7,27.7,0,0,1-.14-3.525V7.388h5.471Z" transform="translate(-5.599 -7.388)" fill="#fff"/>
              <path id="Path_32964" data-name="Path 32964" d="M24.971,33.1H9.549V7.388H24.376V12.1H15.343v5.721h8.409v4.7H15.343v5.882h9.628Z" transform="translate(19.459 -7.388)" fill="#fff"/>
              <path id="Path_32965" data-name="Path 32965" d="M48.21,7.388,41.417,33.1H35L30.732,16.6a13.432,13.432,0,0,1-.419-2.879H30.24a16.73,16.73,0,0,1-.463,2.879L25.4,33.1H18.718L11.954,7.388h6.33l3.628,17.118a21.365,21.365,0,0,1,.33,2.945h.11a14.333,14.333,0,0,1,.521-3.011L27.537,7.388h6.205l4.208,17.265a20.972,20.972,0,0,1,.419,2.769h.073a17.662,17.662,0,0,1,.367-2.871L42.364,7.388Z" transform="translate(34.715 -7.388)" fill="#fff"/>
            </g>
          </g>
        </g>
      </g>
    </g>
  </g>
</svg>
