<svg width="175" height="20" viewBox="0 0 175 20" xmlns="http://www.w3.org/2000/svg"><title>olymp-logo_white</title><g id="Page-1" fill="none" fill-rule="evenodd"><g id="olymp-logo_white" fill-rule="nonzero"><g id="main-logo-white.svg"><path d="M94.4 6h4.1v13h4.2V6h4.1V2.2H94.4V6zm23.1-3.8h-7.4V19h4.3v-4.9h2.2l2.9 4.9h4.8v-.6L121 13c4.3-2.8 3.1-10.8-3.5-10.8zm0 8h-3.1V6h3.1c2.4.1 2.3 4.2 0 4.2zM133.7 2l-7.6 16.4v.6h4.2l1-2.1h6.6l1 2.1h4.2v-.6L135.6 2h-1.9zm-.9 11.2l1.9-4.4 1.9 4.4h-3.8zm19.5-11H146V19h6.3c10.9 0 10.9-16.8 0-16.8zm0 12.9h-2v-9h2c5.3 0 5.3 9 0 9zm16.3.1v-3h5.7V8.4h-5.7V6h6.2V2.2h-10.5V19H175v-3.8h-6.4zM.1 10.6c0 11.6 17.2 11.6 17.2 0S.1-1 .1 10.6zm4.4 0c0-6 8.4-6 8.4 0 0 6.1-8.4 6.1-8.4 0zm21-8.4h-4.3V19h10.4v-3.9h-6.1V2.2zm14.2 5.6h-.2l-3-5.6h-4.6v.6l5.6 9.1V19h4.2v-7.1l5.7-9.1v-.6h-4.7l-3 5.6zm18.8 1.6l-6.6-7.3h-1.6V19h4.4v-7.5l3.6 3.7h.5l3.6-3.7V19h4.4V2.2h-1.5l-6.8 7.2zM79 2.2h-7.4V19h4.3v-4.3H79c8 0 8-12.5 0-12.5zm0 8.6h-3.1V6H79c2.5.1 2.3 4.8 0 4.8z" id="Shape" fill="#FFF"/><path id="Shape" fill="#32A66F" d="M8.5 12L2 20h13z"/><path id="Shape" fill="#DD5640" d="M52.6 0l6 6 6-6z"/></g></g></g></svg>