<svg width="168" height="24" viewBox="0 0 168 24" fill="none" xmlns="http://www.w3.org/2000/svg">
<g opacity="0.7">
<path fill-rule="evenodd" clip-rule="evenodd" d="M24.2535 4.54919V16.9699H30.7606V21.1126H20.1127V4.54919H24.2535Z" fill="#696A6D"/>
<path fill-rule="evenodd" clip-rule="evenodd" d="M38.5098 9.87314L41.4035 4.54919H46.1408V5.14074L40.5211 14.0122V21.1126H36.3802V14.0122L30.7605 5.14074V4.54919H35.4955L38.3915 9.87314H38.5098Z" fill="#696A6D"/>
<path fill-rule="evenodd" clip-rule="evenodd" d="M50.8707 4.54919L56.7888 11.6478L62.7046 4.54919H65.0705V21.1126H60.9296V13.4219L57.0854 17.5633H56.493L52.6479 13.4219V21.1126H48.5071V4.54919H50.8707Z" fill="#696A6D"/>
<path fill-rule="evenodd" clip-rule="evenodd" d="M75.7167 4.54919C83.6062 4.54919 83.6062 16.3849 75.7167 16.3849L72.7641 16.3836V21.1126H68.6198V4.54919H75.7167ZM76.0124 8.09751H72.7596V12.8278H76.0124C78.4727 12.8278 78.4727 8.09751 76.0124 8.09751Z" fill="#696A6D"/>
<path fill-rule="evenodd" clip-rule="evenodd" d="M88.7324 8.69004V4.54919H100.563V8.69004H96.7183V21.1126H92.5775V8.69004H88.7324Z" fill="#696A6D"/>
<path fill-rule="evenodd" clip-rule="evenodd" d="M111.211 4.54919C118.31 4.54919 119.486 12.8309 114.761 15.1937L118.31 20.521V21.1126H113.577L110.619 16.3802H108.254V21.1126H104.127L104.113 4.54919H111.211ZM111.507 8.09847C109.927 8.09914 108.843 8.09914 108.254 8.09847V12.2393H111.507C113.877 12.2393 113.877 8.09751 111.507 8.09847Z" fill="#696A6D"/>
<path fill-rule="evenodd" clip-rule="evenodd" d="M130.141 4.54919L137.239 20.521V21.1126H133.099L132.176 19.0373H125.734L124.817 21.1126H120.676V20.521L127.775 4.54919H130.141ZM128.958 11.0576L126.887 15.7886H131.028L128.958 11.0576Z" fill="#696A6D"/>
<path fill-rule="evenodd" clip-rule="evenodd" d="M145.817 4.54919C156.465 4.54919 156.465 21.1126 145.817 21.1126H139.606V4.54919H145.817ZM145.817 8.69004H143.746V16.9717H145.817C151.064 16.9717 151.064 8.69004 145.817 8.69004Z" fill="#696A6D"/>
<path fill-rule="evenodd" clip-rule="evenodd" d="M161.493 17.5633H168V21.1126H157.352V4.54919H168V8.09849H161.493V11.0562H166.816V14.6055H161.493V17.5633Z" fill="#696A6D"/>
<path fill-rule="evenodd" clip-rule="evenodd" d="M16.5634 12.8314C16.5634 15.6256 15.5027 17.7127 13.9181 19.0927L11.2073 16.0819C11.9398 15.3433 12.4226 14.2598 12.4226 12.8314C12.4226 6.91539 4.14086 6.91539 4.14086 12.8314C4.14086 14.2598 4.62366 15.3433 5.35613 16.0819L2.6465 19.0937C1.06125 17.7137 0 15.6263 0 12.8314C0.00124581 1.78847 16.5634 1.78847 16.5634 12.8314Z" fill="#696A6D"/>
<path fill-rule="evenodd" clip-rule="evenodd" d="M62.7042 1.00004L56.7899 8.09863L50.8732 1.00004H62.7042Z" fill="#696A6D"/>
<path d="M2.36621 22.2957L8.2817 15.1971L14.1972 22.2957H2.36621Z" fill="#696A6D"/>
</g>
</svg>
