<svg id="undraw_Savings_dwkw" xmlns="http://www.w3.org/2000/svg" xmlns:xlink="http://www.w3.org/1999/xlink" width="260.209" height="186.852" viewBox="0 0 260.209 186.852">
  <defs>
    <linearGradient id="linear-gradient" x1="0.5" y1="1" x2="0.5" gradientUnits="objectBoundingBox">
      <stop offset="0" stop-color="gray" stop-opacity="0.251"/>
      <stop offset="0.535" stop-color="gray" stop-opacity="0.122"/>
      <stop offset="1" stop-color="gray" stop-opacity="0.102"/>
    </linearGradient>
  </defs>
  <ellipse id="Ellipse_1059" data-name="Ellipse 1059" cx="130.105" cy="15.814" rx="130.105" ry="15.814" transform="translate(0 155.224)" fill="#4285f4" opacity="0.1"/>
  <path id="Path_24260" data-name="Path 24260" d="M997.486,713.263s6.786-8.635,6.237-17.2a16.639,16.639,0,0,1,2.618-10.194,27.983,27.983,0,0,1,3.188-4" transform="translate(-774.868 -534.473)" fill="none" stroke="#535461" stroke-miterlimit="10" stroke-width="2"/>
  <path id="Path_24261" data-name="Path 24261" d="M1047.375,653.808c-.478,1.2.305,5.543.305,5.543s3.559-2.611,4.037-3.81a2.338,2.338,0,0,0-4.343-1.733Z" transform="translate(-813.027 -511.817)" fill="#4285f4"/>
  <path id="Path_24262" data-name="Path 24262" d="M1020.931,671.845c.25,1.267,3.269,4.487,3.269,4.487s1.568-4.126,1.318-5.392a2.338,2.338,0,0,0-4.587.906Z" transform="translate(-792.823 -524.644)" fill="#4285f4"/>
  <path id="Path_24263" data-name="Path 24263" d="M1000.361,717.271c.855.967,5.087,2.223,5.087,2.223s-.729-4.353-1.584-5.32a2.338,2.338,0,1,0-3.5,3.1Z" transform="translate(-776.624 -558.657)" fill="#4285f4"/>
  <path id="Path_24264" data-name="Path 24264" d="M995.282,758.621c.68,1.1,4.638,3.051,4.638,3.051s.017-4.414-.663-5.511a2.338,2.338,0,0,0-3.975,2.461Z" transform="translate(-772.908 -590.627)" fill="#4285f4"/>
  <path id="Path_24265" data-name="Path 24265" d="M1036.03,694.3c-1.193.492-5.546-.241-5.546-.241s2.569-3.589,3.763-4.081a2.338,2.338,0,1,1,1.783,4.322Z" transform="translate(-800.186 -540.565)" fill="#4285f4"/>
  <path id="Path_24266" data-name="Path 24266" d="M1029.656,740.8c-1.286.113-5.22-1.889-5.22-1.889s3.526-2.656,4.812-2.768a2.338,2.338,0,1,1,.408,4.657Z" transform="translate(-795.546 -576.111)" fill="#4285f4"/>
  <path id="Path_24267" data-name="Path 24267" d="M1015.337,785.757c-1.249.328-5.464-.98-5.464-.98s3.026-3.213,4.275-3.542a2.338,2.338,0,1,1,1.189,4.521Z" transform="translate(-784.372 -610.656)" fill="#4285f4"/>
  <path id="Path_24268" data-name="Path 24268" d="M1047.375,653.808c-.478,1.2.305,5.543.305,5.543s3.559-2.611,4.037-3.81a2.338,2.338,0,0,0-4.343-1.733Z" transform="translate(-813.027 -511.817)" opacity="0.25"/>
  <path id="Path_24269" data-name="Path 24269" d="M1020.931,671.845c.25,1.267,3.269,4.487,3.269,4.487s1.568-4.126,1.318-5.392a2.338,2.338,0,0,0-4.587.906Z" transform="translate(-792.823 -524.644)" opacity="0.25"/>
  <path id="Path_24270" data-name="Path 24270" d="M1000.361,717.271c.855.967,5.087,2.223,5.087,2.223s-.729-4.353-1.584-5.32a2.338,2.338,0,1,0-3.5,3.1Z" transform="translate(-776.624 -558.657)" opacity="0.25"/>
  <path id="Path_24271" data-name="Path 24271" d="M995.282,758.621c.68,1.1,4.638,3.051,4.638,3.051s.017-4.414-.663-5.511a2.338,2.338,0,0,0-3.975,2.461Z" transform="translate(-772.908 -590.627)" opacity="0.25"/>
  <path id="Path_24272" data-name="Path 24272" d="M1036.03,694.3c-1.193.492-5.546-.241-5.546-.241s2.569-3.589,3.763-4.081a2.338,2.338,0,1,1,1.783,4.322Z" transform="translate(-800.186 -540.565)" opacity="0.25"/>
  <path id="Path_24273" data-name="Path 24273" d="M1029.656,740.8c-1.286.113-5.22-1.889-5.22-1.889s3.526-2.656,4.812-2.768a2.338,2.338,0,1,1,.408,4.657Z" transform="translate(-795.546 -576.111)" opacity="0.25"/>
  <path id="Path_24274" data-name="Path 24274" d="M1015.337,785.757c-1.249.328-5.464-.98-5.464-.98s3.026-3.213,4.275-3.542a2.338,2.338,0,1,1,1.189,4.521Z" transform="translate(-784.372 -610.656)" opacity="0.25"/>
  <path id="Path_24275" data-name="Path 24275" d="M997.733,736.686s9.7-5.144,12.672-13.2a16.639,16.639,0,0,1,6.525-8.258,27.982,27.982,0,0,1,4.537-2.368" transform="translate(-775.058 -558.255)" fill="none" stroke="#535461" stroke-miterlimit="10" stroke-width="2"/>
  <path id="Path_24276" data-name="Path 24276" d="M1101.394,688.906c-.923.9-1.967,5.191-1.967,5.191s4.311-.945,5.235-1.847a2.338,2.338,0,1,0-3.268-3.344Z" transform="translate(-853.083 -539.365)" fill="#4285f4"/>
  <path id="Path_24277" data-name="Path 24277" d="M1074.178,694.7c-.285,1.259,1.17,5.426,1.17,5.426s3.106-3.136,3.39-4.4a2.338,2.338,0,1,0-4.56-1.031Z" transform="translate(-833.682 -542.919)" fill="#4285f4"/>
  <path id="Path_24278" data-name="Path 24278" d="M1036.894,727.886c.39,1.231,3.749,4.093,3.749,4.093s1.1-4.275.707-5.506a2.338,2.338,0,1,0-4.457,1.412Z" transform="translate(-805.02 -567.447)" fill="#4285f4"/>
  <path id="Path_24279" data-name="Path 24279" d="M1015.5,763.634c.176,1.279,3,4.668,3,4.668s1.8-4.028,1.628-5.307a2.338,2.338,0,1,0-4.631.639Z" transform="translate(-788.67 -595.172)" fill="#4285f4"/>
  <path id="Path_24280" data-name="Path 24280" d="M1076.907,724.443c-1.291-.033-4.973-2.467-4.973-2.467s3.8-2.24,5.094-2.206a2.338,2.338,0,1,1-.121,4.674Z" transform="translate(-831.99 -563.556)" fill="#4285f4"/>
  <path id="Path_24281" data-name="Path 24281" d="M1054.218,764.926c-1.222-.418-4.006-3.842-4.006-3.842s4.3-1,5.521-.581a2.338,2.338,0,0,1-1.514,4.423Z" transform="translate(-815.322 -594.73)" fill="#4285f4"/>
  <path id="Path_24282" data-name="Path 24282" d="M1021.785,799.993c-1.275-.206-4.6-3.11-4.6-3.11s4.068-1.711,5.343-1.506a2.338,2.338,0,1,1-.745,4.616Z" transform="translate(-789.984 -621.553)" fill="#4285f4"/>
  <path id="Path_24283" data-name="Path 24283" d="M294.043,70.719c-12.856-.446-25.1-4.6-36.793-9.137S233.976,52.01,221.428,49.6c-8.071-1.548-17.3-1.767-23.8,2.561-6.258,4.164-8.28,11.352-9.367,18.022-.818,5.018-1.3,10.3.942,15,1.556,3.261,4.319,6,6.229,9.127,6.648,10.87,1.949,24.274-5.255,34.888-3.379,4.979-7.3,9.728-9.907,15.028s-3.814,11.373-1.533,16.779c2.261,5.359,7.651,9.384,13.488,12.215,11.857,5.75,25.828,7.4,39.453,8.328,30.159,2.063,60.479,1.17,90.718.275,11.191-.331,22.431-.667,33.44-2.4,6.113-.961,12.425-2.486,16.863-6.168a14.124,14.124,0,0,0,3.255-18.45c-6.333-9.831-23.843-12.273-28.269-22.823-2.436-5.807.066-12.276,3.606-17.662,7.6-11.554,20.327-21.69,21-34.9.461-9.07-5.66-18.154-15.123-22.446-9.919-4.5-23.674-3.933-30.992,3.514C318.637,68.163,305.394,71.113,294.043,70.719Z" transform="translate(-145.752 -48.59)" fill="#4285f4" opacity="0.1"/>
  <ellipse id="Ellipse_1060" data-name="Ellipse 1060" cx="8.741" cy="9.278" rx="8.741" ry="9.278" transform="translate(117.538 145.389)" fill="#fbd56f"/>
  <ellipse id="Ellipse_1061" data-name="Ellipse 1061" cx="8.741" cy="9.278" rx="8.741" ry="9.278" transform="translate(117.538 145.389)" opacity="0.1"/>
  <ellipse id="Ellipse_1062" data-name="Ellipse 1062" cx="8.741" cy="9.072" rx="8.741" ry="9.072" transform="translate(119.046 145.802)" fill="#fbd56f"/>
  <path id="Path_24284" data-name="Path 24284" d="M601.223,746.982l-.909-.506a11.016,11.016,0,0,0-.286,3.039.63.63,0,0,0,.474.544c2.092.519,12.061,2.733,18.916-.385a.629.629,0,0,0,.364-.505,9.418,9.418,0,0,0-.332-2.694C619.194,745.8,601.223,746.982,601.223,746.982Z" transform="translate(-469.895 -583.887)" fill="#fbd56f"/>
  <path id="Path_24285" data-name="Path 24285" d="M601.223,746.982l-.909-.506a11.016,11.016,0,0,0-.286,3.039.63.63,0,0,0,.474.544c2.092.519,12.061,2.733,18.916-.385a.629.629,0,0,0,.364-.505,9.418,9.418,0,0,0-.332-2.694C619.194,745.8,601.223,746.982,601.223,746.982Z" transform="translate(-469.895 -583.887)" opacity="0.1"/>
  <ellipse id="Ellipse_1063" data-name="Ellipse 1063" cx="9.568" cy="2.157" rx="9.568" ry="2.157" transform="translate(130.419 160.432)" fill="#fbd56f"/>
  <path id="Path_24286" data-name="Path 24286" d="M616.929,733.31l-.909-.506a11.016,11.016,0,0,0-.286,3.04.63.63,0,0,0,.474.544c2.092.519,12.061,2.733,18.916-.385a.629.629,0,0,0,.364-.505,9.415,9.415,0,0,0-.332-2.694C634.9,732.131,616.929,733.31,616.929,733.31Z" transform="translate(-481.946 -573.397)" fill="#fbd56f"/>
  <path id="Path_24287" data-name="Path 24287" d="M616.929,733.31l-.909-.506a11.016,11.016,0,0,0-.286,3.04.63.63,0,0,0,.474.544c2.092.519,12.061,2.733,18.916-.385a.629.629,0,0,0,.364-.505,9.415,9.415,0,0,0-.332-2.694C634.9,732.131,616.929,733.31,616.929,733.31Z" transform="translate(-481.946 -573.397)" opacity="0.1"/>
  <ellipse id="Ellipse_1064" data-name="Ellipse 1064" cx="9.568" cy="2.157" rx="9.568" ry="2.157" transform="translate(134.074 157.25)" fill="#fbd56f"/>
  <path id="Path_24288" data-name="Path 24288" d="M630.814,715.341l-.909-.506a11.016,11.016,0,0,0-.286,3.04.63.63,0,0,0,.474.544c2.092.519,12.061,2.733,18.916-.385a.629.629,0,0,0,.364-.505,9.416,9.416,0,0,0-.332-2.694C648.784,714.162,630.814,715.341,630.814,715.341Z" transform="translate(-492.599 -559.61)" fill="#fbd56f"/>
  <path id="Path_24289" data-name="Path 24289" d="M630.814,715.341l-.909-.506a11.016,11.016,0,0,0-.286,3.04.63.63,0,0,0,.474.544c2.092.519,12.061,2.733,18.916-.385a.629.629,0,0,0,.364-.505,9.416,9.416,0,0,0-.332-2.694C648.784,714.162,630.814,715.341,630.814,715.341Z" transform="translate(-492.599 -559.61)" opacity="0.1"/>
  <ellipse id="Ellipse_1065" data-name="Ellipse 1065" cx="9.568" cy="2.157" rx="9.568" ry="2.157" transform="translate(137.306 153.068)" fill="#fbd56f"/>
  <path id="Path_24290" data-name="Path 24290" d="M615.437,696.636l-.909-.506a11.014,11.014,0,0,0-.286,3.04.63.63,0,0,0,.474.544c2.092.519,12.061,2.732,18.916-.385a.629.629,0,0,0,.364-.505,9.416,9.416,0,0,0-.332-2.694C633.408,695.457,615.437,696.636,615.437,696.636Z" transform="translate(-480.801 -545.259)" fill="#fbd56f"/>
  <path id="Path_24291" data-name="Path 24291" d="M615.437,696.636l-.909-.506a11.014,11.014,0,0,0-.286,3.04.63.63,0,0,0,.474.544c2.092.519,12.061,2.732,18.916-.385a.629.629,0,0,0,.364-.505,9.416,9.416,0,0,0-.332-2.694C633.408,695.457,615.437,696.636,615.437,696.636Z" transform="translate(-480.801 -545.259)" opacity="0.1"/>
  <ellipse id="Ellipse_1066" data-name="Ellipse 1066" cx="9.568" cy="2.157" rx="9.568" ry="2.157" transform="translate(133.727 148.714)" fill="#fbd56f"/>
  <path id="Path_24292" data-name="Path 24292" d="M650.029,681.625l-.909-.506a11.014,11.014,0,0,0-.286,3.039.63.63,0,0,0,.474.544c2.092.519,12.061,2.733,18.916-.385a.629.629,0,0,0,.364-.505,9.419,9.419,0,0,0-.332-2.694C668,680.446,650.029,681.625,650.029,681.625Z" transform="translate(-507.341 -533.741)" fill="#fbd56f"/>
  <path id="Path_24293" data-name="Path 24293" d="M650.029,681.625l-.909-.506a11.014,11.014,0,0,0-.286,3.039.63.63,0,0,0,.474.544c2.092.519,12.061,2.733,18.916-.385a.629.629,0,0,0,.364-.505,9.419,9.419,0,0,0-.332-2.694C668,680.446,650.029,681.625,650.029,681.625Z" transform="translate(-507.341 -533.741)" opacity="0.1"/>
  <ellipse id="Ellipse_1067" data-name="Ellipse 1067" cx="9.568" cy="2.157" rx="9.568" ry="2.157" transform="translate(141.778 145.22)" fill="#fbd56f"/>
  <path id="Path_24294" data-name="Path 24294" d="M626.657,671.535l-.909-.506a11.016,11.016,0,0,0-.286,3.04.63.63,0,0,0,.474.544c2.092.519,12.061,2.733,18.916-.385a.629.629,0,0,0,.364-.506,9.419,9.419,0,0,0-.332-2.694C644.628,670.356,626.657,671.535,626.657,671.535Z" transform="translate(-489.41 -526)" fill="#fbd56f"/>
  <path id="Path_24295" data-name="Path 24295" d="M626.657,671.535l-.909-.506a11.016,11.016,0,0,0-.286,3.04.63.63,0,0,0,.474.544c2.092.519,12.061,2.733,18.916-.385a.629.629,0,0,0,.364-.506,9.419,9.419,0,0,0-.332-2.694C644.628,670.356,626.657,671.535,626.657,671.535Z" transform="translate(-489.41 -526)" opacity="0.1"/>
  <ellipse id="Ellipse_1068" data-name="Ellipse 1068" cx="9.568" cy="2.157" rx="9.568" ry="2.157" transform="translate(136.338 142.872)" fill="#fbd56f"/>
  <path id="Path_24296" data-name="Path 24296" d="M642.261,652.057l-.909-.506a11.014,11.014,0,0,0-.286,3.039.63.63,0,0,0,.474.544c2.092.519,12.061,2.733,18.916-.385a.629.629,0,0,0,.364-.505,9.418,9.418,0,0,0-.332-2.694C660.232,650.878,642.261,652.057,642.261,652.057Z" transform="translate(-501.382 -511.055)" fill="#fbd56f"/>
  <path id="Path_24297" data-name="Path 24297" d="M642.261,652.057l-.909-.506a11.014,11.014,0,0,0-.286,3.039.63.63,0,0,0,.474.544c2.092.519,12.061,2.733,18.916-.385a.629.629,0,0,0,.364-.505,9.418,9.418,0,0,0-.332-2.694C660.232,650.878,642.261,652.057,642.261,652.057Z" transform="translate(-501.382 -511.055)" opacity="0.1"/>
  <ellipse id="Ellipse_1069" data-name="Ellipse 1069" cx="9.568" cy="2.157" rx="9.568" ry="2.157" transform="translate(139.97 138.339)" fill="#fbd56f"/>
  <path id="Path_24298" data-name="Path 24298" d="M649.958,628.937l-.909-.506a11.014,11.014,0,0,0-.286,3.039.63.63,0,0,0,.474.544c2.092.519,12.061,2.732,18.917-.385a.629.629,0,0,0,.364-.505,9.418,9.418,0,0,0-.332-2.694C667.928,627.758,649.958,628.937,649.958,628.937Z" transform="translate(-507.287 -493.316)" fill="#fbd56f"/>
  <path id="Path_24299" data-name="Path 24299" d="M649.958,628.937l-.909-.506a11.014,11.014,0,0,0-.286,3.039.63.63,0,0,0,.474.544c2.092.519,12.061,2.732,18.917-.385a.629.629,0,0,0,.364-.505,9.418,9.418,0,0,0-.332-2.694C667.928,627.758,649.958,628.937,649.958,628.937Z" transform="translate(-507.287 -493.316)" opacity="0.1"/>
  <ellipse id="Ellipse_1070" data-name="Ellipse 1070" cx="9.568" cy="2.157" rx="9.568" ry="2.157" transform="translate(141.761 132.957)" fill="#fbd56f"/>
  <path id="Path_24300" data-name="Path 24300" d="M719.352,752.344l-.909-.506a11.011,11.011,0,0,0-.286,3.039.63.63,0,0,0,.473.544c2.092.519,12.061,2.733,18.916-.385a.629.629,0,0,0,.364-.505,9.418,9.418,0,0,0-.332-2.694C737.323,751.165,719.352,752.344,719.352,752.344Z" transform="translate(-560.53 -588.001)" fill="#fbd56f"/>
  <path id="Path_24301" data-name="Path 24301" d="M719.352,752.344l-.909-.506a11.011,11.011,0,0,0-.286,3.039.63.63,0,0,0,.473.544c2.092.519,12.061,2.733,18.916-.385a.629.629,0,0,0,.364-.505,9.418,9.418,0,0,0-.332-2.694C737.323,751.165,719.352,752.344,719.352,752.344Z" transform="translate(-560.53 -588.001)" opacity="0.1"/>
  <ellipse id="Ellipse_1071" data-name="Ellipse 1071" cx="9.568" cy="2.157" rx="9.568" ry="2.157" transform="translate(157.913 161.68)" fill="#fbd56f"/>
  <path id="Path_24302" data-name="Path 24302" d="M733.237,734.375l-.909-.506a11.016,11.016,0,0,0-.286,3.04.63.63,0,0,0,.473.544c2.092.519,12.061,2.733,18.916-.385a.629.629,0,0,0,.364-.505,9.419,9.419,0,0,0-.332-2.694C751.208,733.2,733.237,734.375,733.237,734.375Z" transform="translate(-571.183 -574.214)" fill="#fbd56f"/>
  <path id="Path_24303" data-name="Path 24303" d="M733.237,734.375l-.909-.506a11.016,11.016,0,0,0-.286,3.04.63.63,0,0,0,.473.544c2.092.519,12.061,2.733,18.916-.385a.629.629,0,0,0,.364-.505,9.419,9.419,0,0,0-.332-2.694C751.208,733.2,733.237,734.375,733.237,734.375Z" transform="translate(-571.183 -574.214)" opacity="0.1"/>
  <ellipse id="Ellipse_1072" data-name="Ellipse 1072" cx="9.568" cy="2.157" rx="9.568" ry="2.157" transform="translate(161.144 157.498)" fill="#fbd56f"/>
  <path id="Path_24304" data-name="Path 24304" d="M717.861,715.67l-.909-.506a11.014,11.014,0,0,0-.286,3.039.63.63,0,0,0,.473.544c2.092.519,12.061,2.733,18.917-.385a.629.629,0,0,0,.364-.505,9.419,9.419,0,0,0-.332-2.694C735.831,714.491,717.861,715.67,717.861,715.67Z" transform="translate(-559.386 -559.863)" fill="#fbd56f"/>
  <path id="Path_24305" data-name="Path 24305" d="M717.861,715.67l-.909-.506a11.014,11.014,0,0,0-.286,3.039.63.63,0,0,0,.473.544c2.092.519,12.061,2.733,18.917-.385a.629.629,0,0,0,.364-.505,9.419,9.419,0,0,0-.332-2.694C735.831,714.491,717.861,715.67,717.861,715.67Z" transform="translate(-559.386 -559.863)" opacity="0.1"/>
  <ellipse id="Ellipse_1073" data-name="Ellipse 1073" cx="9.568" cy="2.157" rx="9.568" ry="2.157" transform="translate(157.566 153.144)" fill="#fbd56f"/>
  <path id="Path_24306" data-name="Path 24306" d="M752.452,700.658l-.909-.506a11.013,11.013,0,0,0-.286,3.039.63.63,0,0,0,.473.544c2.092.519,12.061,2.733,18.917-.385a.629.629,0,0,0,.364-.505,9.417,9.417,0,0,0-.333-2.694C770.422,699.48,752.452,700.658,752.452,700.658Z" transform="translate(-585.926 -548.345)" fill="#fbd56f"/>
  <path id="Path_24307" data-name="Path 24307" d="M752.452,700.658l-.909-.506a11.013,11.013,0,0,0-.286,3.039.63.63,0,0,0,.473.544c2.092.519,12.061,2.733,18.917-.385a.629.629,0,0,0,.364-.505,9.417,9.417,0,0,0-.333-2.694C770.422,699.48,752.452,700.658,752.452,700.658Z" transform="translate(-585.926 -548.345)" opacity="0.1"/>
  <ellipse id="Ellipse_1074" data-name="Ellipse 1074" cx="9.568" cy="2.157" rx="9.568" ry="2.157" transform="translate(165.617 149.65)" fill="#fbd56f"/>
  <path id="Path_24308" data-name="Path 24308" d="M729.081,690.569l-.909-.506a11.016,11.016,0,0,0-.286,3.039.63.63,0,0,0,.474.544c2.092.519,12.061,2.733,18.916-.385a.629.629,0,0,0,.364-.506,9.418,9.418,0,0,0-.332-2.694C747.051,689.39,729.081,690.569,729.081,690.569Z" transform="translate(-567.994 -540.604)" fill="#fbd56f"/>
  <path id="Path_24309" data-name="Path 24309" d="M729.081,690.569l-.909-.506a11.016,11.016,0,0,0-.286,3.039.63.63,0,0,0,.474.544c2.092.519,12.061,2.733,18.916-.385a.629.629,0,0,0,.364-.506,9.418,9.418,0,0,0-.332-2.694C747.051,689.39,729.081,690.569,729.081,690.569Z" transform="translate(-567.994 -540.604)" opacity="0.1"/>
  <ellipse id="Ellipse_1075" data-name="Ellipse 1075" cx="9.568" cy="2.157" rx="9.568" ry="2.157" transform="translate(160.177 147.302)" fill="#fbd56f"/>
  <path id="Path_24310" data-name="Path 24310" d="M744.684,671.091l-.909-.506a11.014,11.014,0,0,0-.286,3.04.63.63,0,0,0,.474.544c2.092.519,12.061,2.733,18.916-.385a.629.629,0,0,0,.364-.505,9.418,9.418,0,0,0-.333-2.694C762.655,669.912,744.684,671.091,744.684,671.091Z" transform="translate(-579.966 -525.659)" fill="#fbd56f"/>
  <path id="Path_24311" data-name="Path 24311" d="M744.684,671.091l-.909-.506a11.014,11.014,0,0,0-.286,3.04.63.63,0,0,0,.474.544c2.092.519,12.061,2.733,18.916-.385a.629.629,0,0,0,.364-.505,9.418,9.418,0,0,0-.333-2.694C762.655,669.912,744.684,671.091,744.684,671.091Z" transform="translate(-579.966 -525.659)" opacity="0.1"/>
  <ellipse id="Ellipse_1076" data-name="Ellipse 1076" cx="9.568" cy="2.157" rx="9.568" ry="2.157" transform="translate(163.809 142.769)" fill="#fbd56f"/>
  <path id="Path_24312" data-name="Path 24312" d="M752.381,647.971l-.909-.506a11.016,11.016,0,0,0-.286,3.039.63.63,0,0,0,.473.544c2.092.519,12.061,2.733,18.916-.385a.629.629,0,0,0,.364-.505,9.416,9.416,0,0,0-.332-2.694C770.352,646.792,752.381,647.971,752.381,647.971Z" transform="translate(-585.872 -507.92)" fill="#fbd56f"/>
  <path id="Path_24313" data-name="Path 24313" d="M752.381,647.971l-.909-.506a11.016,11.016,0,0,0-.286,3.039.63.63,0,0,0,.473.544c2.092.519,12.061,2.733,18.916-.385a.629.629,0,0,0,.364-.505,9.416,9.416,0,0,0-.332-2.694C770.352,646.792,752.381,647.971,752.381,647.971Z" transform="translate(-585.872 -507.92)" opacity="0.1"/>
  <ellipse id="Ellipse_1077" data-name="Ellipse 1077" cx="9.568" cy="2.157" rx="9.568" ry="2.157" transform="translate(165.6 137.388)" fill="#fbd56f"/>
  <path id="Path_24314" data-name="Path 24314" d="M801.311,438.928c-1.332-.047-1.379-.563-3.092-1.455a17.743,17.743,0,0,1-3.528-3.141l-.255-.276.453-.009s-.428-3.755-.047-4.647.1-6.2.1-6.2.238-4.036-.19-4.975.143-6.947.143-6.947.381-3.567.476-10.842-4.186-7.51-4.186-7.51-.571-.044-1.437-.127l-.26-.025c.561-1.175.888-2.054.888-2.054s-.713-6.806-.9-7.979-1.332-6.008-1.332-6.008-.809-2.065-1.284-3.52a11.88,11.88,0,0,0-1.9-3.145,58.215,58.215,0,0,0-3.282-5.82c-.331-.348-.8-.788-1.2-1.158l-.209-.192a8.494,8.494,0,0,0,.17-1.607s-2.664-2.628-2.854-3.285-2.711-3.1-2.711-3.1-1.427-2.628-3.044-2.675a13.188,13.188,0,0,0-2.291.069c.332-1.229.725-2.517,1.078-3.622l.116-.362a8.146,8.146,0,0,0,2.922-3.534c.034-.076.064-.153.095-.23.017,0,.034,0,.051,0a1.274,1.274,0,0,0,.2-.018c.532-.091.983-.693.738-1.167a.174.174,0,0,0,.155.085c.177-.006.394-.263.435-.488.007-.039.011-.079.017-.118s.016-.1.021-.147.009-.093.013-.139.008-.1.01-.144,0-.09,0-.135,0-.1,0-.155,0-.083,0-.124c0-.063-.008-.126-.014-.188,0-.026,0-.052-.006-.077v0a4.22,4.22,0,0,0-.153-.757c-.263-.872-.814-1.738-.6-2.623,0-.01.007-.018.009-.028v0a7.7,7.7,0,0,1,1.136-1.8c.035-.059.065-.119.1-.18.006-.011.012-.022.017-.033.022-.046.04-.093.06-.139.012-.03.026-.06.037-.09s.028-.083.041-.124.025-.075.036-.114.018-.074.027-.111.021-.09.03-.135.011-.065.016-.1c.008-.051.015-.1.021-.154,0-.028.005-.056.007-.084,0-.058.008-.115.009-.173,0-.023,0-.046,0-.07q0-.095,0-.19c0-.019,0-.038,0-.057q-.007-.1-.021-.2c0-.01,0-.019,0-.029v0a3.382,3.382,0,0,0-.681-1.618,4.169,4.169,0,0,0-3.424-1.481,5.73,5.73,0,0,1-1.076.02,3.555,3.555,0,0,1-1.578-.833l-3.984-3.069a4.915,4.915,0,0,0-1.506-.9,1.682,1.682,0,0,0-1.655.3c-.746.736-.272,2-.571,3a2.915,2.915,0,0,1-1.959,1.742c-.864.292-1.789.356-2.678.568a1.478,1.478,0,0,0-.716.329,1.386,1.386,0,0,0-.311,1,5.381,5.381,0,0,0,.618,2.538c.168.319.372.641.55.967l.043.081c.02.037.04.075.059.113q.046.092.088.184c.012.026.023.053.034.08q.028.065.053.131c.011.028.021.056.031.083.018.051.034.1.049.154a1.717,1.717,0,0,1,.026.936,3.475,3.475,0,0,1-.878,1.287,2.5,2.5,0,0,0-.587,1.088l0,.009a.876.876,0,0,0-.011.287c0,.012,0,.024.005.035a.512.512,0,0,0,.018.063.454.454,0,0,0,.019.044.421.421,0,0,0,.025.049.375.375,0,0,0,.06.071l.033.025a.406.406,0,0,0,.061.038l.041.018a.562.562,0,0,0,.1.027l.027.006a.894.894,0,0,0,.153.006l.046,0a1.447,1.447,0,0,0,.146-.018l.054-.01c.07-.014.144-.032.225-.057a5.037,5.037,0,0,0,.777-.307c0,.029,0,.057,0,.085,0,.049,0,.1,0,.15a7.908,7.908,0,0,0,.514,2.692,8.131,8.131,0,0,0,2.48,3.427q-.021.122-.045.244c-.229,1.126-.709,2.255-1,2.168a4.034,4.034,0,0,0-.882-.1c-.09,0-.177,0-.259,0h0a3.516,3.516,0,0,0-.809,0,.876.876,0,0,1-.354-.049,4.824,4.824,0,0,0-2.376-.133c-1.645.337-4.147.954-4.833,1.692-1.046,1.126-2.569,2.206-4.281,6.9,0,0-.856,2.863-1.522,3.239a4.452,4.452,0,0,1,.452-.2,1.206,1.206,0,0,1-.357.391,5.246,5.246,0,0,1,.749-.312c-.52,3.058.25,11.805.25,11.805s-.618,1.508.19,2.4a4.519,4.519,0,0,1,.875,1.941l-.117.182h0c-.428.664-1,1.529-1.377,2.006-.666.845-.476,3.52-.476,3.52a3.726,3.726,0,0,1-.618,1.737c-.476.469-.381,2.206-.381,2.206l-1.237,4.553s-1.142,1.033-1.142,1.5a6.168,6.168,0,0,1-.9,1.784s-1.379,2.253,0,1.924a4.327,4.327,0,0,0,1.393-.7v.034q0,.124-.005.252c-.039,2.454.228,5.906,2.038,5.906,2.806,0,10.036,3.332,10.036,3.332a4.849,4.849,0,0,0,3.472.751s-3.52,3.52-3.425,4.975-2,3.849-2,3.849l-6.469,12.626a9.686,9.686,0,0,0,.464,2.588c-.031.027-.063.052-.093.08-2.486,2.271-2.7,6.766-2.7,6.766l-.571,2.3,8.657,3.8s11.225.235,13.175-.282,1.522-2.675-1.046-3.1-3.187-1.549-4.043-2.065a40.573,40.573,0,0,1-3.9-4.026l-.056-.063.295-1.637c.571-.282,1.427-3.1,1.427-3.1s0-1.126.571-1.455,1.76-3.708,1.76-3.708,2.568-4.271,2.426-4.834,1.855-3.426,1.855-3.426,3.377-3.285,3.234-3.872,2.711-3.591,2.711-3.591a9.525,9.525,0,0,0,2.526-2.908c.257-.041.533-.085.824-.134,3.735-.612,9.941-1.719,10.635-2.027.951-.422.761,1.455.381,3.051s-.666,9.246-.238,10.232a6.164,6.164,0,0,1,.238,2.581l-.571,8.589.38,1.83s-1.284,1.033-.761,1.643.047,3.239.047,3.239c.045-.017.1-.033.158-.049-.046.1-.089.209-.128.32a15.433,15.433,0,0,0-.315,5.549v2.722s13.175.235,16.077.235,6.9-1.408,7.135-2.535S802.643,438.975,801.311,438.928Zm-37.474-48.862-.863.073A7.169,7.169,0,0,1,763.837,390.066ZM769.1,354.04c.121-.543.267-1.127.429-1.726Zm1.628,37.343a3.492,3.492,0,0,1-2.563,0l-.006,0a27.193,27.193,0,0,1,.428-4.647c.381-1.361.9-3.849.9-3.849a50.393,50.393,0,0,1,.856-4.975c.428-1.549,2.093-10.185,2.949-10.748a.9.9,0,0,1,1.332.422s.128,0,.342-.026q.06.135.136.287a70.669,70.669,0,0,0,3.993,6.263,6.86,6.86,0,0,1,2.188,2.159,14.275,14.275,0,0,1,1.046,4.553s1.807,7.087,2.664,8.073c.428.493.238.787-.059.957a4.214,4.214,0,0,0-1.5,1.386c-.122.193-.251.406-.382.632-.327-.076-.62-.154-.864-.237C779.859,390.85,772.011,390.819,770.727,391.383Z" transform="translate(-577.133 -261.892)" fill="url(#linear-gradient)"/>
  <path id="Path_24315" data-name="Path 24315" d="M922.76,790.664v2.7s12.892.233,15.731.233,6.749-1.4,6.981-2.513-3.258-2.048-4.561-2.094-1.35-.558-3.025-1.443a17.433,17.433,0,0,1-3.453-3.115c-.826-.9-1.434-1.633-1.434-1.633s-6.935-.14-8.936.977a2.421,2.421,0,0,0-1,1.386A15.5,15.5,0,0,0,922.76,790.664Z" transform="translate(-717.444 -611.911)" fill="#434175"/>
  <path id="Path_24316" data-name="Path 24316" d="M924.472,785.162c1.454-.505,9.967-.7,11.366-.731-.826-.9-1.434-1.633-1.434-1.633s-6.935-.14-8.936.977A2.421,2.421,0,0,0,924.472,785.162Z" transform="translate(-718.848 -611.911)" opacity="0.1"/>
  <path id="Path_24317" data-name="Path 24317" d="M763.77,601.9l.752.454.282.17,1.094.659c5.849,3.525,21.806,13.081,22.679,13.005.229-.02.917-.123,1.866-.277.251-.041.521-.085.806-.133,3.655-.607,9.727-1.7,10.406-2.01.931-.419.745,1.443.372,3.025s-.651,9.169-.233,10.146a6.189,6.189,0,0,1,.233,2.56l-.558,8.517.372,1.815s-1.257,1.024-.745,1.629.047,3.211.047,3.211c1.489-.559,11.589-.745,11.589-.745s-.419-3.724-.047-4.608.093-6.144.093-6.144.233-4-.186-4.934.14-6.888.14-6.888.372-3.537.465-10.751-4.1-7.447-4.1-7.447-.559-.044-1.407-.126a62.407,62.407,0,0,1-6.27-.865,10.458,10.458,0,0,1-1.12-.3c-2.281-.776-9.96-.807-11.217-.249a3.375,3.375,0,0,1-2.508,0l-.006,0-.977-1.582-9.336.8-.99.085-9.19.784-.632.054Z" transform="translate(-595.549 -471.694)" fill="#565387"/>
  <path id="Path_24318" data-name="Path 24318" d="M919.964,616.057c2.712,1.322,5.3-3.364,6.506-6.009a62.371,62.371,0,0,1-6.27-.865C918.985,611.223,917.364,614.791,919.964,616.057Z" transform="translate(-714.323 -478.708)" opacity="0.1"/>
  <path id="Path_24319" data-name="Path 24319" d="M889.552,487.618a2.845,2.845,0,0,0,.329.91,70.223,70.223,0,0,0,3.907,6.211,6.747,6.747,0,0,1,2.141,2.141,14.318,14.318,0,0,1,1.024,4.515s1.769,7.028,2.606,8.005c.419.489.233.78-.058.949a4.145,4.145,0,0,0-1.469,1.375c-1.22,1.962-3.169,5.854-.428,7.19,3.723,1.815,7.214-7.7,7.214-7.7s-.7-6.749-.884-7.912-1.3-5.958-1.3-5.958-.791-2.048-1.257-3.491a11.806,11.806,0,0,0-1.862-3.118,57.951,57.951,0,0,0-3.211-5.771c-.324-.345-.778-.781-1.172-1.149-.455-.425-.829-.76-.829-.76S889.505,486.5,889.552,487.618Z" transform="translate(-692.055 -381.937)" fill="#ee8e9e"/>
  <path id="Path_24320" data-name="Path 24320" d="M753.971,780.291l8.471,3.77s10.984.233,12.892-.279,1.489-2.653-1.024-3.072-3.118-1.536-3.956-2.048a40,40,0,0,1-3.817-3.992c-.6-.681-1.023-1.174-1.023-1.174s-1.629-4.328-6.144-3.351a4.627,4.627,0,0,0-2.2,1.156c-2.432,2.252-2.644,6.71-2.644,6.71Z" transform="translate(-588.031 -602.096)" fill="#434175"/>
  <path id="Path_24321" data-name="Path 24321" d="M768.213,601.914l1.094.659c5.849,3.525,21.806,13.081,22.679,13.005.229-.02.917-.123,1.866-.277.251-.041.521-.085.806-.133.011-.018.021-.035.032-.053a10.7,10.7,0,0,0,1.066-2.608c.977-3.723-3.863-6.563-3.863-6.563l-1.024-.8c-1.164-1.959-9.541-3.812-9.541-3.812l-1.08-.725-.576-.387-.152-.1-1.311-.881-6.563.465L769.7,600.96l-.206.132-.723.466Z" transform="translate(-598.958 -471.08)" opacity="0.1"/>
  <path id="Path_24322" data-name="Path 24322" d="M767.729,771.3c1.782,6.162,9.225,4.15,9.225,4.15l.139-.781c-.6-.681-1.023-1.174-1.023-1.174s-1.629-4.328-6.144-3.351A4.626,4.626,0,0,0,767.729,771.3Z" transform="translate(-598.587 -602.096)" opacity="0.1"/>
  <path id="Path_24323" data-name="Path 24323" d="M752.786,612.934c2.746,0,9.821,3.3,9.821,3.3a4.691,4.691,0,0,0,3.4.745s-3.444,3.491-3.351,4.934-1.955,3.817-1.955,3.817l-6.33,12.52c.466,8.89,9.588,6.423,9.588,6.423l.372-2.094c.559-.279,1.4-3.072,1.4-3.072s0-1.117.559-1.443,1.722-3.677,1.722-3.677,2.513-4.235,2.374-4.794,1.815-3.4,1.815-3.4,3.3-3.258,3.165-3.84,2.653-3.56,2.653-3.56a9.4,9.4,0,0,0,2.471-2.884,10.7,10.7,0,0,0,1.066-2.608c.788-3-2.2-5.424-3.391-6.253-.289-.2-.472-.309-.472-.309l-1.024-.8c-.529-.892-2.551-1.76-4.6-2.443-1.476-.492-2.967-.888-3.919-1.125-.63-.156-1.025-.244-1.025-.244l-1.08-.725-.38-.255-.348-.234L764,600.041l-2.92.207-3.642.259-1.949,1.253-.929.6-3.638,2.338s-.1.9-.127,2.1l-.006.284C750.754,609.51,751.016,612.934,752.786,612.934Z" transform="translate(-585.589 -471.694)" fill="#565387"/>
  <path id="Path_24324" data-name="Path 24324" d="M819.562,416.556l.977,3.491s1.722,6,1.908,6.423a66.215,66.215,0,0,0,4.887,4.747c.186.093,2.645,1.489,2.645,1.489s.195-7.68.008-9.914a6.378,6.378,0,0,1,.121-1.463,55.054,55.054,0,0,1,1.671-6.3c.521-1.657.954-2.9.954-2.9s-10.891-.465-10.519.605a3.826,3.826,0,0,1-.041,1.76c-.224,1.116-.693,2.236-.983,2.149a3.9,3.9,0,0,0-.863-.1C819.926,416.541,819.562,416.556,819.562,416.556Z" transform="translate(-638.356 -327.444)" fill="#ee8e9e"/>
  <path id="Path_24325" data-name="Path 24325" d="M830.785,414.5a8.055,8.055,0,0,0,9.606.534c.521-1.657.954-2.9.954-2.9s-10.891-.465-10.519.605A3.825,3.825,0,0,1,830.785,414.5Z" transform="translate(-646.966 -327.444)" opacity="0.1"/>
  <path id="Path_24326" data-name="Path 24326" d="M834.471,368.334a8.02,8.02,0,0,1-.4,2.514,6.578,6.578,0,0,1-.233.617,8.053,8.053,0,0,1-14.961-.312,7.939,7.939,0,0,1-.5-2.67c0-.049,0-.1,0-.149a8.052,8.052,0,0,1,16.1,0Z" transform="translate(-637.439 -287.737)" fill="#ee8e9e"/>
  <path id="Path_24327" data-name="Path 24327" d="M819.562,431.439l.977,3.491s1.722,6,1.908,6.423a66.216,66.216,0,0,0,4.887,4.747c.186.093,2.645,1.489,2.645,1.489s.195-7.68.008-9.914a6.378,6.378,0,0,1,.121-1.463l-.633,2.58.047,5.166.372.279-.838,1.257v-.931s-2.979-2.886-3.444-4.1a20.322,20.322,0,0,0-2.141-3.4,27.579,27.579,0,0,1-1.955-3.766,6.01,6.01,0,0,0-1.189-1.865C819.926,431.424,819.562,431.439,819.562,431.439Z" transform="translate(-638.356 -342.327)" opacity="0.1"/>
  <path id="Path_24328" data-name="Path 24328" d="M889.552,487.618a2.845,2.845,0,0,0,.329.91,5.744,5.744,0,0,0,5.248-4.712c-.455-.425-.829-.76-.829-.76S889.505,486.5,889.552,487.618Z" transform="translate(-692.055 -381.937)" opacity="0.1"/>
  <path id="Path_24329" data-name="Path 24329" d="M750.8,607.077c.939-.665,1.833-1.571,2.366-1.823a10.28,10.28,0,0,0,2-1.582s.307-.208.778-.485a9.408,9.408,0,0,1,3.364-1.33c.972-.081,4.2-.288,6.74-.446,1.837-.115,3.314-.206,3.314-.206s3.025-1.07,4.328-.372a13.677,13.677,0,0,0,2.932,1.07s0-.1.006-.276l-.006,0-.977-1.582-10.325.881-1.311-.881-6.563.465L755.5,601.76l-1.681.143.752.454-3.638,2.338S750.824,605.735,750.8,607.077Z" transform="translate(-585.6 -471.694)" opacity="0.1"/>
  <path id="Path_24330" data-name="Path 24330" d="M742.995,477.233a4.214,4.214,0,0,0,1.363-.694h0c.937-.664,1.828-1.568,2.361-1.818a10.281,10.281,0,0,0,2-1.582,11.766,11.766,0,0,1,4.142-1.815c.457-.038,1.412-.1,2.56-.179,1.175-.078,2.55-.166,3.8-.243l1.972-.124,1.721-.106s3.025-1.07,4.328-.372a13.675,13.675,0,0,0,2.932,1.07,27.329,27.329,0,0,1,.419-4.608c.372-1.35.884-3.816.884-3.816s.419-3.4.838-4.934,2.048-10.1,2.886-10.658,1.3.419,1.3.419a5.875,5.875,0,0,0,5.678-6.237s-2.606-2.606-2.793-3.258-2.653-3.072-2.653-3.072-1.4-2.606-2.979-2.653a12.729,12.729,0,0,0-2.242.069l-1.342,5.47.047,5.166.372.279-.838,1.257v-.931s-2.979-2.886-3.444-4.1a20.315,20.315,0,0,0-2.141-3.4,27.6,27.6,0,0,1-1.955-3.766c-.047-.559-1.35-2.055-1.35-2.055a3.4,3.4,0,0,0-.791,0,.847.847,0,0,1-.346-.048,4.661,4.661,0,0,0-2.325-.132c-1.609.334-4.058.946-4.729,1.677-1.024,1.117-2.513,2.188-4.189,6.842l9.029,3.258-.773,1.469-7.186,13.658s-.238.388-.561.9h0c-.419.658-.979,1.516-1.347,1.989-.652.838-.465,3.491-.465,3.491a3.727,3.727,0,0,1-.605,1.722c-.466.465-.372,2.188-.372,2.188L745,472.067s-1.117,1.024-1.117,1.489a6.147,6.147,0,0,1-.884,1.769S741.645,477.559,742.995,477.233Z" transform="translate(-579.149 -341.439)" fill="#434175"/>
  <path id="Path_24331" data-name="Path 24331" d="M937.164,646.435s-2.932.977-3.723,2.374S937.164,646.435,937.164,646.435Z" transform="translate(-725.658 -507.289)" opacity="0.1"/>
  <path id="Path_24332" data-name="Path 24332" d="M930.881,633.237c-.093.14-4.016,4.076-3.77,5.027S930.881,633.237,930.881,633.237Z" transform="translate(-720.865 -497.163)" opacity="0.1"/>
  <path id="Path_24333" data-name="Path 24333" d="M835.045,645.235S830.67,647.3,830.3,648.2,835.045,645.235,835.045,645.235Z" transform="translate(-646.577 -506.369)" opacity="0.1"/>
  <path id="Path_24334" data-name="Path 24334" d="M834.632,656.634s-3.948,1.676-4.488,2.094S834.632,656.634,834.632,656.634Z" transform="translate(-646.444 -515.114)" opacity="0.1"/>
  <path id="Path_24335" data-name="Path 24335" d="M832.285,671.169s-1.749,1.3-2.713.279S832.285,671.169,832.285,671.169Z" transform="translate(-645.913 -526.066)" opacity="0.1"/>
  <path id="Path_24336" data-name="Path 24336" d="M844.825,526.051c-.094.14-5.912,10.612-7.448,11.4S844.825,526.051,844.825,526.051Z" transform="translate(-651.889 -414.924)" opacity="0.1"/>
  <path id="Path_24337" data-name="Path 24337" d="M846.706,543.049c0,.233-5.678,12.38-6.609,12.52S846.706,543.049,846.706,543.049Z" transform="translate(-654.05 -427.966)" opacity="0.1"/>
  <path id="Path_24338" data-name="Path 24338" d="M762.879,576.644s-2.742,5.856-3.817,6.19S762.879,576.644,762.879,576.644Z" transform="translate(-591.818 -453.742)" opacity="0.1"/>
  <path id="Path_24339" data-name="Path 24339" d="M768.629,565.446s-.945,2.048-1.52,2.048S768.629,565.446,768.629,565.446Z" transform="translate(-598.034 -445.15)" opacity="0.1"/>
  <path id="Path_24340" data-name="Path 24340" d="M834.471,368.334a8.022,8.022,0,0,1-.4,2.514,6.543,6.543,0,0,1-.233.617,2.368,2.368,0,0,1-1.129-.5,2.8,2.8,0,0,1-.845-.9,11.3,11.3,0,0,1-.412-1.175,2.735,2.735,0,0,0-2.209-1.673.858.858,0,0,1-.682,1.164,1.665,1.665,0,0,1-1.394-.621c-.361-.389-.621-.861-.98-1.25a1.665,1.665,0,0,0-1.394-.621,3.188,3.188,0,0,0-1.21.687,1.165,1.165,0,0,1-1.3.158c-.209-.156-.312-.421-.512-.591-.514-.431-1.315.014-1.694.57a4.5,4.5,0,0,1-1.7,1.771c0-.049,0-.1,0-.149a8.052,8.052,0,0,1,16.1,0Z" transform="translate(-637.439 -287.737)" opacity="0.1"/>
  <path id="Path_24341" data-name="Path 24341" d="M814.057,343.87c.379-.557,1.179-1,1.695-.569.2.168.3.434.511.591a1.164,1.164,0,0,0,1.3-.159,3.169,3.169,0,0,1,1.209-.687,1.661,1.661,0,0,1,1.394.622c.36.389.62.861.98,1.25a1.66,1.66,0,0,0,1.394.621.856.856,0,0,0,.682-1.163,2.735,2.735,0,0,1,2.208,1.673,11.312,11.312,0,0,0,.412,1.175,2.788,2.788,0,0,0,.846.9,2,2,0,0,0,1.466.486c.522-.091.963-.689.721-1.159.167.253.525-.1.579-.4a4.257,4.257,0,0,0-.108-1.964c-.257-.865-.8-1.723-.589-2.6a7.306,7.306,0,0,1,1.12-1.811,3.275,3.275,0,0,0-.308-3.566,4.055,4.055,0,0,0-3.35-1.468,5.54,5.54,0,0,1-1.053.02,3.464,3.464,0,0,1-1.544-.826l-3.9-3.043a4.8,4.8,0,0,0-1.474-.888,1.629,1.629,0,0,0-1.619.3c-.73.73-.266,1.986-.559,2.976a2.866,2.866,0,0,1-1.917,1.728c-.846.29-1.751.353-2.62.563a1.437,1.437,0,0,0-.7.326,1.387,1.387,0,0,0-.3.99,5.394,5.394,0,0,0,.605,2.517c.451.868,1.167,1.761.914,2.706a3.449,3.449,0,0,1-.859,1.277c-.737.847-.985,2.1.4,1.662A4.012,4.012,0,0,0,814.057,343.87Z" transform="translate(-631.424 -265.129)" fill="#434175"/>
  <g id="Group_11200" data-name="Group 11200" transform="translate(179.11 72.289)" opacity="0.1">
    <path id="Path_24342" data-name="Path 24342" d="M829.69,383.392c-.054.3-.412.651-.579.4.242.471-.2,1.069-.721,1.159a2,2,0,0,1-1.466-.486,2.787,2.787,0,0,1-.846-.9,11.332,11.332,0,0,1-.412-1.175,2.735,2.735,0,0,0-2.208-1.673.856.856,0,0,1-.682,1.163,1.66,1.66,0,0,1-1.394-.621c-.36-.389-.621-.861-.98-1.25a1.661,1.661,0,0,0-1.394-.621,3.169,3.169,0,0,0-1.209.687,1.164,1.164,0,0,1-1.3.159c-.209-.157-.311-.423-.511-.591-.516-.433-1.316.012-1.695.569a4.012,4.012,0,0,1-2.464,2.075c-.438.138-.712.107-.86-.026-.293.673-.16,1.266.86.944a4.012,4.012,0,0,0,2.464-2.075c.379-.557,1.179-1,1.695-.569.2.168.3.434.511.591a1.164,1.164,0,0,0,1.3-.159,3.17,3.17,0,0,1,1.209-.687,1.661,1.661,0,0,1,1.394.622c.36.389.62.861.98,1.25a1.66,1.66,0,0,0,1.394.621.856.856,0,0,0,.682-1.163,2.735,2.735,0,0,1,2.208,1.673,11.328,11.328,0,0,0,.412,1.175,2.787,2.787,0,0,0,.846.9,2,2,0,0,0,1.466.486c.522-.091.963-.689.721-1.159.167.253.525-.1.579-.4a4.254,4.254,0,0,0,.042-1.218C829.721,383.193,829.708,383.293,829.69,383.392Z" transform="translate(-810.765 -374.672)"/>
    <path id="Path_24343" data-name="Path 24343" d="M812.06,363.889c0-.012.009-.023.012-.035.253-.945-.462-1.838-.914-2.706a5.4,5.4,0,0,1-.579-1.966,2.619,2.619,0,0,0-.027.366,5.4,5.4,0,0,0,.605,2.517A9.48,9.48,0,0,1,812.06,363.889Z" transform="translate(-810.552 -359.182)"/>
    <path id="Path_24344" data-name="Path 24344" d="M889.843,365.8a7.3,7.3,0,0,0-1.12,1.812,2.019,2.019,0,0,0,.008.892,7.651,7.651,0,0,1,1.111-1.786,3.059,3.059,0,0,0,.359-1.965A2.879,2.879,0,0,1,889.843,365.8Z" transform="translate(-870.494 -363.452)"/>
  </g>
  <path id="Path_24345" data-name="Path 24345" d="M770.757,502.121h0a7.1,7.1,0,0,1,.142.779s3.677,8.61,4.142,9.122c.143.157.683.932,1.362,1.929.246.36.509.75.779,1.151,1.407,2.089,2.979,4.461,2.979,4.461l3.444,3.025s7.492.6,9.874-1.832c-.289-.2-.472-.309-.472-.309l-1.024-.8c-.529-.892-2.551-1.76-4.6-2.443-1.886.014-3.428.167-3.428.167l-.491-1.292-.512-1.348-2.6-6.855s-1.679-8.657-2.238-9.076-.419-1.722-.419-1.722,1.024-3.677.652-4.189.605-4.282.605-4.282a3.9,3.9,0,0,0-.447-1.044l-7.186,13.657S771.08,501.614,770.757,502.121Z" transform="translate(-600.91 -385.398)" opacity="0.1"/>
  <path id="Path_24346" data-name="Path 24346" d="M774.6,477.829s-.977,3.77-.6,4.282-.652,4.189-.652,4.189-.14,1.3.419,1.722S776,497.1,776,497.1l3.606,9.495s11.284-1.117,10.12,2.42-10.472,2.793-10.472,2.793l-3.444-3.025s-4.654-7.028-5.12-7.54-4.142-9.122-4.142-9.122a5.565,5.565,0,0,0-.977-2.606c-.791-.884-.186-2.38-.186-2.38s-.977-11.257.047-12.607S773.527,473.779,774.6,477.829Z" transform="translate(-596.462 -374.893)" fill="#ee8e9e"/>
  <path id="Path_24347" data-name="Path 24347" d="M766.992,458.347l-2.932,1.769s-.838,2.839-1.489,3.211c0,0,5.864-3.258,10.286,4.235a1.7,1.7,0,0,1,.465-1.443c.605-.465.465-2.467.465-2.467a8.066,8.066,0,0,0,.419-.977C774.625,461.651,772.437,455.787,766.992,458.347Z" transform="translate(-594.628 -362.486)" opacity="0.1"/>
  <path id="Path_24348" data-name="Path 24348" d="M766.592,457.547l-2.932,1.769s-.838,2.839-1.489,3.211c0,0,5.864-3.258,10.286,4.235a1.7,1.7,0,0,1,.465-1.443c.605-.465.465-2.467.465-2.467a8.05,8.05,0,0,0,.419-.977C774.225,460.851,772.037,454.987,766.592,457.547Z" transform="translate(-594.321 -361.872)" fill="#434175"/>
  <ellipse id="Ellipse_1078" data-name="Ellipse 1078" cx="8.741" cy="9.278" rx="8.741" ry="9.278" transform="translate(137.395 158.626)" fill="#fbd56f"/>
  <ellipse id="Ellipse_1079" data-name="Ellipse 1079" cx="8.741" cy="9.278" rx="8.741" ry="9.278" transform="translate(137.395 158.626)" opacity="0.1"/>
  <ellipse id="Ellipse_1080" data-name="Ellipse 1080" cx="8.741" cy="9.072" rx="8.741" ry="9.072" transform="translate(138.903 159.04)" fill="#fbd56f"/>
  <ellipse id="Ellipse_1081" data-name="Ellipse 1081" cx="10.796" cy="1.825" rx="10.796" ry="1.825" transform="translate(10.184 169.354)" fill="#4285f4"/>
  <path id="Path_24349" data-name="Path 24349" d="M117.386,754.843a3.134,3.134,0,0,0,1.029-1.553,1.381,1.381,0,0,0-.719-1.582,2.022,2.022,0,0,0-1.9.668,2.543,2.543,0,0,1-1.849.892,2.815,2.815,0,0,0,.871-2.634,1.1,1.1,0,0,0-.242-.535c-.367-.392-1.031-.224-1.47.085-1.4.982-1.786,2.879-1.794,4.586a8.676,8.676,0,0,1-.026-1.889,1.938,1.938,0,0,0-.709-1.671,2.137,2.137,0,0,0-1.082-.254,2.238,2.238,0,0,0-1.755.5,1.745,1.745,0,0,0,.069,2.155,6.8,6.8,0,0,0,1.817,1.455,4.028,4.028,0,0,1,1.3,1.238,1.223,1.223,0,0,1,.1.221h3.935A10.964,10.964,0,0,0,117.386,754.843Z" transform="translate(-91.941 -586.65)" fill="#4285f4"/>
  <path id="Path_24350" data-name="Path 24350" d="M515.433,727.558a9.411,9.411,0,0,1,1.17,2.137c.078.2.155.4.227.62,1.163,3.476-.68,7.645-1.207,7.195s-2.169-1.284-2.486-.111a6.727,6.727,0,0,1-1.49,2.37c-2.137,2.149-4.071-.173-5.34-2.572a23.244,23.244,0,0,1-1.1-2.44c-.282-.737-.444-1.246-.444-1.246l8.9-7.583A5.267,5.267,0,0,1,515.433,727.558Z" transform="translate(-396.821 -568.281)" fill="#4285f4"/>
  <path id="Path_24351" data-name="Path 24351" d="M455.169,748.391a9.413,9.413,0,0,1,1.17,2.137c.078.2.155.4.227.619,1.163,3.476-.68,7.644-1.207,7.195s-2.169-1.284-2.486-.112a6.727,6.727,0,0,1-1.49,2.371c-2.137,2.149-4.071-.173-5.34-2.572a23.251,23.251,0,0,1-1.1-2.44c-.282-.737-.444-1.246-.444-1.246l8.9-7.582A5.268,5.268,0,0,1,455.169,748.391Z" transform="translate(-350.583 -584.264)" fill="#4285f4"/>
  <path id="Path_24352" data-name="Path 24352" d="M324.99,774.673a9.412,9.412,0,0,1-.463,2.392c-.065.2-.138.409-.221.622-1.323,3.418-5.4,5.451-5.521,4.769s-.85-2.373-1.843-1.673a6.727,6.727,0,0,1-2.66.874c-3.016.291-3.024-2.731-2.47-5.388a23.248,23.248,0,0,1,.707-2.584c.253-.747.454-1.242.454-1.242l11.691-.158A5.269,5.269,0,0,1,324.99,774.673Z" transform="translate(-248.567 -603.848)" fill="#4285f4"/>
  <path id="Path_24353" data-name="Path 24353" d="M260.091,758.305a9.415,9.415,0,0,1-.463,2.392c-.065.2-.138.409-.221.622-1.323,3.419-5.4,5.451-5.521,4.769s-.85-2.373-1.843-1.673a6.726,6.726,0,0,1-2.66.874c-3.016.291-3.024-2.731-2.47-5.388a23.227,23.227,0,0,1,.707-2.584c.253-.747.454-1.242.454-1.242l11.691-.158A5.268,5.268,0,0,1,260.091,758.305Z" transform="translate(-198.773 -591.29)" fill="#4285f4"/>
  <path id="Path_24354" data-name="Path 24354" d="M515.433,727.558a9.411,9.411,0,0,1,1.17,2.137c.078.2.155.4.227.62,1.163,3.476-.68,7.645-1.207,7.195s-2.169-1.284-2.486-.111a6.727,6.727,0,0,1-1.49,2.37c-2.137,2.149-4.071-.173-5.34-2.572a23.244,23.244,0,0,1-1.1-2.44c-.282-.737-.444-1.246-.444-1.246l8.9-7.583A5.267,5.267,0,0,1,515.433,727.558Z" transform="translate(-396.821 -568.281)" opacity="0.2" style="isolation: isolate"/>
  <path id="Path_24355" data-name="Path 24355" d="M455.169,748.391a9.413,9.413,0,0,1,1.17,2.137c.078.2.155.4.227.619,1.163,3.476-.68,7.644-1.207,7.195s-2.169-1.284-2.486-.112a6.727,6.727,0,0,1-1.49,2.371c-2.137,2.149-4.071-.173-5.34-2.572a23.251,23.251,0,0,1-1.1-2.44c-.282-.737-.444-1.246-.444-1.246l8.9-7.582A5.268,5.268,0,0,1,455.169,748.391Z" transform="translate(-350.583 -584.264)" opacity="0.2" style="isolation: isolate"/>
  <path id="Path_24356" data-name="Path 24356" d="M324.99,774.673a9.412,9.412,0,0,1-.463,2.392c-.065.2-.138.409-.221.622-1.323,3.418-5.4,5.451-5.521,4.769s-.85-2.373-1.843-1.673a6.727,6.727,0,0,1-2.66.874c-3.016.291-3.024-2.731-2.47-5.388a23.248,23.248,0,0,1,.707-2.584c.253-.747.454-1.242.454-1.242l11.691-.158A5.269,5.269,0,0,1,324.99,774.673Z" transform="translate(-248.567 -603.848)" opacity="0.2" style="isolation: isolate"/>
  <path id="Path_24357" data-name="Path 24357" d="M260.091,758.305a9.415,9.415,0,0,1-.463,2.392c-.065.2-.138.409-.221.622-1.323,3.419-5.4,5.451-5.521,4.769s-.85-2.373-1.843-1.673a6.726,6.726,0,0,1-2.66.874c-3.016.291-3.024-2.731-2.47-5.388a23.227,23.227,0,0,1,.707-2.584c.253-.747.454-1.242.454-1.242l11.691-.158A5.268,5.268,0,0,1,260.091,758.305Z" transform="translate(-198.773 -591.29)" opacity="0.2" style="isolation: isolate"/>
  <path id="Path_24358" data-name="Path 24358" d="M261.538,359.666c0,31.225-10.563,56.538-59.308,56.538-32.755,0-58.1-8.139-59.308-56.538-.782-31.215,26.553-56.538,59.308-56.538S261.538,328.441,261.538,359.666Z" transform="translate(-119.188 -243.886)" fill="#4285f4"/>
  <path id="Path_24359" data-name="Path 24359" d="M349.994,307.369H350l-.005,0Z" transform="translate(-278.077 -247.139)" opacity="0.2" style="isolation: isolate"/>
  <path id="Path_24360" data-name="Path 24360" d="M350.218,306.962c.151-.024.449-.066.881-.1l-.965.114.052-.01Z" transform="translate(-278.185 -246.751)" opacity="0.2" style="isolation: isolate"/>
  <path id="Path_24361" data-name="Path 24361" d="M397.245,327.54l-4.329,1.558a96.7,96.7,0,0,0-7.112-8.478,69.475,69.475,0,0,0-9.006-8.068c-11.084-8.215-19.657-8.424-22.489-8.213l6.507-.765a52.908,52.908,0,0,1,17.47,6.315,57.714,57.714,0,0,1,10.5,7.756A51.336,51.336,0,0,1,397.245,327.54Z" transform="translate(-281.388 -244.228)" opacity="0.2" style="isolation: isolate"/>
  <path id="Path_24362" data-name="Path 24362" d="M361.353,338.692s-5.714-19.048-.866-24.243c0,0,7.619-2.6,13.334,12.121Z" transform="translate(-284.631 -252.436)" opacity="0.2" style="isolation: isolate"/>
  <path id="Path_24363" data-name="Path 24363" d="M494.962,307.121s15.154-12.878,21.858-10.521c0,0,5.437,5.936-5.752,17.077Z" transform="translate(-389.304 -238.655)" fill="#4285f4"/>
  <path id="Path_24364" data-name="Path 24364" d="M494.962,307.121s15.154-12.878,21.858-10.521c0,0,5.437,5.936-5.752,17.077Z" transform="translate(-389.304 -238.655)" opacity="0.2" style="isolation: isolate"/>
  <path id="Path_24365" data-name="Path 24365" d="M562.711,507.442c0,16.784-12.044,30.044-23.377,30.044s-17.663-13.26-17.663-30.044,9.206-29.734,20.52-30.39C560.114,476.013,562.711,490.658,562.711,507.442Z" transform="translate(-409.798 -377.29)" fill="#4285f4"/>
  <path id="Path_24366" data-name="Path 24366" d="M562.711,507.442c0,16.784-12.044,30.044-23.377,30.044s-17.663-13.26-17.663-30.044,9.206-29.734,20.52-30.39C560.114,476.013,562.711,490.658,562.711,507.442Z" transform="translate(-409.798 -377.29)" opacity="0.2" style="isolation: isolate"/>
  <ellipse id="Ellipse_1082" data-name="Ellipse 1082" cx="3.81" cy="4.849" rx="3.81" ry="4.849" transform="translate(125.034 127.815)" fill="#4285f4"/>
  <ellipse id="Ellipse_1083" data-name="Ellipse 1083" cx="3.81" cy="4.849" rx="3.81" ry="4.849" transform="translate(138.541 123.659)" fill="#4285f4"/>
  <path id="Path_24367" data-name="Path 24367" d="M463.66,328.344a6.914,6.914,0,0,1-.739,3.127,6.645,6.645,0,0,1-2.982,2.975,69.471,69.471,0,0,0-9.006-8.068,6.788,6.788,0,0,1,1.489-2.663,6.384,6.384,0,0,1,4.734-2.121A6.631,6.631,0,0,1,463.66,328.344Z" transform="translate(-355.522 -258.054)" fill="#fad46f"/>
</svg>
