<svg xmlns="http://www.w3.org/2000/svg" xmlns:xlink="http://www.w3.org/1999/xlink" width="195.481" height="189.3" viewBox="0 0 195.481 189.3">
  <defs>
    <linearGradient id="linear-gradient" x1="0.502" y1="1.014" x2="0.502" y2="0.014" gradientUnits="objectBoundingBox">
      <stop offset="0" stop-color="gray" stop-opacity="0.251"/>
      <stop offset="0.54" stop-color="gray" stop-opacity="0.122"/>
      <stop offset="1" stop-color="gray" stop-opacity="0.102"/>
    </linearGradient>
    <linearGradient id="linear-gradient-2" x1="1.068" y1="0.668" x2="1.068" y2="-0.332" xlink:href="#linear-gradient"/>
    <linearGradient id="linear-gradient-3" x1="2.842" y1="0.652" x2="2.842" y2="-0.351" xlink:href="#linear-gradient"/>
    <linearGradient id="linear-gradient-4" x1="1.073" y1="0.27" x2="1.073" y2="-0.729" xlink:href="#linear-gradient"/>
    <linearGradient id="linear-gradient-5" x1="0.251" y1="0.451" x2="0.251" y2="-0.549" xlink:href="#linear-gradient"/>
    <linearGradient id="linear-gradient-6" x1="5.173" y1="0.029" x2="5.173" y2="-0.871" xlink:href="#linear-gradient"/>
    <linearGradient id="linear-gradient-7" x1="0.5" y1="1" x2="0.5" y2="0" xlink:href="#linear-gradient"/>
  </defs>
  <g id="undraw_agreement_aajr" transform="translate(0 -0.013)">
    <g id="Group_12992" data-name="Group 12992" transform="translate(16.595 0.013)" opacity="0.5">
      <rect id="Rectangle_4087" data-name="Rectangle 4087" width="113.211" height="156.423" transform="translate(0 46.984) rotate(-24.52)" fill="url(#linear-gradient)"/>
    </g>
    <rect id="Rectangle_4088" data-name="Rectangle 4088" width="110.331" height="152.966" transform="translate(18.382 47.447) rotate(-24.52)" fill="#fff"/>
    <rect id="Rectangle_4089" data-name="Rectangle 4089" width="54.733" height="13.258" transform="translate(42.13 32.174) rotate(-24.52)" fill="url(#linear-gradient-2)"/>
    <path id="Path_29247" data-name="Path 29247" d="M420.576,59.351A7.836,7.836,0,1,0,430.788,63.3,7.744,7.744,0,0,0,420.576,59.351ZM425.7,70.59a4.522,4.522,0,1,1,2.14-5.944,4.469,4.469,0,0,1-2.14,5.946Z" transform="translate(-358.926 -50.324)" fill="url(#linear-gradient-3)"/>
    <rect id="Rectangle_4090" data-name="Rectangle 4090" width="53.58" height="12.675" transform="translate(42.657 31.943) rotate(-24.52)" fill="#021744"/>
    <path id="Path_29248" data-name="Path 29248" d="M421.825,61.733a7.491,7.491,0,1,0,9.923,3.707A7.491,7.491,0,0,0,421.825,61.733Zm4.9,10.747a4.321,4.321,0,1,1,2.138-5.726,4.321,4.321,0,0,1-2.138,5.726Z" transform="translate(-359.937 -52.18)" fill="#021744"/>
    <rect id="Rectangle_4091" data-name="Rectangle 4091" width="23.623" height="23.623" transform="translate(33.383 67.836) rotate(-24.52)" fill="url(#linear-gradient-4)"/>
    <rect id="Rectangle_4092" data-name="Rectangle 4092" width="23.623" height="23.623" transform="translate(52.883 110.393) rotate(-24.52)" fill="url(#linear-gradient-5)"/>
    <rect id="Rectangle_4093" data-name="Rectangle 4093" width="21.893" height="21.893" transform="translate(34.527 68.263) rotate(-24.52)" fill="#69f0ae"/>
    <rect id="Rectangle_4094" data-name="Rectangle 4094" width="21.893" height="21.893" transform="translate(53.775 110.458) rotate(-24.52)" fill="#e0e0e0"/>
    <rect id="Rectangle_4095" data-name="Rectangle 4095" width="30.009" height="2.094" transform="translate(70.355 59.349) rotate(-24.52)" fill="#e0e0e0"/>
    <rect id="Rectangle_4096" data-name="Rectangle 4096" width="49.549" height="2.094" transform="translate(71.66 62.207) rotate(-24.52)" fill="#e0e0e0"/>
    <rect id="Rectangle_4097" data-name="Rectangle 4097" width="46.059" height="2.094" transform="translate(72.961 65.064) rotate(-24.52)" fill="#e0e0e0"/>
    <rect id="Rectangle_4098" data-name="Rectangle 4098" width="30.009" height="2.094" transform="translate(89.604 101.547) rotate(-24.52)" fill="#e0e0e0"/>
    <rect id="Rectangle_4099" data-name="Rectangle 4099" width="49.549" height="2.094" transform="translate(90.908 104.402) rotate(-24.52)" fill="#e0e0e0"/>
    <rect id="Rectangle_4100" data-name="Rectangle 4100" width="46.059" height="2.094" transform="translate(92.21 107.261) rotate(-24.52)" fill="#e0e0e0"/>
    <path id="Path_29249" data-name="Path 29249" d="M194.7,308.516l5.129,1.666,1.688-9.872,2.5.683-2.808,12.2-7.736-3.391Z" transform="translate(-150.733 -233.963)" fill="url(#linear-gradient-6)"/>
    <path id="Path_29250" data-name="Path 29250" d="M198.221,311.7l4.46,1.447,1.467-8.584,2.169.594-2.441,10.612-6.726-2.947Z" transform="translate(-153.6 -237.274)" fill="#fff"/>
    <path id="Path_29251" data-name="Path 29251" d="M285.9,503.907l4.46,1.447,1.467-8.584,2.169.594-2.441,10.612-6.726-2.947Z" transform="translate(-221.912 -387.026)" fill="#fff"/>
    <rect id="Rectangle_4101" data-name="Rectangle 4101" width="70.002" height="23.333" transform="translate(85.926 146.929) rotate(-24.52)" fill="#e0e0e0"/>
    <path id="Path_29252" data-name="Path 29252" d="M664.01,629.848c-2.448-.7-4.953-.565-5.732,2.233-.263.943-.294,2.408-1.305,2.894-1.489.716-3.285-.716-4.577-1.3a4.742,4.742,0,0,0-6.273,1.937,10.947,10.947,0,0,0-1.25,3.808,8.154,8.154,0,0,1-.358,1.818c-.462,1.032-1.906.939-2.854.9a6.163,6.163,0,0,1-.632-.046,5.6,5.6,0,0,0,1.06-3.563c-.062-2.092-1.42-4.38-3.8-4.124a3.935,3.935,0,0,0-3.386,4.354,5.337,5.337,0,0,0,2.83,3.976c-.725.32-1.5.57-2.182.9a9.125,9.125,0,0,0-.93.519,7.709,7.709,0,0,0-6.651-.168c-.9.493-.243,1.957.663,1.46a5.475,5.475,0,0,1,4.464-.088l.124.044a3.994,3.994,0,0,0-.386.6c-.837,1.626,0,4.2,2.037,4.374,2.872.245,3.006-3.55,1.447-5.061-.066-.064-.133-.126-.2-.186.645-.312,1.343-.546,1.959-.808a8.143,8.143,0,0,0,1.524-.848l.11.029c2.193.5,5.617.652,6.406-2.006.676-2.306.74-7.2,4.385-6.75,1.487.183,2.706,1.325,4.12,1.738a3.884,3.884,0,0,0,3.769-.539,5.421,5.421,0,0,0,1.312-2.964,2.979,2.979,0,0,1,.713-1.593c.806-.7,2.138-.289,3.037-.033C664.436,631.633,665.006,630.131,664.01,629.848Zm-28.5,18.686c-.484.479-1,.1-1.255-.4a1.576,1.576,0,0,1,.221-1.747,3.027,3.027,0,0,1,.21-.252c.956.618,1.738,1.5.833,2.4Zm1.7-11.928a1.783,1.783,0,0,1,2.971.548,4.388,4.388,0,0,1-.5,4.175,3.366,3.366,0,0,1-.365.411,4.653,4.653,0,0,1-1.575-.9c-1.175-1.06-1.84-3.02-.523-4.241Z" transform="translate(-523.629 -495.052)" fill="#021744"/>
    <path id="Path_29253" data-name="Path 29253" d="M310.748,132.114l-17.831,6.952a51.222,51.222,0,0,1-17.411-4.462,27.557,27.557,0,0,0-24.3.183c-17.451.417-27.055-1.818-32.18-3.934l1.352-2.774-18.074-7.047L157.12,100.78v83l15.814,7.047,8.482-20.349,18.628,8.615,3.576-9.088,12.231,9.077.833.7-1.146,1.191a5.977,5.977,0,0,0,0,8.22h0a5.443,5.443,0,0,0,7.908,0l-.627.663a5.977,5.977,0,0,0,0,8.22h0a5.443,5.443,0,0,0,7.908,0l3.623-3.766h0l-2.487,2.584a5.977,5.977,0,0,0,0,8.219h0a5.443,5.443,0,0,0,7.908,0l3.576-3.718h0l-1.5,1.564a4.175,4.175,0,0,0,0,5.743,3.8,3.8,0,0,0,5.522,0l2.386-2.478c4.1,2.993,7.413,5.178,9.037,5.743,6.766,2.346,6.766-2.353,6.766-2.353,9.037,4.7,13.556-4.7,13.556-4.7,11.3,4.7,11.3-7.047,11.3-7.047,2.823,1.957,4.86,1.06,6.282-.663a7.654,7.654,0,0,0,.844-8.281l10.8-9.978L313,188.5l18.628-8.615,8.482,18.8,12.492-5.578V110.977Z" transform="translate(-157.12 -83.129)" fill="url(#linear-gradient-7)"/>
    <path id="Path_29254" data-name="Path 29254" d="M558.607,349.124,538.943,366.6,523.65,338.2l34.957-8.739Z" transform="translate(-407.978 -256.674)" fill="#be7c5e"/>
    <path id="Path_29255" data-name="Path 29255" d="M367.488,231.69s6.311,8.739,43.7,6.554l21.849,32.772,14.641,16.472a6.965,6.965,0,0,1,.172,9.138c-1.372,1.593-3.344,2.43-6.075.607,0,0,0,10.923-10.923,6.554,0,0-4.369,8.739-13.108,4.369,0,0,0,4.369-6.554,2.185s-41.513-30.585-41.513-30.585L354.38,268.834Z" transform="translate(-310.806 -185.122)" fill="#fda57d"/>
    <path id="Path_29256" data-name="Path 29256" d="M569.459,257.232a50.842,50.842,0,0,1-18.776-4.239,27.423,27.423,0,0,0-26.207,1.694c-6.384,4.12-11.915,10.941-11.811,22.207,0,0,8.5,8.739,17.477-8.739H536.7s6.311,21.849,24.033,19.66,21.849-4.369,21.849-4.369Z" transform="translate(-434.126 -199.739)" fill="#be7c5e"/>
    <rect id="Rectangle_4102" data-name="Rectangle 4102" width="10.815" height="16.993" rx="5.408" transform="translate(73.798 96.456) rotate(45)" fill="#be7c5e"/>
    <rect id="Rectangle_4103" data-name="Rectangle 4103" width="10.815" height="16.993" rx="5.408" transform="translate(66.756 88.203) rotate(45)" fill="#be7c5e"/>
    <rect id="Rectangle_4104" data-name="Rectangle 4104" width="10.815" height="18.538" rx="5.408" transform="translate(83.628 101.916) rotate(45)" fill="#be7c5e"/>
    <rect id="Rectangle_4105" data-name="Rectangle 4105" width="7.552" height="12.359" rx="3.776" transform="translate(90.062 110.778) rotate(45)" fill="#be7c5e"/>
    <path id="Path_29257" data-name="Path 29257" d="M642.1,276.44l-19.662,8.739L602.77,237.114l17.479-6.554Z" transform="translate(-469.621 -179.62)" fill="#fff"/>
    <path id="Path_29258" data-name="Path 29258" d="M108.25,226.982l19.662,8.739,19.664-48.065L130.1,181.1Z" transform="translate(-84.338 -141.086)" fill="#fff"/>
    <path id="Path_29259" data-name="Path 29259" d="M9.34,92.09l43.7,19.662L24.635,177.3,9.34,170.742Z" transform="translate(-7.277 -71.738)" fill="#e0e0e0"/>
    <path id="Path_29260" data-name="Path 29260" d="M725.6,141.54,681.9,161.2l28.4,65.542,15.293-6.554Z" transform="translate(-531.271 -110.264)" fill="#4d8af0"/>
  </g>
</svg>
