<svg xmlns="http://www.w3.org/2000/svg" width="731.092" height="455.733" viewBox="0 0 731.092 455.733">
  <g id="Group_13204" data-name="Group 13204" transform="translate(0 0)" opacity="0.15">
    <path id="Path_26017" data-name="Path 26017" d="M213.163,188.64a2.948,2.948,0,0,1,.337-.184,3.477,3.477,0,0,0-.436-.031C213.1,188.495,213.125,188.569,213.163,188.64Z" transform="translate(-62.552 -95.939)" fill="#808184"/>
    <path id="Path_26018" data-name="Path 26018" d="M216.28,191.118c2.391-1.889-.323-7.3-3.553-7.084-.83,1.8.235,4.51,2.2,5.619a3.138,3.138,0,0,0-1.224.265A4.2,4.2,0,0,1,216.28,191.118Z" transform="translate(-62.759 -97.402)" fill="#808184"/>
    <path id="Path_26019" data-name="Path 26019" d="M226.964,215.52a2.487,2.487,0,0,0-2.075-2.647l.512,2.451-1.358-1.012A3.17,3.17,0,0,0,226.964,215.52Z" transform="translate(-58.954 -87.802)" fill="#808184"/>
    <path id="Path_26020" data-name="Path 26020" d="M187.034,166.3c-.384-1.342.916-2.316,2.208-2.4s2.682.345,3.942.141,2.352-1.5,1.651-2.758a8.346,8.346,0,0,1,4.93,1.178q.142-.616.285-1.232a3.314,3.314,0,0,0,4.525-2.455c.141-1.025-.514-2.484-1.563-2.524-.62-.024-1.04.469-1.546.748s-1.41.169-1.59-.462c-.121-.431.2-.774.267-1.186.155-1-1.133-1.8-2.151-2.194l-4.861-1.875a1.513,1.513,0,0,0-1.249-.116c-.614.376-.157,1.41.095,2.2a2.963,2.963,0,0,1-4.01,3.6,10.307,10.307,0,0,1,.295,3.336,19.584,19.584,0,0,1-4.389-.9c-.457,1.182-.84,4.113.253,5.458C184.47,165.276,187.191,166.85,187.034,166.3Z" transform="translate(-71.861 -108.373)" fill="#808184"/>
    <path id="Path_26021" data-name="Path 26021" d="M229.579,148.409c1.1.516,2.192,1.014,3.305,1.534a11.862,11.862,0,0,0-.806,5.518,2.243,2.243,0,0,0,.9.255v.035c.024-.005.045-.023.069-.029a2.074,2.074,0,0,0,.253.021v-.128a2.706,2.706,0,0,0,.468-.2,4.111,4.111,0,0,1-.537-2.087,4.78,4.78,0,0,1,.069-.814v-.073a5.8,5.8,0,0,1,1.386-2.914,6.768,6.768,0,0,0,1.71-2.171c.257-.869-.677-1.8-1.338-1.134-.065-.78-.113-1.561-.177-2.34a1.809,1.809,0,0,1-1.9-1.05v.012a2.165,2.165,0,0,1-.065-1.831,2.826,2.826,0,0,0-3.176-.205l1.483,5.018c-1.193-.177-2.371-.353-3.564-.514-.532.357-.4,1.267.08,1.869A4.951,4.951,0,0,0,229.579,148.409Z" transform="translate(-57.887 -111.917)" fill="#808184"/>
    <path id="Path_26022" data-name="Path 26022" d="M221.45,143.732l1.259.153a7.639,7.639,0,0,0,.276-4.262,4.562,4.562,0,0,1-4.759.295C217.705,141.461,219.794,142.994,221.45,143.732Z" transform="translate(-60.89 -112.18)" fill="#808184"/>
    <path id="Path_26023" data-name="Path 26023" d="M201.3,146.991a3.062,3.062,0,0,0,1.394.489,2.306,2.306,0,0,0,.774-.185l5.013-1.843.848-.629a2.963,2.963,0,0,0,.165,1.835,5.461,5.461,0,0,0,4.368-5.558l-2.8-.492a2.976,2.976,0,0,1-4.542,2.455,5.373,5.373,0,0,0-1.233-.644,2.61,2.61,0,0,0-.862-.024l-4.349.375a2.136,2.136,0,0,0-.973.241c-.661.432-.552,1.561,0,2.318A6.276,6.276,0,0,0,201.3,146.991Z" transform="translate(-63.15 -111.852)" fill="#808184"/>
    <path id="Path_26024" data-name="Path 26024" d="M220.279,168.339c.873,1.216,1.309,2.834.7,3.961a2.146,2.146,0,0,1-3.433.187c-.964-1.07-.111-3.033-1.315-3.783-1.029-.641-1.886.684-1.806,1.822l.14,2.283c.9-.577,2.176.937,2.187,2.1s-.558,2.216-.284,3.389c.4,1.711,2.851,2.795,4.012,1.773a1.679,1.679,0,0,1-.469-2.391,4.507,4.507,0,0,1,2.215-1.16,2.471,2.471,0,0,0,1.826-1.587c.212-.968-.462-2.218.036-3.029.309-.5,1.006-.686,1.182-1.267.28-.924-.981-1.887-1.991-2S221.25,168.8,220.279,168.339Z" transform="translate(-62.115 -102.623)" fill="#808184"/>
    <path id="Path_26025" data-name="Path 26025" d="M223.714,168.576c.464-.42-.12-1.288-.66-1.8a7.764,7.764,0,0,0-2.324-1.713,1.846,1.846,0,0,0-2.328.488,2.813,2.813,0,0,0-.225,1.3q-.044,2.565-.089,5.129c-.536-1.311-.488-2.723-1.068-4.022s-2.336-2.427-3.211-1.578q-.138,2.579-.277,5.157c-.428-.593-1.326-.081-1.277.6a5.066,5.066,0,0,0,.94,1.922,4.141,4.141,0,0,1,.336,3.607c-1.518.232-2.987-1.387-3.867-2.876s-1.79-3.239-3.361-3.805l3.587.74q-.01-1.19-.02-2.38l-3.785-.69a2.186,2.186,0,0,1-1.222-.508c-.825-.837.041-2.009.961-2.406s2.1-.949,1.842-2.039a21.917,21.917,0,0,1-5.094.926,2.722,2.722,0,0,1,1.871-3.424l-6.126.385a4.966,4.966,0,0,0-4.709,4.919c1.722.383,3.849,1.033,5.018,2.762a16.489,16.489,0,0,1-9.546-1.3c1.711.62,2.143,3.1,3.683,4.186,1.16.818,2.608.608,3.873,1.185a7.978,7.978,0,0,1,2.895,2.894,3.421,3.421,0,0,1,.76,1.634c.032.574-.464,1.113-1.018.885-.706-2.531-4.528-3.821-5.955-2.013a5.59,5.59,0,0,0-6.467.381c.087,1.4,1.735,2.411,3.117,2.632s2.79.021,4.124.622,2.376,2.574,1.394,3.373c-.522.425-1.342.3-2.029.445s-1.291.924-.79,1.55l4.717.429c2.379.217,4.883.412,6.835-.62a10.469,10.469,0,0,0,3.135-3l.22,2.879c.8-.477,2.186.361,2.29,1.385a7.261,7.261,0,0,1-.205,1.449,2.868,2.868,0,0,0,1.717,2.682,1.971,1.971,0,0,0,2.6-.9,5.96,5.96,0,0,1-2.55-4.233,11.123,11.123,0,0,0,7.589,1.991c-2.4-3.265-4.958-7.191-4.052-10.637.88.612,1.7-.453,1.821-1.417s.224-2.207,1.173-2.327c.323-.04.7.071.965-.095.8-.505-.778-1.845-.75-2.864s1.718-1.37,1.331-2.4l3.251.609A1.149,1.149,0,0,0,223.714,168.576Z" transform="translate(-71.17 -105)" fill="#808184"/>
    <path id="Path_26026" data-name="Path 26026" d="M210.773,147.978c-.6.244-.776,1.034-1.352,1.321-.768.383-2.021-.231-2.564.421a3.082,3.082,0,0,0-.349,1.133c-.365,1.242-2.288,1.643-3.4,1.673,2.106,2.624,4.016.661,6.429,1.847,1.427.7,1.879,2.539,2.1,4.057a9.345,9.345,0,0,0-3.089-2.7,3.287,3.287,0,0,0-3.536.133,2.378,2.378,0,0,0,.163,3.391,3.939,3.939,0,0,0,1.474.75,10.988,10.988,0,0,0,5.539.324l3.9,2a4.808,4.808,0,0,0,2.945.8,1.384,1.384,0,0,0,.7-2.279,2.435,2.435,0,0,0,2.591-2.475.957.957,0,0,1-1.293.4,2.224,2.224,0,0,1-.841-2.522,17.689,17.689,0,0,1,1.231-2.256,2.408,2.408,0,0,0-.228-2.624,4.4,4.4,0,0,0-3.6.976,1.9,1.9,0,0,0-.665,1.058c-.3,1.677,2.252,3.936,1.094,5.051-2.56.544-5.906-2.2-5.724-4.906.077-1.153.7-2.136.69-3.307S211.783,147.567,210.773,147.978Z" transform="translate(-65.831 -109.422)" fill="#808184"/>
    <path id="Path_26027" data-name="Path 26027" d="M217.423,155.06a2.69,2.69,0,0,1,.129.929A.726.726,0,0,0,217.423,155.06Z" transform="translate(-61.122 -107.042)" fill="#808184"/>
    <path id="Path_26028" data-name="Path 26028" d="M214.581,146.1l.713-.765a8.67,8.67,0,0,0,1.947,3.86,4.522,4.522,0,0,1,4.906-3.112,13.916,13.916,0,0,0-7.794-3.631A4.211,4.211,0,0,1,214.581,146.1Z" transform="translate(-62.135 -111.238)" fill="#808184"/>
    <path id="Path_26029" data-name="Path 26029" d="M224.8,162.827c-.288.389-.928.315-1.324.592s.024,1.194.356.957a2.415,2.415,0,0,0,2.456.868,1.825,1.825,0,0,0,1.076-2.218l2.77.241a1.829,1.829,0,0,1-.272-2.383c.429-.684,1.12-1.177,1.4-1.957.694-1.963-1.974-4.452-4.081-4.2a3.289,3.289,0,0,1-4.174,4.3C222.742,160.374,225.578,161.782,224.8,162.827Z" transform="translate(-59.305 -107.159)" fill="#808184"/>
    <path id="Path_26030" data-name="Path 26030" d="M223.23,176.762a2.828,2.828,0,0,0-.733,1.373,4.9,4.9,0,0,1-5,3.073c1.14.377,1.327,2.008.974,3.044s-.937,2.168-.345,3.263a3.171,3.171,0,0,0,2.739,1.394l0-2.463a10.511,10.511,0,0,0,4.288.46c.733-2.722-2.011-6.3-.777-8.758a1.331,1.331,0,0,0,.256-.945A.953.953,0,0,0,223.23,176.762Z" transform="translate(-61.105 -99.87)" fill="#808184"/>
    <path id="Path_26031" data-name="Path 26031" d="M225.846,173.647c1.244.241,1.735,2.247,2.974,2.588.566-1.881,4.835.093,4.967-1.941.061-.961-1.022-1.725-1.871-2.352s-1.677-1.9-1.014-2.492a2.757,2.757,0,0,0-4.017.73,5.509,5.509,0,0,1-.489,1.04,1.507,1.507,0,0,1-2,.157c-1.5,2.124-1.2,5.555.705,7.974l.606-1.749a5.534,5.534,0,0,1-1.184-2.4C224.426,174.352,225.005,173.484,225.846,173.647Z" transform="translate(-59.157 -102.435)" fill="#808184"/>
    <path id="Path_26032" data-name="Path 26032" d="M231,163.175a1.848,1.848,0,0,0-2.582,1.618l-.347-.064q.038,1.236.073,2.47l3.489.608Q231.312,165.491,231,163.175Z" transform="translate(-57.635 -104.388)" fill="#808184"/>
    <path id="Path_26033" data-name="Path 26033" d="M224.214,314.191a2.157,2.157,0,0,0,1.994-.083c-1.07-1.945-3.749-1.543-5.767-2.3a15.2,15.2,0,0,1-3.751-2.638,33.608,33.608,0,0,0-5.231-3.2,16.275,16.275,0,0,0-4.4-1.794c-.123,2.01,1.941,1.846,3.708,2.3a1.734,1.734,0,0,1,1.157.682c.283.505-.027,1.034-.016,1.571.024,1.175,1.494,1.984,2.666,2.135s2.452.065,3.435.876a8.369,8.369,0,0,1,1.563,2.36c.488.813,1.377,1.625,2.184,1.429a.992.992,0,0,1,.373-1.647A3.835,3.835,0,0,1,224.214,314.191Z" transform="translate(-64.537 -57.413)" fill="#808184"/>
    <path id="Path_26034" data-name="Path 26034" d="M217.579,305.373a4.691,4.691,0,0,1-.616-1.767c-.179-.6-.728-1.284-1.283-1.166-.46.1-.573.725-.348,1.2a3.374,3.374,0,0,0,1.1,1.157l-1.677-.342A2.1,2.1,0,0,0,217.579,305.373Z" transform="translate(-62.001 -57.998)" fill="#808184"/>
    <path id="Path_26035" data-name="Path 26035" d="M225.616,318.111c1.39-.157.546-2.546,1.27-3.672.239-.37.65-.585.9-.945.613-.874.023-2.382-1-3.108a4.214,4.214,0,0,0-3.364-.562q-.1-2.025-.2-4.053c-.524.5-1.349-.624-1.473-1.428s-.7-1.975-1.374-1.679c.716-1.044-.079-2.8-1.285-3.671a4.626,4.626,0,0,0-3.873-.876,1.977,1.977,0,0,0,1.057,1.554,11.68,11.68,0,0,1,2.388,1.132c1.7,1.455.713,4.362,2.322,5.919.375.363.878.633,1.084,1.1.256.584-.085,1.184.088,1.786.264.918,1.469,1.27,2.065,2.065.809,1.079.2,2.383-.12,3.525S224.426,318.247,225.616,318.111Z" transform="translate(-61.855 -59.476)" fill="#808184"/>
    <path id="Path_26036" data-name="Path 26036" d="M231.816,316.636a3.852,3.852,0,0,1-2.155-2.28c-2.171-1.309-5.006-.159-5.274,2.139l1.711.364-.418,0,3.842,2.832a1.33,1.33,0,0,0,.453.252c.844.2.636-1.164.669-2A1.416,1.416,0,0,1,231.816,316.636Z" transform="translate(-58.845 -54.211)" fill="#808184"/>
    <path id="Path_26037" data-name="Path 26037" d="M229.961,315.94a2.925,2.925,0,0,0,1.367.252A1.724,1.724,0,0,0,229.961,315.94Z" transform="translate(-57.012 -53.516)" fill="#808184"/>
    <path id="Path_26038" data-name="Path 26038" d="M217.257,313.835a7.587,7.587,0,0,0-3.832.714l4.013,1.935.312-.112a3.9,3.9,0,0,0,2.6.16A3.712,3.712,0,0,0,217.257,313.835Z" transform="translate(-62.438 -54.217)" fill="#808184"/>
    <path id="Path_26039" data-name="Path 26039" d="M191.255,343.527a.733.733,0,0,0-.6.4l-.337-2.707q.008,2.059.017,4.118a5.309,5.309,0,0,0,.581,2.883c.552.885,1.845,1.445,2.471.824a1.482,1.482,0,0,1,1.232-1.642,5.369,5.369,0,0,1,2.384.233l-4.061-3.28A2.854,2.854,0,0,0,191.255,343.527Z" transform="translate(-69.563 -45.086)" fill="#808184"/>
    <path id="Path_26040" data-name="Path 26040" d="M374.839,255.915a4.318,4.318,0,0,0,.327-3.046Q375,254.393,374.839,255.915Z" transform="translate(-9.508 -74.491)" fill="#808184"/>
    <path id="Path_26041" data-name="Path 26041" d="M333.449,236.761c-.844,1.562-.208,3.961,1.418,3.42.705.505,1.833-.452,2.215-1.383a7.52,7.52,0,0,1,1.23-2.735c.408-.405.953-.637,1.346-1.058a4.524,4.524,0,0,0,.85-2.462,11.294,11.294,0,0,1,1.914-4.526,2.686,2.686,0,0,1,.93-.906c2.078-1.014,2.115,3.663,4.285,3.451a3.392,3.392,0,0,1-2.832,1.741q-.078,2.707-.159,5.413c-.011.4-2.278.2-2.523.136.745,1.65,1.5,3.316,2.242,4.943,1.57-3.772,4.037-3.592,7.48-4.522,3.263-.881,5.564-5.294,4.184-8.023a3.1,3.1,0,0,1-3.688-1.385,4.007,4.007,0,0,1,.774-4.277,4.055,4.055,0,0,1-4.389-4.534,2.588,2.588,0,0,0,2.644-2.791,4.813,4.813,0,0,1-4.974-2.508c-.315-.633-.536-1.4-1.177-1.689-1.168-.526-2.586.865-3.485,2.067-.964,1.288-1.953,3.125-1.02,4.105a10.7,10.7,0,0,0,1.116.74c1.5,1.226.031,3.977-1.421,5.774a1.17,1.17,0,0,1,1.479.958c-.709,1.257-2.547.513-3.788,1.23-1.427.825-1.19,2.839-1.7,4.38C335.85,233.966,334.293,235.2,333.449,236.761Z" transform="translate(-23.238 -87.777)" fill="#808184"/>
    <path id="Path_26042" data-name="Path 26042" d="M361.982,255.539c-.017.521-.027,1.042-.081,1.567l1.987-1.4A2.443,2.443,0,0,1,361.982,255.539Z" transform="translate(-13.753 -73.602)" fill="#808184"/>
    <path id="Path_26043" data-name="Path 26043" d="M360.787,255.2a3.212,3.212,0,0,0,1.609,2.122,19.636,19.636,0,0,0-1.045-7.154A10.74,10.74,0,0,0,360.787,255.2Z" transform="translate(-14.16 -75.389)" fill="#808184"/>
    <path id="Path_26044" data-name="Path 26044" d="M367.964,257.506a5.819,5.819,0,0,0,6.612.829l-3.349-.089,5.366-1.05C374.545,255.123,370.6,255.264,367.964,257.506Z" transform="translate(-11.777 -73.539)" fill="#808184"/>
    <path id="Path_26045" data-name="Path 26045" d="M363.4,248.078l.112,1.27,1.571-.391q.012-1.315.024-2.631-1.893.316-3.787.636A1.237,1.237,0,0,0,363.4,248.078Z" transform="translate(-13.962 -76.668)" fill="#808184"/>
    <path id="Path_26046" data-name="Path 26046" d="M328.814,205.466a11.879,11.879,0,0,1,6.159-8.988c-1.989,1.25-4.02-.288-5.614-1.5s-4.532-1.747-5.632.331a10.639,10.639,0,0,0-.521,1.554,4.406,4.406,0,0,1-4.725,2.842,3.2,3.2,0,0,1-1.777-4.5l-2.9,1.978a3.322,3.322,0,0,0-.59,1.419,3.111,3.111,0,0,1,3.484,2.526,11.668,11.668,0,0,1-.324,5.073C320.372,203.694,325.342,203.4,328.814,205.466Z" transform="translate(-29.746 -94.112)" fill="#808184"/>
    <path id="Path_26047" data-name="Path 26047" d="M313.629,196.393l.036-.025.007-.011Z" transform="translate(-29.577 -93.299)" fill="#808184"/>
    <path id="Path_26048" data-name="Path 26048" d="M313.661,196.692l1.622-1.341A3.58,3.58,0,0,0,313.661,196.692Z" transform="translate(-29.569 -93.633)" fill="#808184"/>
    <path id="Path_26049" data-name="Path 26049" d="M364.091,149.147c.776-1.284,1.061-2.847,2.151-3.892,1.3.561,1.03,2.567.484,4.088s-1.146,3.4-.131,4.358c.445.42,1.15.578,1.41,1.148a4.517,4.517,0,0,1,.069,1.673c.053,1.741,2.335,2.566,3.824,1.383.24-1.827-2.007-2.684-2.142-4.456-.112-1.481,1.26-2.886,1.766-4.39.433-1.285.224-2.632.756-3.894s2.5-2.188,2.976-1.084c-.954,3.061.43,6.3,3.111,7.27,1.145-3.6.4-7.6-2.319-9.466-1.184-.81-2.672-1.2-3.731-2.162a3,3,0,0,1-.36-4.136c.882-.115,1.453.648,2.055,1.189,1.657,1.486,4.256,1.487,6.66,1.423a13.892,13.892,0,0,1,1.714-7.632c.077-.115.152-.233.232-.344l-.067.005c.028-.049.047-.1.075-.152-3.818,1.857-8.234,1.643-11.18-.54,1.317.976-5.111,7.51-5.9,7.964a22.39,22.39,0,0,1-1.028-2.047c-1.945,2.158-4.879,12.756-3.808,14.784C361.31,151.378,363.315,150.431,364.091,149.147Z" transform="translate(-14.256 -115.536)" fill="#808184"/>
    <path id="Path_26050" data-name="Path 26050" d="M341.326,203.38a10.572,10.572,0,0,1-9.428.025l4.634-.673q-2.121-3.175-4.245-6.348a4.3,4.3,0,0,1,5.383,5.814,3.869,3.869,0,0,0,3.862-.111c1.445-3.973-.4-8.326-4-9.42A2.222,2.222,0,0,1,341.055,194a3.068,3.068,0,0,0,1.673-3.432,2.221,2.221,0,0,0-3.193-1q.182-2.075.363-4.152a5.161,5.161,0,0,0,5.432,2.475q-.074-2.475-.147-4.947l3.232-.215c-1.438.129-1.838-1.965-.914-3.236a7.408,7.408,0,0,1,3.91-2.3,2.039,2.039,0,0,0,2.254,2.583c1.319-2.24-1.745-4.629-3.691-2.875q-1.391-4.186-2.781-8.373c2.138-1.184,4.79-.721,5.958,1.038a6.423,6.423,0,0,0-3.287-6.258l3.325-4.594a1.666,1.666,0,0,1-1.547-2.663q.81-1.559,1.618-3.119c3.4-6.548,6.888-13.229,12.026-18.669a16.241,16.241,0,0,0-10.423-1.2c1.409,1.228-.809,3.817-2.768,4.737s-4.556,2.43-4.189,4.373c-1.835-.716-.49-3.88,1.331-5.265s4.246-2.622,4.666-4.763a28.784,28.784,0,0,0-9.769,4.609l2.96-2.526a22.6,22.6,0,0,0-11.773,3.044c.95-3.747,5.485-5.768,9.172-6.082s7.494.241,11-1.573a7.758,7.758,0,0,0-7.624-2.9l2.727-2.5-13.109,1.142c-.918-2.067,2.615-4.168,4.917-3.854s4.823,1.4,6.905-.187l-11.566-2.03a7.259,7.259,0,0,0-4.354.169c-1.811.817-2.981,2.8-4.678,3.9s-4.493.141-3.559-1.653a4.5,4.5,0,0,0-2.8,4.28,3.282,3.282,0,0,1,2.888,4.433l-4.369-4.232a4.26,4.26,0,0,1-2.644,3.093,49.463,49.463,0,0,1,1.685,10.389c-3.567-1.4-5.459-5.642-4.364-9.787q-.612,2.453-1.222,4.906c-2.48,1.97-6.225-.139-5.487-3.091l-2.9,5.568a14.358,14.358,0,0,0-.221-6.652,17.385,17.385,0,0,1-6.476,3.252q-.444,2.469-.889,4.938l-3.16-4.162a5.252,5.252,0,0,0,.64-2.279,4.507,4.507,0,0,1,3.817.458q-1.11-1.459-2.222-2.919l1.8-.985c.495-1.719-1.137-3.083-2.831-2.981s-3.332,1.177-4.855,2.211c-.473-.5.4-1.425,1.148-1.61s1.654-.217,2.1-.9c.712-1.09-.821-1.955-2.019-1.669s-2.6.973-3.457.284q-.154-.93-.309-1.861c-.2-.94-1.741-.328-2.4.54s-1.391,2.05-2.354,1.961a3.271,3.271,0,0,1,.976-3.028,3.773,3.773,0,0,0-4.478-.313c.464,1.534.232,4.114-1.442,4.246q.188-1.581.377-3.163c-2.09-.209-4.13,3.019-2.9,4.586a8.819,8.819,0,0,0-8.606,1.667l-.252,2.4a6.525,6.525,0,0,1,.113-4.457,4.252,4.252,0,0,0-2.544.056c-.941,1.8-.232,4.032,1.453,4.58a3.178,3.178,0,0,1-3.123,1.339,2.023,2.023,0,0,0-2.728-2.579l.54,1.567a6.153,6.153,0,0,0-3.491.105c-1.16.482-2.166,1.91-1.729,2.944a4.947,4.947,0,0,1,2.828.54q-1.447,1.162-2.9,2.322a6.8,6.8,0,0,1,4.862-1.1c1.445.281,2.583,2.1,1.666,3.232a1.979,1.979,0,0,1-.032,3.009l6.043-2.76a3.07,3.07,0,0,0,1.522-1.146c.311-.568-.029-1.379-.624-1.189a3.392,3.392,0,0,1,4.506,2.668l-5.031,1.475a3.43,3.43,0,0,0,1.534,3.059c-3.016-.316-7.038,2.47-8.976.351a11.359,11.359,0,0,0-1.626,5.039q-.64-2.321-1.278-4.64l-4.376-.7a19.5,19.5,0,0,1,.191,8.971,11.858,11.858,0,0,1,1.422,3.257,2.372,2.372,0,0,1-2.086-2.694,20.677,20.677,0,0,0-6.756,6.409l3.882-.621a8.872,8.872,0,0,0-.2,6.977c-.458-1.053,1.254-3.535,1.938-4.266-1.589,5.91,2.5,2.207,4.506.718s9.766-3.54,9.59-5.867a6.585,6.585,0,0,1-4.677-3.89,2.487,2.487,0,0,0,2.271-1.406c.826,1.04,2.546-.692,3.309-2.054s2.987-2.674,3.248-1.3q.468.878.933,1.757a3.643,3.643,0,0,0,2.842-3.932l2.178,2.452a11.715,11.715,0,0,1,.794-5.808l3.011-.417q.286.722.57,1.441c2.468.176,5.206-2.522,5.123-5.049a3.118,3.118,0,0,0,3.136-.606,29.644,29.644,0,0,0-7.73,1.173,6.162,6.162,0,0,1,2.383-2.622c1.473-.942,3.3-2.332,3.005-3.876,1.142-.093,1.579,1.661.61,2.444a4.139,4.139,0,0,0,2.651.288c.926-.291,1.777-1.441,1.385-2.22a2.1,2.1,0,0,1,2.764.746q-.42,3.415-.837,6.829c-3.752-.546-8.173,1.489-10.73,4.939l4.478,1.6a11.37,11.37,0,0,0-1.79,5.17l-3.271.909q-.086,1.607-.172,3.213a18.786,18.786,0,0,0-14.049,2.914c-1.769,1.9.641,4.23,2.9,4.568s5.255.89,5.033,3.293a8.687,8.687,0,0,1-7.015-1.054A4.761,4.761,0,0,0,270.972,171l-.83-.192-.317.469.384,5.1a1.165,1.165,0,0,0,.237.761c.26.253.713.184,1.109.1l8.685-1.842a11.372,11.372,0,0,1,1.546.937c3.825,2.822,4.525,8.366,4.985,13.445.364,4.026.4,8.883-2.9,11.9l2.132,1.67a6.218,6.218,0,0,1,2.744-2.876,10.633,10.633,0,0,0,1.99,8.029l-5.706-3.579a10.86,10.86,0,0,0,.872,8.525,4.241,4.241,0,0,0-.976-3.6c1.31,1.4,6.492,1.681,4.857,5.75-1.174,2.92-3.117,1.256-5.123,2.826-5.908,4.624-6.307,13.279.112,16.106a3.534,3.534,0,0,0-3.229,3,22.453,22.453,0,0,0,7.677,11.566q.074-1.8.147-3.592.9,3.247,1.8,6.492a17.867,17.867,0,0,1,6.836.064c-1.693-2.163-.853-5.744.737-8.554s3.842-5.3,5.165-8.217c1-2.212,1.426-4.576,2.476-6.773s3.043-4.358,5.3-4.542c-2.039,1.625-2.964,4.588-2.081,6.661l7.53-8.912a28.859,28.859,0,0,1,6.287-6.072c3.312-2.089,7.124-2.555,10.669-3.989S341.372,207.009,341.326,203.38Z" transform="translate(-51.461 -119.033)" fill="#808184"/>
    <path id="Path_26051" data-name="Path 26051" d="M256.385,134.588c-1.183.629-1.166,2.907.083,2.558a3.354,3.354,0,0,1,2.244-2.595A2.756,2.756,0,0,0,256.385,134.588Z" transform="translate(-48.636 -113.948)" fill="#808184"/>
    <path id="Path_26052" data-name="Path 26052" d="M257.913,134.515a8.107,8.107,0,0,1,1.118.522,1.623,1.623,0,0,0,.321-.329,1.315,1.315,0,0,0-.6-.272A1.947,1.947,0,0,0,257.913,134.515Z" transform="translate(-47.847 -113.912)" fill="#808184"/>
    <path id="Path_26053" data-name="Path 26053" d="M240.1,152.029a3.323,3.323,0,0,0,2.791,3.492,4.9,4.9,0,0,0,4.576-2.458,8.852,8.852,0,0,1,1.339-2.247c1.613-1.5,4.59-.353,5.671-2.248l-1.545-.3a3.223,3.223,0,0,1,.5-3.925,2.846,2.846,0,0,0,.549-.664c.658-1.363-2.186-2.065-1.418-3.383.307-.525.976-.642,1.531-.828s1.2-.782.969-1.251a1.147,1.147,0,0,1-1.263-1.1,9.379,9.379,0,0,1,.157-2.021,2.9,2.9,0,0,0-1.034-2.747,2.2,2.2,0,0,0-2.876.705c1.17,1.721-.858,4.979-3.071,4.933l.492.869c-.64-.159-1.025.95-.825,1.581s.521,1.431-.033,1.949c-.469.436-1.118.22-1.683.159a3.256,3.256,0,0,0-2.816,1.369,1.734,1.734,0,0,0,.3,2.414,3.938,3.938,0,0,0,2.547.5,2.289,2.289,0,0,1,1.45.217c.584.425.488,1.443-.007,2.143C244.769,151.5,242.266,150.37,240.1,152.029Z" transform="translate(-53.702 -114.693)" fill="#808184"/>
    <path id="Path_26054" data-name="Path 26054" d="M259.761,246.463a1.275,1.275,0,0,0-.352-1.9,1.355,1.355,0,0,0-1.621,1.213,4.638,4.638,0,0,0,.338,1.018,1.25,1.25,0,0,1,.007.536A2.032,2.032,0,0,0,259.761,246.463Z" transform="translate(-47.889 -77.272)" fill="#808184"/>
    <path id="Path_26055" data-name="Path 26055" d="M265.882,248.251c-.678-.744-2.047-.268-3.033.387s-2.029,1.5-3.093,1.426a3.727,3.727,0,0,0-.794-3.184,1.975,1.975,0,0,1-2.073,1.294c1.1,1.913-2.946,5.09-1.577,6.792l.008-.048a1.129,1.129,0,0,0,.856.784,1.937,1.937,0,0,0,2-1.926,5.685,5.685,0,0,1,2.78-.277q0-1.106.005-2.208c.922.608-.041,2.411.569,3.34.6.906,2.115.344,3.211-.275C263.893,252.56,267.192,249.686,265.882,248.251Z" transform="translate(-48.804 -76.484)" fill="#808184"/>
    <path id="Path_26056" data-name="Path 26056" d="M257.731,246.6a2.991,2.991,0,0,1,.329.369,1.566,1.566,0,0,0,.092-.34A1.627,1.627,0,0,1,257.731,246.6Z" transform="translate(-47.906 -76.576)" fill="#808184"/>
    <path id="Path_26057" data-name="Path 26057" d="M232.3,217.806a1.715,1.715,0,0,0-.628-.273l.061-.015a1.652,1.652,0,0,0-.668-2.094,2.5,2.5,0,0,0-1.713,2.1l1.325.229c-.021.019-.053.021-.073.041l.129-.031,1.565.269v.013l.036-.007.312.053a1.376,1.376,0,0,0-.108-.089l.115-.02A.831.831,0,0,0,232.3,217.806Z" transform="translate(-57.212 -86.953)" fill="#808184"/>
    <path id="Path_26058" data-name="Path 26058" d="M242.324,198.884a1.785,1.785,0,0,0,2.014-1.254,12.005,12.005,0,0,0-4.121-1.642l.66,4.092Z" transform="translate(-53.652 -93.421)" fill="#808184"/>
    <path id="Path_26059" data-name="Path 26059" d="M260.488,191.628c-1.613.188-3.677-.916-2.71-2.36,1-.289,2.017-.565,3.016-.854a1.644,1.644,0,0,0-1.049-2.459,2.307,2.307,0,0,0-2.322,2.038c-2.031-.207-2.29-2.838-2.548-4.873-.257-2.051-2.015-4.289-3.871-2.979a3.855,3.855,0,0,1,.323,2.895c-1.322.476-2.628.948-3.934,1.4-1.629-.373-3.58-1.287-3.144-3.073.532-2.271,4.677-3.969,3.58-5.727a1.81,1.81,0,0,0-1.742-.6,8.279,8.279,0,0,0-7.064,6.439,17.97,17.97,0,0,1,.322,5.83c-.612.108-1.225.2-1.838.292a3.241,3.241,0,0,0-2.935-2.224c.08-1.837.145-3.687.225-5.539a15.678,15.678,0,0,1,7.854-6.707c-1.161-1.246-2.726-2.6-4.548-1.859a5.443,5.443,0,0,0-2.081,1.8,35.421,35.421,0,0,0-3.177,5.253c-.117.227-.248.468-.368.7-1.181,1.821-2.372,3.639-3.551,5.461,1.032.037,2.065.073,3.112.113a8.011,8.011,0,0,1,.4,1.021v.019c.048.125.075.261.116.391a7.865,7.865,0,0,1,.207.924v-.073a7.042,7.042,0,0,1-.113,2.867,1.979,1.979,0,0,0-.2-.152,7.863,7.863,0,0,0-3.344-2.191c.048,1.041.081,2.094.129,3.135.88-.694,2.258.117,3.209,1.186v.011c.013.011.024.024.037.036.1.112.2.225.285.343v-.075a2.294,2.294,0,0,1,.209.2c.886,1.037,1.774,2.428,3.257,2.231,1.194-.145,2.178-1.27,3.339-1.749s2.66.658,1.774,1.59a3.943,3.943,0,0,0,3.934-.517,11.109,11.109,0,0,1-1.29-4.433,6.075,6.075,0,0,1,3.08,4.489,5.47,5.47,0,0,0,.549,2.274,1.3,1.3,0,0,0,2.063.039c-1.032,2.5,3.291,3.048,3.741,5.452.211,1.157-.548,2.419-.854,3.651-.5,2.039.275,3.982-.177,6.03-.436,2.029-3.435,3.96-4.306,2.307,0,1.469-.016,2.939-.016,4.406a11.7,11.7,0,0,1-7.853.079,4.209,4.209,0,0,0,1.613,3.7c1.5-4.683,6.756.324,7.273-.686-1.5,2.958,1.048,5.622,3.371,7.244,1.29.9,2.6,1.8,3.886,2.718,1.322-3.313-4.468-5.776-2.291-8.691,3.161-.816,5.161,2.315,6.339,5.042,1.757-4.793.032-10.068-3.952-12.075.565.191,1.226-.554,1.29-1.2a7.635,7.635,0,0,0-.291-1.819,3.87,3.87,0,0,1,3.08-3.9,2.568,2.568,0,0,1,2.823,3.083c.936-1.262,2.692.073,2.58,1.545-.113,1.454-.984,3.011-.613,4.349q2.975-4.008,5.967-8.018a21.147,21.147,0,0,1-11.16-8.563,2.886,2.886,0,0,0,2.419-3.411,2.244,2.244,0,0,0,2.822-.127c.323-1.169.4-2.587-.484-3.156s-2.66.9-1.951,1.683a1.7,1.7,0,0,1-2.354-1.5c1.274-.466,2.547-.917,3.821-1.367C264.311,191.342,262.1,191.426,260.488,191.628Z" transform="translate(-57.388 -101.717)" fill="#808184"/>
    <path id="Path_26060" data-name="Path 26060" d="M236.813,162.133c-1.072.189-3.842,4.2-4.121,5.362a1.931,1.931,0,0,0,1.427,2.3,4.44,4.44,0,0,0,3.1-.61c.33-.179.71-.387,1.016-.267.442.173.351.841.512,1.3.305.861,1.5.866,2.462.588s2-.728,2.828-.379c.554.235.877.785,1.337,1.16,1.594,1.3,4.245.245,6.382-.83q.1-1.623.205-3.245c.68.3,1.647-.56,1.67-1.363a1.568,1.568,0,0,0-1.4-1.507,5.826,5.826,0,0,0-2.378.279l-2.8.718a3.13,3.13,0,0,1-1.745.119.961.961,0,0,1-.514-1.4l-5.39.882c-.365.06-.8.088-.961-.213-.139-.263.024-.622.105-.945A1.553,1.553,0,0,0,236.813,162.133Z" transform="translate(-56.152 -104.696)" fill="#808184"/>
    <path id="Path_26061" data-name="Path 26061" d="M248.42,155.122a1.7,1.7,0,0,0-.271-2.618,4.7,4.7,0,0,0-2.952-.239c-.738.609-.143,1.685.61,2.006s1.753.553,1.839,1.413c-.159-1.563-6.649,4.715-7.077,6.4,1.565.844,4.59,1.385,6.142-.657-.109-.4-.219-.793-.328-1.188,1.8-.448,3.417.379,4.87,1.184a2.346,2.346,0,0,1,.789.594,5.086,5.086,0,0,1,.462,1.12,2.588,2.588,0,0,0,3.08,1.393,3.961,3.961,0,0,0,2.73-2.887,1.937,1.937,0,0,0-.084-1.2c-.7-1.465-3.065-.275-4.794-.147a.867.867,0,0,1-.738-.2c-.665-.792,1.713-1.953,1.426-2.991-.144-.522-.856-.52-1.422-.436l-3.5.522A1.842,1.842,0,0,0,248.42,155.122Z" transform="translate(-53.55 -108.011)" fill="#808184"/>
    <path id="Path_26062" data-name="Path 26062" d="M245.25,174.1c-1.2.774-1.619,2.87-.418,3.212l.037-.179a4.662,4.662,0,0,0,4.513-1.8c.341-.439.6-1.088.271-1.417a1,1,0,0,0-.549-.212A5.221,5.221,0,0,0,245.25,174.1Z" transform="translate(-52.376 -100.897)" fill="#808184"/>
    <path id="Path_26063" data-name="Path 26063" d="M237.345,152.062a3.557,3.557,0,0,0,1.95-3.433,2.349,2.349,0,0,0-2.747-1.923,1.473,1.473,0,0,0-.856.405,1.757,1.757,0,0,0-.376.88,7.715,7.715,0,0,0,.516,4.775Z" transform="translate(-55.312 -109.834)" fill="#808184"/>
    <path id="Path_26064" data-name="Path 26064" d="M233.115,156.573l-.489.083c-.921.137-1.078,1.654-.406,2.164s1.669.442,2.488.72a3.087,3.087,0,0,1,1.69,3.966c.788,1.014,2.917-.329,2.887-1.721s-1.593-2.1-2.983-1.711c.221-1.245.425-2.6-.171-3.565A1.831,1.831,0,0,0,233.115,156.573Z" transform="translate(-56.413 -106.814)" fill="#808184"/>
    <path id="Path_26065" data-name="Path 26065" d="M235.846,154.888l1.114-.055.616.369c.753.369,1.862-.642,1.835-1.541a1.7,1.7,0,0,0-1.743-1.515,6.742,6.742,0,0,0-2.684.653A2.331,2.331,0,0,0,235.846,154.888Z" transform="translate(-55.372 -108.014)" fill="#808184"/>
    <path id="Path_26066" data-name="Path 26066" d="M233.384,317.01l.071.257q.054.982.107,1.963a4.389,4.389,0,0,0,4.514-.239A3.381,3.381,0,0,0,233.384,317.01Z" transform="translate(-55.893 -53.248)" fill="#808184"/>
    <path id="Path_26067" data-name="Path 26067" d="M246.6,325.2c.984-.083,1.245-1.65.724-2.4s-1.43-1.266-1.506-2.238a2.542,2.542,0,0,0-.1-.966c-.434-.822-1.971.163-2.747-.331-.622-.4-.364-1.415-.374-2.216s-1.032-1.515-1.478-.769l-.244-1.443c-1.271.157-1.411,2.086-1.058,3.247a1.4,1.4,0,0,1,2.251.477,7.277,7.277,0,0,0,.2,1.042c.484,1.072,2.655.593,2.76,1.825a2.031,2.031,0,0,0-.968,2.294,1.37,1.37,0,0,0,1.342.8l-1.434.329q-.482,2.255-.962,4.509a1.591,1.591,0,0,0-.023.9c.3.729,1.617.219,1.926-.612a2.955,2.955,0,0,0-.381-2.342q1.663-.42,3.324-.842A3.345,3.345,0,0,0,246.6,325.2Z" transform="translate(-53.841 -53.866)" fill="#808184"/>
    <path id="Path_26068" data-name="Path 26068" d="M352.758,420.488a20.955,20.955,0,0,1-10.982-3.724c-3.241,3.039-7.789-2.207-11.466.183-.145,1.4-.291,2.776-.436,4.173-1.29.5-1.386-1.513-1.354-2.842.08-3.433-4.306-5.273-7.273-3.023a23.786,23.786,0,0,1-1.581,6.262c-1.354,1.319-2.935-.918-2.306-2.642s2.145-3.329,2.064-5.057a1.457,1.457,0,0,0-2.355-1.133,6.661,6.661,0,0,1-5.483,5.918,7.005,7.005,0,0,1-.886-4.214c2.322-.893,5.273-2.719,4.886-5.006a5.07,5.07,0,0,0-.9-1.807,25.813,25.813,0,0,0-1.822-3.5,2.69,2.69,0,0,0-3.661-.564,8.332,8.332,0,0,0-.564-3.061c-3.645.61-7.305,1.24-10.95,1.866a2.531,2.531,0,0,0-1.451-3.324,8.155,8.155,0,0,0-4.112-.1c.564-.357,1.129-.732,1.693-1.1a5.232,5.232,0,0,0-6.063-.8c-.854-2.768-2.694-6.024-5.708-5.058-2.4.777-4.63,4.036-6.577,4.286a2.287,2.287,0,0,1-1.213-.705c-.273-.968-.548-1.935-.806-2.884-1.983.005-3.966.027-5.966.044a3.9,3.9,0,0,0,.016-2.11,15.758,15.758,0,0,0-10.4,3.988c-.741.66-1.483,1.319-2.242,1.959-.95.027-1.9.052-2.87.059.774-1.332-1.467-3.145-3.08-2.995-1.6.155-2.887,1.233-4.516,1.285-1.629.068-3.725-2.027-2.726-3.189-1.338-.431-2.678-.876-4-1.318-1.613-1.946-3.209-5.034-1.451-6.223a8.738,8.738,0,0,1,1.694-.637c1.661-.674,2.258-2.988,1.241-4.8s-3.483-2.743-5.063-1.925c1-1.1-1.483-2.842-2.951-2.407-1.467.419-2.9,1.585-4.436.766a6.4,6.4,0,0,0,2.258-2.763,3.225,3.225,0,0,0-1.225-3.571c.92.017,1.838.049,2.758.083a6.066,6.066,0,0,1,2.145-6.684,34.11,34.11,0,0,1-7.725-1.685c-2.419,3.281-2.676,8.267-.677,12.571-1.129-.183-2.258-.381-3.371-.561.033-1.737.065-3.456.113-5.19a19.277,19.277,0,0,1-10.966-5.046,7.644,7.644,0,0,1-2.128-2.842c-.709-1.965-.532-4.885-2.5-5.311,3.966-.849,4.709-7.1,1.193-10.159a6.476,6.476,0,0,1,3.886,1.153,5.443,5.443,0,0,1,2.467-6.629c2.128-1.269,4.854-1.385,7.484-1.486a4.759,4.759,0,0,1,3.208.694c1.823,1.418,2.065,5.057,4.177,5.091,1.887-.522-.452-4.982,1.549-5.226.645-.08,1.29.469,1.935.825,1.854,1.036,3.886.474,5.854.629s4.516,2.038,3.918,3.819c1.145-1.056,3.323.764,3.709,2.492s-.113,3.416.371,5.13a5.577,5.577,0,0,0,4.774,3.921,50.364,50.364,0,0,0-4.113-13.3,5.446,5.446,0,0,1-.677-2.152c0-3.483,6.355-1.33,8.209-3.938.629-.873.613-2.166,1.29-2.981,1.274-1.55,4.145-.688,5.724-1.894a5.094,5.094,0,0,0,1.355-2.131c1.048-2.524,2.113-5.062,3.16-7.586a5.084,5.084,0,0,1-3.58-2.519,8.314,8.314,0,0,1,5.935,1.9c-1.113-1.987-.113-4.52,1.9-4.793,2.079-.295,4.9,1.4,6.24-.109a1.154,1.154,0,0,0,.1-.141v.031c.016-.027.02-.055.035-.081a1.817,1.817,0,0,0,.288-.653c.023-.088.011-.192.025-.284a4.349,4.349,0,0,0,.059-.672c0-.047,0-.091,0-.137-.009-.523-.076-1.056-.128-1.594l-.008-.1c-.017-.188-.028-.375-.035-.562a3.908,3.908,0,0,1,.085-.985v-.081a3.513,3.513,0,0,1,.112-.487c.517-1.51,2.048-2.49,3.452-3.3l8.8-5.133a4.438,4.438,0,0,1,1.822-.741c1.435-.076,2.178,1.617,1.774,3.073a7.446,7.446,0,0,1-1.725,2.836,15.6,15.6,0,0,1,6.031-3.949c2.274-.805,5.047-1.278,6.257-3.459a2.036,2.036,0,0,1-2.258-2.618c-2.112,1.873-5.1,3.044-7.273,2.025-2.178-1-2.516-4.782-.209-6.365.789-.542,1.967-1.089,1.854-1.955-2.855-.949-6.08,1.975-8.6,4.418s-6.419,4.825-8.611,2.874q5.006-4.9,10.015-9.8c.466-.453.918-.9,1.386-1.358,1.694-1.669,4.193-3.48,5.838-2.351-.532.529-.58.57-1.113,1.1,3.806-.622,7.628-1.345,11.45-2.067,1.065-.188,2.113-.389,3.161-.59a3,3,0,0,1-2.387-3.917,7.669,7.669,0,0,1,5.66,1.679c.79-1.623,1.581-3.245,2.371-4.885a12.434,12.434,0,0,1-1.146-5.153c-1.677.634-2.774,2.376-4.16,3.6-1.4,1.247-3.9,1.7-4.29.1-.387-1.625,1.839-3.033,3.564-3.628,1.71-.576,3.952-1.826,3.725-3.528a6.555,6.555,0,0,0-5.772,2.89,3.064,3.064,0,0,1,.95-3.732c-2.418.217-3.66-3.177-1.87-5.138a3.582,3.582,0,0,1-2.258-3.408,10.347,10.347,0,0,1-1.79-8.409,19.534,19.534,0,0,1-5,9.542,2.241,2.241,0,0,1-3.6-.284c-.694-1.169-.613-2.715-.856-4.108s-1.1-2.822-2.531-2.747a4.558,4.558,0,0,1,4.128-3.211,2.134,2.134,0,0,0-1.145-2.668c-.645,1.678-3.209,2.323-4.1,1.044,1.515-.944.339-3.188-1.242-3.409s-3.532.252-4.579-.837a9.651,9.651,0,0,1-1.129-2.236,1.548,1.548,0,0,0-2.177-.712,4.873,4.873,0,0,1-1.387,4.469c3.048.721-2.483,7.712.452,8.678l-1.865,1.866c-.8.528-1.607,1.046-2.426,1.574a20.879,20.879,0,0,1,.37,14.014l-4.353.393a15.657,15.657,0,0,0-2.71,13.521c-.113.609-1.145.185-1.451-.451-.291-.614-.323-1.362-.838-1.841-.774-.7-1.806-.157-2.758-.148a2.974,2.974,0,0,1-2.71-2.235,2.007,2.007,0,0,1,1.645-2.5,3.227,3.227,0,0,0-2.628-1.221c-.048-.832-.081-1.675-.129-2.507.984-.068,1.967-.12,2.935-.176-.048-1.4-.1-2.774-.145-4.153.822.886,2.049-.461,1.451-1.486a3.29,3.29,0,0,0-3.015-1.257,6.783,6.783,0,0,1-3.241-.217c-.985-.464-1.839-2.163-1.033-2.634-2.242-1.621-4.466-3.255-6.692-4.873l.048-3.523c-2.644.065-5.273.117-7.918.184a12.159,12.159,0,0,0,2.033-7.818,3.063,3.063,0,0,0-2.226,3.961c-1.387-2.34-2.5-5.085-1.822-7.4a3.546,3.546,0,0,1,5.822-1.474c-.259-1.319-.516-2.639-.774-3.974,3.225-1.818,6.435-3.639,9.66-5.457.1-.838.209-1.657.305-2.478-2.192.291-4.5-2.971-3.353-4.769a33.631,33.631,0,0,1,4.225,4.906c.661-.77,1.322-1.525,1.983-2.3,1.549,2.886,6,3.655,7.532,1.311a8.829,8.829,0,0,0-6.178-6.733,2.955,2.955,0,0,1-.321-2.25c1.08.191,2.176.368,3.257.558-.211,1.7,1.08,3.593,2.66,4.646a10.843,10.843,0,0,0,3.241,1.394,3.391,3.391,0,0,1,.161,1.818,1.906,1.906,0,0,1-2.758,1.3,5.6,5.6,0,0,0,1.694,4.073l2.063,1.218c1.113.616,2.242-.944,1.371-1.935.936-.432,2.161.413,2.967,1.313.806.917,1.565,2,2.662,2.356a1.343,1.343,0,0,0,1.322-.335v.037c.017-.023.027-.047.044-.071a1.228,1.228,0,0,0,.279-.422.806.806,0,0,0,.056-.325.678.678,0,0,0-.283-.682.166.166,0,0,1-.041.015,3.1,3.1,0,0,1-2.78-1.511,2.573,2.573,0,0,1,.1-2.983c-.969.41-2.226-.554-2.887-1.574A16.747,16.747,0,0,0,268,225.4c-.113-.116-.259-.191-.372-.291-.6-1.266-1.87-2.539-2.063-3.912a2.013,2.013,0,0,1,2.386-2.272,3.038,3.038,0,0,1,2.226,3.231c.452-1.017.9-2.05,1.354-3.083.6,1.491,1.178,2.964,1.775,4.457.728-.376,1.447-.793,2.145-1.234v.033c.025-.025.049-.052.075-.076.08-.052.168-.091.248-.143V222a41.49,41.49,0,0,0,3.548-3.886,2.743,2.743,0,0,0-3.064,1.4c-.806-2.228,1.161-5.414,3.66-5.952a6.255,6.255,0,0,1,1.306-4.454,2.757,2.757,0,0,1-3.708-3.023,2.65,2.65,0,0,0-2.064,1.282l-.009.016a2.915,2.915,0,0,0-.706,2.027,1.955,1.955,0,0,0,.716,1.811c.032.021.072.036.108.057.057.053.1.112.167.161l-.212.217c-2.27,1.5-4.552,2.988-6.82,4.468a2.261,2.261,0,0,1-.952.429c-1.838.24-2.532-2.931-1.645-4.484s2.322-3.348,1.193-5.1c-1.677-.085-.677,3.2-2.063,3.926-1.081.584-2.548-1.03-2.742-2.371s.241-2.683-.177-4.014c-.42-1.347-2.436-2.444-3-1.335a3.881,3.881,0,0,1-4.934,4.613c-.742,1.95-1.5,3.9-2.242,5.83a2.109,2.109,0,0,1-.549.9c-.757.608-2.16-.236-2.612-1.284a5.1,5.1,0,0,1,.016-3.141c.275-1.145,1.113-2.546,2.258-1.891a4.133,4.133,0,0,0-.355-3.095,2.991,2.991,0,0,0-1.5,1.961,2.4,2.4,0,0,1-1.6-1.442c-.613,1.182-1.226,2.38-1.822,3.581a13.472,13.472,0,0,1-1.258-5.093,2.947,2.947,0,0,0-.888,3.989,10.534,10.534,0,0,1-4.627-1.9,2.013,2.013,0,0,1,1.225-2.348c-2.354-1.722-4.838-3.627-6-6.251a4.068,4.068,0,0,1-5.354,2.2,9.647,9.647,0,0,0,.71,4.205,4.184,4.184,0,0,0-3.516,4.766,24.877,24.877,0,0,1,.016-9.463,6.46,6.46,0,0,1-2.6-2.667,3.523,3.523,0,0,0-1.565,1.078,16.105,16.105,0,0,1-5.886-2.021c-1.806-1.19-3.257-3.381-2.919-5.289,1.386.986,2.87,2.038,4.45,2.188,1.565.147,3.129-1.061,2.726-2.648-2.435-.2-5.063-.474-7.208-2.046s-3.355-4.962-1.71-6.477c-3.984-2.928-8.934-2.591-13.32-2.107a5.959,5.959,0,0,1,4.321-5.818c1.162-.5-.918-2.468-2.031-1.874-1.129.574-1.6,2.057-2.839,2.386-1.725.438-3.709-1.573-5.531-1.394a4.545,4.545,0,0,0-2.435,1.57,2.789,2.789,0,0,1-2.758.853c-1.049-.379-1.581-2.182-.6-2.412l4.129.438a1.913,1.913,0,0,1,2.483-1.691,19.933,19.933,0,0,0-6.869-1.307l-3.484,4.03c-.645.741-1.5,1.525-2.564,1.177-1.113-.391-1.6-1.8-1.87-2.943q-1.09-4.594-2.146-9.151a34.555,34.555,0,0,0-5.724,4.6,8.772,8.772,0,0,1,3.016-6.9c-1.419-2.041-4.161-2.12-6.451-2.556-2.29-.42-5.193-2.624-4.386-4.628-1.565-1.212-3.145-2.426-4.709-3.636.08-.825.145-1.651.225-2.492a35.684,35.684,0,0,0-7.66-1.867,4.2,4.2,0,0,1,.58-2.38,1.778,1.778,0,0,0,2.791-1.25,2.526,2.526,0,0,0-2.678-2.359c-.145,1.765-2.145,2.574-3.951,2.142a12.97,12.97,0,0,1-4.887-2.941c-.016,1.819-.048,3.652-.08,5.485a2.933,2.933,0,0,1-3.1-2.8c-2.628,2.972-6.628,4.4-10.708,5.111-.161-1.19-.323-2.4-.5-3.588-1.324.332-2.662.66-3.984.992a3.663,3.663,0,0,1-2.274,4.662c3.048,1.8.92,6.677,3.176,9.479,1.4,1.73,3.79,1.861,5.79,1.811a4.112,4.112,0,0,0-1.419,4.715c-1.725.406-3.564-1.112-5.193-2.3-1.613-1.188-4.014-2.1-5.047-.713a2.7,2.7,0,0,1,1.629-3.664,6.764,6.764,0,0,1-2.887-3.105c-.257,3.841-5.225,4.3-9.111,3.909a43.1,43.1,0,0,1,4.241,3.7c-.452.662-.886,1.327-1.322,1.993a3.214,3.214,0,0,1-2.515-2.556,2.192,2.192,0,0,0-.856,2.075,2.574,2.574,0,0,1,2.113,2.985A5.376,5.376,0,0,0,116.7,166.1a5.009,5.009,0,0,0,2.386,2c-.484,2.236-.952,4.477-1.418,6.716a1.347,1.347,0,0,0-1.935,1.787,10.2,10.2,0,0,1-6.821-1.831,4.227,4.227,0,0,0-.678,2.542,2.976,2.976,0,0,0-4.08,2.006c-.936-1.681-3.6-.586-3.451,1.23.161,1.818,1.79,3.331,3.305,4.565-1.435-.285-2.854-.584-4.289-.885.257,1.594.532,3.175.79,4.751a2.19,2.19,0,0,0,2.758-2.658,2.2,2.2,0,0,1,2.306.5c.016,1.745.032,3.505.048,5.266a3.565,3.565,0,0,1-3.015-1.37,3.887,3.887,0,0,0,.822,3.645,11.549,11.549,0,0,1,1.6,1.8c.388.713.179,1.741-.564,1.674,1.774,1.281,4.225,1.213,5.483-.145a5.887,5.887,0,0,1,3.741,3.643,13.214,13.214,0,0,1-7.032-.175c1.017,2.034-.966,3.764-2.822,4.469-1.854.721-3.886,1.75-3.693,3.913a180.871,180.871,0,0,0,20.965-7.916c-1.533-.673-3.08-1.349-4.629-2.025,3.339-2.718,7.661-4.02,11.886-5.291,1.967-.588,5.063-.509,5.627,1.686-1.9,1.842-5.257,2.025-7.917.427a7.9,7.9,0,0,0-.485,4.721c2.033-.336,4.081-.652,6.112-.988a2.629,2.629,0,0,1,3-2.39,10.985,10.985,0,0,1,4.45,1.673,14.745,14.745,0,0,0-1.87,5.62c2.064,1.8,5.127,2.082,6.919.624,1.386,1.55,4.064,1.345,4.643-.359a121.224,121.224,0,0,0,2.387,12.9c.259-1.663.5-3.313.758-4.962a18.813,18.813,0,0,1,1.9,6.819c.129-2.574.243-5.15.372-7.724.516-.328,1.257.319,1.709.882a9.69,9.69,0,0,1,2.21,3.889c.291,1.422-.484,2.979-1.871,2.911.758.424,1.5.845,2.258,1.269a4.567,4.567,0,0,1-2.951,5.447c2.678-.609,4.6,3.455,5.1,6.381.434,2.592.177,6.095-2.371,5.984.291.809.581,1.634.87,2.443a1.4,1.4,0,0,0,2.049-.7c.225.652.452,1.321.661,1.97-1.145.46-2.306.917-3.451,1.359,1.79.961,3.773,2.132,4.5,4.034.725,1.886-1.178,4.066-2.807,2.8a3.393,3.393,0,0,0,3.661,2.258,121.877,121.877,0,0,0,5.338,11c-1.065.28-2.128.544-3.193.808a5.279,5.279,0,0,1,.693,2.96,1.4,1.4,0,0,1-2.145.961c1.354-1.954.854-4.994-.564-7.405a26.652,26.652,0,0,0-5.66-6.191c-.549-.484-1.113-.97-1.662-1.47,1.242,2.3,2.468,4.6,3.709,6.9.629.191,1.274.385,1.9.577,1.016,1.953.677,4.1.307,6.052-.677,3.557-1.354,7.1-2.048,10.653a3.49,3.49,0,0,1-1.1,2.323,9.622,9.622,0,0,1-2.049.638c-1.581.592-2.178,2.6-1.694,4.41a9.564,9.564,0,0,0,3.355,4.656,3.422,3.422,0,0,0-1.935,4.272,5.019,5.019,0,0,0,4.193,3.48,3.381,3.381,0,0,1-4.016.889c3.129,4.212.629,11.189,5.1,13.784,1.064.622,2.306.777,3.305,1.5,3.145,2.312,1.049,7.441,3.629,10.412.564.648,1.29,1.114,1.854,1.762a9.438,9.438,0,0,1,1.694,4.056A43.019,43.019,0,0,0,180.8,346.1q-2.153-4.974-4.306-9.919c-.225-.54-.452-1.064-.677-1.587-1.129-2.586-2.242-5.151-3.516-7.666-.79-1.574-1.629-3.109-2.531-4.639A5.428,5.428,0,0,0,171,319.151c2.339,1.783,4.613,3.684,6.789,5.664-1.919,2.258-.468,6.272,1.661,9.082s4.935,5.257,6.194,8.462a18.14,18.14,0,0,0,1.467,3.693c.741,1.132,2.306,1.987,3.257,1.333a1.965,1.965,0,0,1-1.951,2.059,9.092,9.092,0,0,0,3.048,4.31c-1.935-.437-1.678,2.947-.016,4.238s3.95,1.826,5.063,3.6c.032,1.232-.1,2.16-.064,3.392l5.175-.733a2.985,2.985,0,0,1,.6,2.638,20.469,20.469,0,0,1,8.661,5.575c.032-.962.064-1.909.1-2.871,1.1-1.08,3.161.606,3.984,2.2.806,1.61,1.645,3.66,3.305,4.033a3.735,3.735,0,0,1,2.71-2.618c.048,2.314.1,4.645.145,6.96l5.113.465a3.242,3.242,0,0,0,.419-1.586,4.44,4.44,0,0,0,.758,1.827c2.047.36,4.08.718,6.128,1.064-.984.729-1.967,1.443-2.952,2.157a11.972,11.972,0,0,1,7.241,10.211,27.891,27.891,0,0,0,8.693,2.323c.241-.78.484-1.559.741-2.336,2.646-1.1,4.742,5.964,7.161,5.843.354,2.755.08,5.723-1.661,7,.9.8,1.806,1.625,2.708,2.428-1.451.5-3,1.084-3.773,2.4a3.238,3.238,0,0,0,1.37,4.306c-1.822-.58-3.644-1.16-5.482-1.726a8.737,8.737,0,0,1-2.807,6.956c.516-.2,1.033-.4,1.549-.613a5.34,5.34,0,0,1,2.4,3.988,2.72,2.72,0,0,0,.4,1.813c.516.574,1.338.477,2.048.538.709.044,1.661.648,1.467,1.29a37.665,37.665,0,0,1-9.015-1.654,13.552,13.552,0,0,0,2.161,4.349c1.081,1.254,2.807,2.123,4.145,1.633-1.225,2.719-.113,6.641,2.532,8.865a7.715,7.715,0,0,1,1.419,1.331c.9,1.272.434,2.818.466,4.244a3.369,3.369,0,0,0,1.694,2.732c-.42.024-.854.044-1.274.051a19.922,19.922,0,0,0,7.5,4.6,5.035,5.035,0,0,0,.806,5.626,2.945,2.945,0,0,1,3.58-2.159c.195,1.276.613,2.818.79,4.09l3.484,3.034a12.122,12.122,0,0,0,1.225,8.569c-.629,1.793-1.273,3.6-1.9,5.39,2.176.416,2.467,3.6,2.031,5.648q-1.571,7.389-3.128,14.767c1.37-.451,3.064,1.153,3.371,2.723a6.859,6.859,0,0,1-.952,4.268q-1.427,2.965-2.855,5.947a5.419,5.419,0,0,0-.757,3.221c.193,1.178,1.37,2.451,2.467,2.258a14.3,14.3,0,0,0-.258,8.453,6.477,6.477,0,0,1,4.145.553,3.171,3.171,0,0,1,1.129,1.3v.025c.035.059.051.125.08.187a2.719,2.719,0,0,1,.2.829,1.805,1.805,0,0,1-.259.946,1.088,1.088,0,0,1-.3.279c-.564.336-1.354.213-1.919.533-.968.57-.757,2.107-.452,3.339.877.127,1.766.243,2.646.365v.005l.015,0,.308.043v-.109c1.41-.3,2.832-.6,4.241-.913a5.776,5.776,0,0,1-.275,3.241,6.439,6.439,0,0,0-4.21-.528,7.057,7.057,0,0,0-1.5-.1c-.322,1.1-.645,2.208-.984,3.311a2.127,2.127,0,0,0-2.742-1.177c-.081,1-.145,1.99-.225,2.976a12.942,12.942,0,0,0,4.4,1.323,5.271,5.271,0,0,0-1.4,3.3c.047,1.246,1.194,2.687,2.371,2.635v.041l.08-.041c.021,0,.043,0,.065,0,.064.092.128.184.177.273v-.021a1.881,1.881,0,0,1-.308,1.906,1.393,1.393,0,0,1-1.466.4,2.891,2.891,0,0,1,1.451,1.97v.045a7.359,7.359,0,0,1,.193.746c.049.244.093.489.129.729v-.081c.027.152.057.308.08.453.243,1.474,1.678,3.043,2.919,1.938.049,1.458.1,2.9.145,4.36l5.209-.628c1.565.58,1.355,2.842,1.5,4.59.128,1.751,2.015,3.5,3.337,2.073.307-.764.613-1.511.9-2.256.6,2.6,4.209,3.467,6.547,1.555a16.491,16.491,0,0,1-7.692-4.74c-.984-1.1-2.4-2.4-3.822-1.907a2.561,2.561,0,0,0,0-3.048c-.741-1-1.742-2.3-.87-3.507,2,.325,3.773-2.246,4.3-4.388s.694-4.589,2.387-6.146c-.209-.8-.436-1.617-.645-2.419-2,1.837-5.338,1.265-5.983-1.025,1-.466,2.017-.92,3.032-1.389.774-1.491-2.015-1.611-2.644-2.936-.629-1.293,1.161-2.9,2.66-3.5s3.4-1.326,3.757-2.888c-.886.076-1.758.149-2.628.239,1.6-2.007-2.1-3.372-2.4-5.656-.291-2.191,3.1-3.981,4.919-2.964a3.03,3.03,0,0,0,.482,2.108l3.339-.88c-3.048-.994-1.129-7.9,2.178-9.366-.452.853-.9,1.691-1.355,2.544a44.937,44.937,0,0,0,11.014-6.135q-2.685-2.841-5.37-5.664c.275-1.565.565-3.132.838-4.711a8.372,8.372,0,0,0,8.306,2.438,9.982,9.982,0,0,0-.742-4.659c1.581-.826,3.144-1.65,4.725-2.478-1.758-2.029.29-6.388,3.209-6.855a8.693,8.693,0,0,1,5.193-5.157q-1.112-2.635-2.226-5.269a3.394,3.394,0,0,1-.355-1.55c.227-2.071,3.177-2.624,5.129-2.4a6.3,6.3,0,0,1,1.677-3.2c2.371-2.934,6.112-6.286,8.87-4.691a8.554,8.554,0,0,1,4.016-4.1,48.556,48.556,0,0,1,3.661-15.562,19.645,19.645,0,0,1-2.4-8.01c.968.393,1.935.788,2.919,1.178,2.338-4.6,5.289-9.753,10.015-11.393C351.6,426.079,350.984,422.655,352.758,420.488Zm-84.036-19.147c-2.015.386-3.371-2.949-2.742-4.886.323-1.008.872-1.959,1.242-2.941A10.114,10.114,0,0,1,268.722,401.341Z" transform="translate(-99.717 -112.411)" fill="#808184"/>
    <path id="Path_26069" data-name="Path 26069" d="M402.379,193.936a3.719,3.719,0,0,0-1.994-1.519Z" transform="translate(-1.135 -94.61)" fill="#808184"/>
    <path id="Path_26070" data-name="Path 26070" d="M410.33,187.623a3.25,3.25,0,0,0,2.3-3.351q-1.879-1.405-3.757-2.814a15.777,15.777,0,0,0,1.471,7.58A2.183,2.183,0,0,1,410.33,187.623Z" transform="translate(1.635 -98.257)" fill="#808184"/>
    <path id="Path_26071" data-name="Path 26071" d="M421.624,178.016a5.587,5.587,0,0,0,.546,1.288c1.174,1.725,3.551.753,4.865-.413l.111-.271q-1.611-1.286-3.224-2.572a3.3,3.3,0,0,1-.99-1.068c-.616-1.287.774-2.239,1.173-3.436.495-1.481-.609-3.284-1.8-4.626s-2.611-2.676-3.011-4.34c1.523,4.272-.36,8.936-4.148,10.272A8.118,8.118,0,0,1,421.624,178.016Z" transform="translate(3.684 -104.54)" fill="#808184"/>
    <path id="Path_26072" data-name="Path 26072" d="M422.077,162.469c3.712.189,1.407-2.4,3.036-4.574,2.154-2.88,6.062-4.445,9.861-4.42a4.748,4.748,0,0,0-2.718-4.841,2.084,2.084,0,0,0-2.419,3.149c-2.364-.689-5.194-1.271-6.621.379C421.635,153.993,415.5,162.135,422.077,162.469Z" transform="translate(4.97 -109.22)" fill="#808184"/>
    <path id="Path_26073" data-name="Path 26073" d="M448.273,130.67c1.057-.649,2.5-.518,3.72-.878s2.266-1.7,1.506-2.949a3.928,3.928,0,0,0-.866-.9l-5.671-4.761a10.12,10.12,0,0,0,1.165,5.839A8.882,8.882,0,0,0,448.273,130.67Z" transform="translate(14.104 -118.319)" fill="#808184"/>
    <path id="Path_26074" data-name="Path 26074" d="M521.239,151.258a3.8,3.8,0,0,0,3.112.379v.1c.08-.052.156-.113.235-.169.06-.023.127-.031.184-.056v-.077a4.929,4.929,0,0,0,2.033-3.709,2.287,2.287,0,0,1-2.223.183,4.194,4.194,0,0,1-1.2-1.414,8.709,8.709,0,0,1-.645-4.113c-1.031-.149-2.081-.3-3.128-.454a4.927,4.927,0,0,1,2.58,2.438c-.71,1.15-2.662.305-3.87-.714s-2.726-2.286-3.984-1.766c2.065,2.622,4.129,5.259,6.176,7.878Z" transform="translate(36.198 -111.468)" fill="#808184"/>
    <path id="Path_26075" data-name="Path 26075" d="M454.763,134.34c1.541.993,3.315,1.593,4.631,2.9l3.053.71a14.249,14.249,0,0,1-3.677-7.994,10.583,10.583,0,0,0-3.627-1.47,2.542,2.542,0,0,0-2.9,1.467C451.77,131.5,453.222,133.348,454.763,134.34Z" transform="translate(15.819 -115.896)" fill="#808184"/>
    <path id="Path_26076" data-name="Path 26076" d="M464.128,136.155c.768,1.781-.592,3.82.621,5.385l-.928-.4a2.7,2.7,0,0,0,3.227.221,2.552,2.552,0,0,0,.482-3.125l2.206-.416q0-1.273,0-2.546a43.034,43.034,0,0,1-7.837-4.314c-.894.333-.606,1.8.1,2.658A12.41,12.41,0,0,1,464.128,136.155Z" transform="translate(18.835 -115.063)" fill="#808184"/>
    <path id="Path_26077" data-name="Path 26077" d="M510.049,322.124l.389,1.578a10.454,10.454,0,0,0,1.05,8.994,18.839,18.839,0,0,0,.992-6.023C512.488,324.91,511.808,322.551,510.049,322.124Z" transform="translate(34.754 -51.443)" fill="#808184"/>
    <path id="Path_26078" data-name="Path 26078" d="M512.618,333.812c-.594,1.335.536,3.393,2.089,3.8l.019-.149,1.566.232A4.176,4.176,0,0,0,512.618,333.812Z" transform="translate(35.606 -47.553)" fill="#808184"/>
    <path id="Path_26079" data-name="Path 26079" d="M488.8,329.663a9.6,9.6,0,0,0,.818,4.731l-.283.706a2.047,2.047,0,0,0,2.68,1.308,2.594,2.594,0,0,0,1.04-2.779C492.748,331.593,490.735,329.481,488.8,329.663Z" transform="translate(27.835 -48.937)" fill="#808184"/>
    <path id="Path_26080" data-name="Path 26080" d="M434.4,363.193a6.954,6.954,0,0,1-8.015-3.051c-.312,2.366-4.433,2.918-3.541,5.347.412,1.124,1.693,1.681,2.755,2.251s2.226,1.723,1.878,2.736c-.414,1.209-2.755,1.513-2.028,2.776a18.183,18.183,0,0,1-2.539-1.1c-.277,2.719-1.791,12.624,2.062,13.273l6.01,1.02q0-4.188.009-8.375a3.671,3.671,0,0,1,.542-2.4c.437-.508,1.155-.69,1.657-1.133a4.163,4.163,0,0,0,1-1.835q2.7-7.849,5.4-15.7C438.68,359.705,437.056,362.239,434.4,363.193Z" transform="translate(6.046 -39.835)" fill="#808184"/>
    <path id="Path_26081" data-name="Path 26081" d="M412.114,133.615a4.956,4.956,0,0,0,2.562.382c-.013-2.754-.2-5.919-2.328-8.037a7.55,7.55,0,0,1,.845,5.066l-.584-.013-1.625.382C410.644,132.132,411.3,133.185,412.114,133.615Z" transform="translate(2.307 -116.727)" fill="#808184"/>
    <path id="Path_26082" data-name="Path 26082" d="M417.9,126.993a3.4,3.4,0,0,0-1.046-3.569,4.524,4.524,0,0,0,.073,4.514Z" transform="translate(4.078 -117.571)" fill="#808184"/>
    <path id="Path_26083" data-name="Path 26083" d="M399.2,133.649a4.651,4.651,0,0,0,.291,1.226l.649-.918c.023,0,.045.005.067,0a1.611,1.611,0,0,0,.477-.123l-.5.489,3.273.486a9.2,9.2,0,0,1-.073-2.235,1.949,1.949,0,0,0,.956-.526,2.568,2.568,0,0,0,.117-2.937,7,7,0,0,1,.976-1.31l-1.9-.646a2.29,2.29,0,0,1-.265,1.675,4.217,4.217,0,0,0-3.587,2.36,5.287,5.287,0,0,0-.59.354,1.343,1.343,0,0,0-.6.778A1.385,1.385,0,0,0,399.2,133.649Z" transform="translate(-1.772 -116.328)" fill="#808184"/>
    <path id="Path_26084" data-name="Path 26084" d="M394.794,128.7c-1.05.564-.362,2.6.9,3.068a2.348,2.348,0,0,0,2.943-1.475,7.171,7.171,0,0,0,.18-3.405c-.111.72-1.47.788-2.4.477-1.082-.361-2.74-.044-2.213,1.009Z" transform="translate(-3.198 -116.419)" fill="#808184"/>
    <path id="Path_26085" data-name="Path 26085" d="M611.578,377.67a15.99,15.99,0,0,1-10.756-9.586,16.743,16.743,0,0,1,12.062-4.917l-1.4-3.913a31.477,31.477,0,0,0,13.047-3.413c4.886-3.523,7.4-10.336,5.644-15.315,1.645-1.064,3.305-2.147,4.951-3.212a11.2,11.2,0,0,0-4.322-6.495c.822-1.613,1.629-3.221,2.451-4.834-5.708-.929-6.515-10.221-1.21-14.026a19.761,19.761,0,0,0-8.8,5.1c-1.225-1.734-2.467-3.467-3.709-5.2,2.807-3.527,5.612-7.069,8.418-10.6.71,1.955,1.435,3.908,2.144,5.863.533-3.093,4.274-5.688,7.032-4.869.129,2.267.257,4.518.387,6.787,2.226-.087,4.452-.156,6.677-.243-.388,2.1-.758,4.326.032,6.074a3.268,3.268,0,0,0,4.983,1.218c3.692-3.071-2.339-7.425-1.485-11.9l-4.434.105q1.329-8.195,3.241-16.36c1.047,1.767,3.9,1.618,5.854.209a13.393,13.393,0,0,0,4.048-5.826c5.419-12.856,4.032-27.318-3.516-36.664a8.94,8.94,0,0,1-4.644,4.27,12.4,12.4,0,0,0-10.08-3.5c2.9-3.834,3.387-9.144,1.129-12.552,1.662-.938,3.323-1.877,4.967-2.811a31.473,31.473,0,0,1,3.064-9.893c6.274-.332,12.854-4.057,16.949-9.6a4.913,4.913,0,0,0,4.934,2.6c-2.742-3.241-1.4-9.476,2.646-12.416-.468-1.288-.92-2.579-1.387-3.884l6.935-2.092a2.916,2.916,0,0,0,3.355,4.085c1.79-4.089.968-8.782-1.951-11.252,2.983-1.252,6.37-.4,7.9,1.994-1,.918-2.015,1.839-3.031,2.76,2.387,10.641,1.225,22.651-3.241,33.84a56.243,56.243,0,0,1,12.707,16.354,28.207,28.207,0,0,0,.822-15.9c.92-.468,1.855-.94,2.791-1.41a36.851,36.851,0,0,0-5.242-13.7c-2.371-3.663-5.45-8.247-2.694-12.572l5.517-.247c-.533-1.245-1.049-2.492-1.565-3.724l10.321-2.254c.048-5.122.112-10.261.161-15.382q4.958-.7,9.933-1.4c-3.564-4.4-8.434-8.012-14.417-8.391-2.967-.187-7.225-1.855-5.177-4.474a8.108,8.108,0,0,0,8.241.451,12.007,12.007,0,0,0,.08-6.271,4.209,4.209,0,0,1-5.45-4.6c2.58-1.535,5.918-.7,6.919,1.731.419-1.38.822-2.742,1.241-4.121,2.4.48,4.806.942,7.225,1.419a5.626,5.626,0,0,0-4.113-6.516c1.9-1.867,2.532-4.9,1.435-6.881-1.79.461-3.58.938-5.354,1.4a5.105,5.105,0,0,1,1.21,5.447c-1.887-1.827-3.774-3.672-5.66-5.5a121.854,121.854,0,0,0-23.48,1.4c-3.387.517-7.225,1.467-9.419,4.436,2.13.753,4.274,1.519,6.4,2.274q-1.064,2.219-2.128,4.438c-5.4-2.418-12.95-.57-17.853,4.358.856,2.09-1.193,5.226-3.58,5.5-1.677-2.977-3.353-5.939-5.031-8.918q-4.45.5-8.9,1.022c.4,3.54-4.321,6.019-7.934,7.043-2.031.568-4.225,1.133-5.983.426a3.151,3.151,0,0,1-1.145-4.942,7.07,7.07,0,0,0-7,1.862c2.871,1.026-.081,7.045-2.935,5.986-.6-1.557-1.177-3.131-1.774-4.687-2.339.977-4.661,1.967-7,2.944,1.953,1.639,3.888,3.265,5.839,4.889-1.485.406-2.968.813-4.436,1.217a8.785,8.785,0,0,1-.37,6.468c-2.112-3.176-7.741-2.892-10.66.541.758,2.382,1.533,4.777,2.29,7.16a20.455,20.455,0,0,1-4.861-.091,28.58,28.58,0,0,1-11.589-10.387l5.419-.012c-2.919-5.385-9.4-8.9-14.755-8.021a11.271,11.271,0,0,1,5.838,6.126c-4.9-.865-9.822-1.715-14.723-2.564a4.116,4.116,0,0,0-3.725-4.026,2.819,2.819,0,0,0-2.306,4.044c-2.968-.765-5.935-1.514-8.9-2.279,3.321,4.166-.549,10.514-5.338,8.783,4.176-5.811-1.807-17.9,4.611-21.136-1.758-.648-3.532-1.3-5.29-1.931-.064-1.543-.112-3.084-.161-4.625a25.391,25.391,0,0,0-8.369-1.17c1.515,2.88-1.081,6.276-4.081,5.345.34-1.8.662-3.608,1-5.4A7.758,7.758,0,0,1,520,141.979c-1.565,1.966-.291,5.624,2.1,7.127a1.224,1.224,0,0,0-.9,1.275c.145,1.2,1.178,2.256,1.581,3.456.92,2.678-2.789,4.62-4.854,2.563.452-2.066-2.644-4.046-4.58-3.372s-2.806,2.779-3.516,4.718a9.974,9.974,0,0,0-7.514,8.931,10.03,10.03,0,0,1,5.579,6.58,5.442,5.442,0,0,1-4.5-3.583,6.31,6.31,0,0,1-7.773,2.9c.468,3.9,4.742,6.48,8.1,8.926,3.371,2.432,6.6,7.356,4.145,9.859,2.66,1.775,5.692,2.455,8.515,3.227a6.27,6.27,0,0,1-.92,1.627,23.405,23.405,0,0,0-6.58-2.063l-2.758-.437a15.466,15.466,0,0,1-2.226-7.376c-2.676-4.213-8.53-6.164-12.207-4.072a14.845,14.845,0,0,1,7.289,4.14c-3.87,1.173-9-1.184-11.337-5.191a37.918,37.918,0,0,0,5.5,14.241c1.177-.179,2.355-.359,3.548-.536,4.1,3.173,6.58,8.514,6.16,13.181-2.194-2.547-4.37-5.093-6.564-7.656q-1.4,5.7-2.789,11.377c-1.677-.36-3.355-.817-5-1.269-2.1-.58-4.193-1.174-6.272-1.751,1.209-3.93,10.9-.948,11.417-5.679a6.561,6.561,0,0,0-1.306-3.858c-4.386-7.063-11.707-15.03-8.757-21.573l-3.629-1.607c-4.337,4.734-3.918,13.484.9,19.4a28.981,28.981,0,0,1,8.886,8.55,61.1,61.1,0,0,1-21.336-11.2c.854,2.344,1.694,4.7,2.532,7.043-.129-.023-.259-.029-.388-.052-2.951-2.552-6.966-3.841-10.063-2.548-.291,2.819-4.789,3.171-6.419.513-1.563,1.707-3.128,3.4-4.693,5.091-1.386,1.5-2.951,3.075-5.127,3.127a4.762,4.762,0,0,1-3.693-2.07,18.466,18.466,0,0,0,1.806,2.8,13.922,13.922,0,0,0-9.644.025,10.069,10.069,0,0,1,1.194,8.322c-1.533-1.174-3.048-2.328-4.564-3.483a3.41,3.41,0,0,1,.564,3.1c-.693,1.635-3.209,1.9-4.709.492a7.648,7.648,0,0,1-1.693-2.912q-2.3-5.726-4.581-11.466c2.564,1.823,5.338,3.7,8.225,3.869,2.887.187,5.66-2.179,4.757-5.1-4.709.428-9.9-5.229-9.079-9.889a21.269,21.269,0,0,1-13-2.147,3.584,3.584,0,0,1,2.4-2.9,22.277,22.277,0,0,0-12.74-3.617c1.322,1.926-1.129,3.639-3.225,3.672-.048,0-.1,0-.145.005v-.089c-2.081.754-4.709,1.718-5.063,3.845-.161.98.29,1.915-.032,2.876-.854,2.65-5.935,2.434-6.258,5.118.549,1.145,1.1,2.307,1.645,3.468-1.483.713-2.983,1.445-4.466,2.158.6,3.992-1.517,8.734-5.1,11.446,1.419.669,2.823,1.341,4.241,1.994a52.743,52.743,0,0,0-14.24,7.961,11.639,11.639,0,0,1,5.983,1.22A4.623,4.623,0,0,1,370,227.471a21.094,21.094,0,0,1,.516,10.5,10.114,10.114,0,0,0,6.4-8.709,4.408,4.408,0,0,1,4.048,1.3,26.811,26.811,0,0,0,2.226,12.058c-2.694,1.942-6.4-.806-5.178-3.829a5.331,5.331,0,0,0-5.579,2.178c-1.29,1.807-1.322,4.313-.048,5.7,2.887,1.072,6,2.167,9.272,1.25s6.419-4.791,5.274-7.67c1.193-.354,2.4-.713,3.6-1.069-1.049-2.025-2.128-4.253-1.565-6.723s3.613-4.846,5.515-3.651a14.245,14.245,0,0,0-6.29-6.616,12.405,12.405,0,0,1,4.983-8.49,10.361,10.361,0,0,1,2.7-7.234,8.247,8.247,0,0,1,8.666-1.138c-1.919,2.838-3.839,5.692-5.758,8.531,1.193,1.065,2.4,2.132,3.612,3.217-3.321.59-5.063,4.606-3.5,8.042A21.261,21.261,0,0,1,411.626,224a5.748,5.748,0,0,1,3.822,2.142c1.483,2.358-.92,4.837-3.451,4.809-2.532-.011-5.1-1.4-7.661-1.641.92,1.065,1.839,2.147,2.758,3.212a4.472,4.472,0,0,0-2.129,5.527,5.136,5.136,0,0,1-4.241-.6c1.515,2.655-.677,5.476-3.289,6.1a10.342,10.342,0,0,1-1.323.2v-.075c-2.258,1.026-4.693,1.537-6.885,2.794-2.628,1.511-4.9,5.009-3.5,7.213a35.907,35.907,0,0,0-18.287-1.614c.323,1.427.645,2.854.968,4.3-1.1.37-2.193.725-3.289,1.1-1.5,6.426-7.966,12.081-14.256,12.48a9.73,9.73,0,0,0-.291,5.325l5.87-.7c-1.1,4.4,2.29,9.628-1.4,12.568-1.531,1.206-3.5,1.134-5.241,1-3.128-.239-6.24-.48-9.37-.7a57.549,57.549,0,0,0-1.048,17.1,11.535,11.535,0,0,1,4.934-.339c.1,1.225.484,2.527.677,3.687.774,4.685-4.064,10.376-8.886,10.468a5.755,5.755,0,0,1,1.775,6.784,21.292,21.292,0,0,1-11.611,7.095q-3.411,9.14-6.805,18.278c4.6,1.4,4.564,9.323-.065,12.3a68.246,68.246,0,0,0,20.013,24.532,7.484,7.484,0,0,1,1.209-4.616c3.516,1.073,7.612.028,11.482-1.009,1.565-.421,3.129-.842,4.693-1.246a15.07,15.07,0,0,1,9.258-5.439c2.58.674,3.805,3.409,5.934,4.873,2.146,1.461,6.677.1,6.387-2.658,1.677,1.542,3.371,3.081,5.047,4.625-2.678,1.069-2.887,5.734-.291,6.115-1.29,1.275-2.58,2.567-3.87,3.842a12.5,12.5,0,0,1,7.5,6.226l-2.162,2.687c1.935,2.659,3.854,5.319,5.79,7.978-1.193.613-2.371,1.223-3.548,1.835a5.412,5.412,0,0,0,3.645.421c-1.646,2.951-2.564,5.387-1.387,8.066a8.7,8.7,0,0,0-5.886,4.6c1.225.881,2.435,1.765,3.66,2.63A3.681,3.681,0,0,1,384.114,429a7.085,7.085,0,0,0,3.645,1.277c-3.886,6.588,7.482,12.968,2.951,19.17a4.154,4.154,0,0,0,5.161,4.02v.011c.032.021.08.013.113.02q1.21,8.63,2.419,17.262a47.578,47.578,0,0,0,23.174-1.494c3.709-1.233,7.692-4.32,6.111-8.453,1.533-.342,3.048-.689,4.565-1.034a6.633,6.633,0,0,0-4.725-4.59,13.982,13.982,0,0,1,13.111-2.866c-3.709-3.685-3.5-9.663-.968-13.281s6.772-5.514,10.724-7.542c-.323-1.622-.468-3.244-.629-4.853q-1.064-11.46-2.145-22.939c3.048-2.139,6.111-4.276,9.159-6.416a59.014,59.014,0,0,0,8.386-6.649c4.854-4.869,7.95-11.321,10.353-17.993q-8.637.34-17.238.685a5.314,5.314,0,0,1-3.5-.73c-1.661-1.228-1.661-3.551-1.919-5.482-1.081-8.222-9.949-14.866-11.659-23.1-.613-2.963-1.467-7.241-4.354-7.282,2.242-1.782.065-5.875-2.176-8.447-2.226-2.586-4.725-6.364-2.855-8.55,1.113.889,2.194,1.8,3.257,2.751-.193.578-.387,1.141-.58,1.7a6.641,6.641,0,0,1,2.87.443c.5.474,1.017.937,1.5,1.425a3.509,3.509,0,0,0,.241-.521c3.871,2.618,6.612,8.6,8.37,13.441a108.61,108.61,0,0,0,13.852,26,33.635,33.635,0,0,0,20.111-5.4c2.821-1.889,6.337-4.285,9.708-2.19a11.288,11.288,0,0,1,2.338-8.184,18.72,18.72,0,0,0-7.257-4.021c-.516-1.542-1.016-3.081-1.531-4.641a12.879,12.879,0,0,0-5.758,4.581,62.073,62.073,0,0,1-14.013-21.016c2.031.1,4.064.2,6.095.316q5.226,5.808,10.435,11.629c2.112-.176,4.225-.352,6.354-.524,8.5,9.11,23.771,6.965,31.769,16.5-1.112,1.885.613,5.155,2.968,5.651.452-1.742.918-3.483,1.37-5.225,2.532,1.285,2.919,4.691,3.048,7.39.613,11.558,5.306,23.593,13.047,33.425,1.5-7.219,3.048-14.557,6.756-20.548a28.3,28.3,0,0,1,11.983-10.692q6.7-.778,13.4-1.539a17.287,17.287,0,0,0-.87,7.088c4.209,2.676,6.515,8.4,5.031,12.53a6.853,6.853,0,0,0,5.031-3.015c4.564,2.223,7.305,8.335,5.612,12.52a3.861,3.861,0,0,1,1.354-1.31c.311.741.614,1.487.92,2.234v.067c.085.179.167.364.252.545.055.136.113.269.167.407v-.044c.34.718.682,1.435,1,2.163a13.338,13.338,0,0,0,1.758-6.873,5.135,5.135,0,0,1,1.693.137,5.325,5.325,0,0,0,6.821,3.813,8.045,8.045,0,0,0,2.048,7.056,9.435,9.435,0,0,1,6.467-7.477A19.542,19.542,0,0,1,611.578,377.67ZM444.1,292.1c-2.145.2-4.322.689-6.5-.081-1.726-.61-3.225-1.939-4.9-2.784-4.048-2.053-8.934-.736-10.659,2.863a1.892,1.892,0,0,1-.1.272l-5.612-.989c1.613,1.413.726,3.933,1.758,5.792.822,1.469,2.548,2.1,4.08,2.575l.065.124a1.972,1.972,0,0,1,.145-.345,10.928,10.928,0,0,0,3.387,4.273c2.354-.954,4.838-1.937,7.546-1.587,2.726.368,5.742,2.528,6.176,5.3a7.8,7.8,0,0,1-.612,3.81c-.888,2.618-1.774,5.235-2.678,7.85a8.228,8.228,0,0,0-2.112-1.259c-3.305-1.277-6.692-.81-10.047-1.224-3.371-.4-7.354-2.3-8.4-5.675.436,2.642-2.935,3.869-5.4,2.628-2.468-1.258-4.064-3.877-5.467-6.319a18.43,18.43,0,0,0-.822,8.645c-2.766-.065-5.334-1.4-7.838-3.161v-.085c-5-1.779-9.756-5.391-15.319-3.845-.274-.952-1.774-1.914-2.048-2.864,2.16-1.817,2.887-5.186,1.515-7.153q-10.788,3.595-21.561,7.188c-2.806.93-5.854,1.871-8.386,1.01a4.941,4.941,0,0,1-4.289,2.1,35.694,35.694,0,0,0,0-4.531,9.169,9.169,0,0,1,2.338,1.185c2.242-3.251,6.289-5.254,9.757-4.817a34.281,34.281,0,0,0,1.241-11.685l6.338-1.166c.065-1.657.129-3.3.195-4.953a36.747,36.747,0,0,1,12.949-5.863c-1.565,4.436,3.451,6.987,7.53,8.009,3.048.769,6.5,2.643,7.241,5.335q.194-1.8.386-3.6a4.018,4.018,0,0,0-.064-1.763,3.4,3.4,0,0,0-1.9-1.663,36.916,36.916,0,0,1-11.6-9.228c2.887-3.814,8.209-1.77,11.386.686a8.6,8.6,0,0,0,4.048,4.246v.044a13.4,13.4,0,0,0,6.047,3.1c-1.742,1.966.291,5.5,2.387,7.822,2.081,2.318,4.564,5.321,3.628,7.848,1.306-1.785,1.194-4.385.984-6.808-.193-2.422-.386-5.019.806-6.889a3.83,3.83,0,0,1,6.016-.358,3.788,3.788,0,0,1,5.627-3.507c1.485-1.545-1.693-4.444-1.515-6.751.243-3.005,4.774-1.722,7.789-.708,5.742,1.9,11.87-.261,14.353-5.065,2.951,4.069-.565,8.61-3.886,11.233,2.371-.6,5.161,1.394,6.692,3.744s2.21,5.034,3.323,7.553c.241.542.532,1.061.822,1.579A24.643,24.643,0,0,0,444.1,292.1Zm20.481,12.271c1.967.057,3.789-.734,3.369-2.6a5.336,5.336,0,0,0-1.483-2.26q-3.725-4.044-7.466-8.09c1.435.478,1.822-1.775.984-3.1-.854-1.328-2.306-2.455-2.515-3.942a4.04,4.04,0,0,1,.806-2.6,38.635,38.635,0,0,1,3.709-4.8,24.25,24.25,0,0,0,9.917,1.281c-1.306,2.351-2.6,4.687-3.9,7.037q6.965,13.009,13.933,26C475.955,311.622,469.407,308.983,464.586,304.375Zm124.823,84.293-.552-.616c.113-.048.245-.077.37-.117V388c.06-.044.128-.081.192-.123.079-.021.148-.052.227-.071v-.073c.051-.029.1-.061.145-.092a8.537,8.537,0,0,0,.5,1.7Z" transform="translate(-29.312 -112.282)" fill="#808184"/>
    <path id="Path_26086" data-name="Path 26086" d="M522.182,140.677c.031.037.059.071.088.109v-.023a9.617,9.617,0,0,1,2.646,4.625l1.465-.188.757-.67a2,2,0,0,0,.633-2.972,4.428,4.428,0,0,0-3.047-1l-2.66-.2c-.069-.029-.139-.064-.212-.093.023.027.044.056.067.083l-.073-.005C521.966,140.441,522.068,140.566,522.182,140.677Z" transform="translate(38.677 -111.968)" fill="#808184"/>
    <path id="Path_26087" data-name="Path 26087" d="M535.3,143.162l-.36-.6,1.511-1.7-8.507-1.451C528.364,142.671,532.038,144.541,535.3,143.162Z" transform="translate(40.669 -112.249)" fill="#808184"/>
    <path id="Path_26088" data-name="Path 26088" d="M529.069,150.094c-1.124-.068-1.522,2-.562,2.478s2.243-.116,3.332-.69l-.317-.249C530.445,152.075,530.146,150.161,529.069,150.094Z" transform="translate(40.691 -108.696)" fill="#808184"/>
    <path id="Path_26089" data-name="Path 26089" d="M574.027,224.878c3.691,2.351,5.254,7.005,5.722,11.657.127,1.259.957,2.891,2.106,2.107a4.088,4.088,0,0,1,1.181-4.18,7.1,7.1,0,0,0,1.088-1.057c1.081-1.583-.67-3.023-1.9-4.068-3.207-2.727-3.849-8.345-8.026-9.523a7.321,7.321,0,0,1,.536,4.27Z" transform="translate(55.43 -85.492)" fill="#808184"/>
    <path id="Path_26090" data-name="Path 26090" d="M581.02,241.242c1.882-.737,3.1-3.232,2.4-4.9a2.539,2.539,0,0,0-2.606-1.522l.472.367A11.531,11.531,0,0,0,581.02,241.242Z" transform="translate(57.663 -80.502)" fill="#808184"/>
    <path id="Path_26091" data-name="Path 26091" d="M591.04,250.516c.808-1.377.916-2.973,1.641-4.386.24-.468.558-.98.441-1.433-.132-.509-.733-.646-1.26-.71a46.3,46.3,0,0,0-5.84-.327l-.1-1.511a4.388,4.388,0,0,0-3.324.017q-.868,5.072-1.735,10.143c-.229,1.337-.444,2.778.145,3.851l-.849-1.529a2.529,2.529,0,0,0,2.387,2.6,3.855,3.855,0,0,0,3.447-2.334l-2.917-.7a4.32,4.32,0,0,1,.7-3.585c.84-1.04,2.571-1.37,3.132-.38.245.433.231,1.018.491,1.443C588.113,252.843,590.231,251.893,591.04,250.516Z" transform="translate(57.471 -78.165)" fill="#808184"/>
    <path id="Path_26092" data-name="Path 26092" d="M589,271.822a7.317,7.317,0,0,0,4.388-.406c.826-1.072-.794-1.859-1.475-2.776a3.757,3.757,0,0,1-.514-1.945c-.26-3.132-2.031-8.494,1.575-10.805-3.119,1.258-9.21,6.122-5.37,8.677-3.119,1.176-4.707,4.166-5.486,7.206a3.2,3.2,0,0,1-.51,1.243c-.9,1.129-2.472.5-3.491-.171s-2.82-.99-3.429.293c.956.428.171,2.14-.884,2.722s-2.318.71-3.192,1.574c-1.135,1.12-1.028,2.832-.817,4.24l-2.24.788a19.513,19.513,0,0,1,6.191,9.122,27.838,27.838,0,0,0,.98-11.14l7.125-1.407a1.692,1.692,0,0,0-.769-2.271A8.892,8.892,0,0,0,589,271.822Z" transform="translate(53.275 -73.486)" fill="#808184"/>
    <path id="Path_26093" data-name="Path 26093" d="M557.325,298.706a4.609,4.609,0,0,0-1.863,2.594,1.205,1.205,0,0,0,1.315,1.323l-.626.354,2.123-.432a21.566,21.566,0,0,1,1.024-6.381A5.17,5.17,0,0,1,557.325,298.706Z" transform="translate(49.249 -60.082)" fill="#808184"/>
    <path id="Path_26094" data-name="Path 26094" d="M539.531,313.681c.149.112.428-.248.235-.275l-.231-.337-.016.044C539.446,313.316,539.384,313.57,539.531,313.681Z" transform="translate(44.464 -54.456)" fill="#808184"/>
    <path id="Path_26095" data-name="Path 26095" d="M537.842,311.514a1.774,1.774,0,0,0,2.132,2.315l.127.183q.688-1.887,1.374-3.775A12.237,12.237,0,0,0,537.842,311.514Z" transform="translate(43.896 -55.399)" fill="#808184"/>
    <path id="Path_26096" data-name="Path 26096" d="M532.434,349.623c.821-2.647-.328-5.122-1.451-7.305-1.706-3.309-5.838-3.588-6.919-6.528-1.506,3.762,2.338,3.928,2.71,7.329A7.42,7.42,0,0,0,532.434,349.623Z" transform="translate(39.283 -46.894)" fill="#808184"/>
    <path id="Path_26097" data-name="Path 26097" d="M534.918,353.649c-2.467-.147-3.564-2.743-4.918-4.649a10.845,10.845,0,0,0-7.441-4.6,9.2,9.2,0,0,0-2.3-.749c-.205,2.039.8,3.92,2.128,5.763v.088c.071.073.149.143.221.215.067.089.131.18.2.269v-.077c2.278,2.2,5.158,4.166,4.854,7.792a3.415,3.415,0,0,0,.049,1.571,1.9,1.9,0,0,0,.886.778q3.629,2.023,7.257,4.042c.581.317,1.468.564,1.935-.067a1.68,1.68,0,0,0,.243-.946c.1-2.532.177-5.046.273-7.562a2.542,2.542,0,0,0-.145-1.217C537.627,353.316,536.1,353.732,534.918,353.649Z" transform="translate(38.114 -44.278)" fill="#808184"/>
    <path id="Path_26098" data-name="Path 26098" d="M556.393,351.893a3.748,3.748,0,0,0,1.141-.961,2.7,2.7,0,0,0,.205-1.319,4.856,4.856,0,0,1,4.737-4.322,3.345,3.345,0,0,1-3.4-3.881,5.107,5.107,0,0,1,4.534-4.13,5.009,5.009,0,0,1-4.5-4.386,10.326,10.326,0,0,0-4.5,5.211c-1.979.209-3.79,1.831-5.058,3.583s-2.186,3.715-3.537,5.407a4.929,4.929,0,0,1-.974.976c-1.573,1.11-4.021,1.188-5.723,1.941,1.866,1.8,3.651,6.863,6.371,8,.7.292,9.406-.128,9.324-.02C554.646,355.941,554.529,353.28,556.393,351.893Z" transform="translate(44.35 -47.859)" fill="#808184"/>
    <path id="Path_26099" data-name="Path 26099" d="M554.168,361.118c-1.117-1.9-3.668-2.26-5.99-2.351a68.719,68.719,0,0,0-12.175.618l-.794,1.422c-.984,1.181.351,2.7,1.753,2.566s2.727-1.12,4.124-1.541c2.634-.794,5.051.488,7.637.632A10.124,10.124,0,0,0,554.168,361.118Z" transform="translate(42.908 -39.265)" fill="#808184"/>
    <path id="Path_26100" data-name="Path 26100" d="M562.228,358.053a6.177,6.177,0,0,0-4.621,2.091l2.28-.163-1.08.644A3.681,3.681,0,0,0,562.228,358.053Z" transform="translate(49.966 -39.486)" fill="#808184"/>
    <path id="Path_26101" data-name="Path 26101" d="M555.684,363.261a9.735,9.735,0,0,0,3.721,1.534l.063-.621q-.058-.792-.113-1.585Z" transform="translate(49.326 -37.976)" fill="#808184"/>
    <path id="Path_26102" data-name="Path 26102" d="M570.3,339.185c-1.723.578-2.327,3.321-4.065,3.785-.985.263-1.824-.372-2.785-.43-2.161-.133-3.907,2.487-4.641,4.711-.608,1.842-1.154,3.936-2.474,5.317a1.79,1.79,0,0,1,1.976,1.157c.343,1.243-.089,2.784.481,3.905l-.224,1c1.447-.257,1.486-2.439.989-3.711s-.546-3.415.9-3.756c1.319-.312,1.694,1.483,1.523,2.823s-.048,3.145,1.261,3.091c1.122-.047,1.859-1.617,1.627-2.684a14.262,14.262,0,0,0-1.462-2.794,2.545,2.545,0,0,1,.641-3.119c.837-.553,2.167-.492,2.478-1.423.363-1.089-1.4-1.225-2.3-.451s-1.635,1.987-2.719,2.125c-1.464.185-1.853-2.021-.813-3.236a5.771,5.771,0,0,1,4.145-1.642,8.963,8.963,0,0,0,4.334-.918C570.516,342.108,571.346,340.03,570.3,339.185Z" transform="translate(49.543 -45.765)" fill="#808184"/>
    <path id="Path_26103" data-name="Path 26103" d="M555.648,350a4.715,4.715,0,0,0,.92-.77A1.127,1.127,0,0,0,555.648,350Z" transform="translate(49.314 -42.423)" fill="#808184"/>
    <path id="Path_26104" data-name="Path 26104" d="M560.543,310.2l-2.375,1.146c-.8,2.751-1.586,5.82-.332,8.024,1.028,1.807,3.365,2.968,3.073,5.238a20.268,20.268,0,0,0-.593,2.546c.012.838,1.026,1.522,1.643.842a1.73,1.73,0,0,0,.321-1.21q-.008-2.4-.015-4.8a4.358,4.358,0,0,0,2.6-.165c.849-.407,1.51-1.565,1.044-2.239a1.584,1.584,0,0,0-.964-.533,10.056,10.056,0,0,0-3.675-.221c1.391-.04,3.507-1.013,3.016-2.244-.343-.861-1.723-.612-2.342-1.268-.748-.792,0-2.243.305-3.445S561.376,309.209,560.543,310.2Z" transform="translate(49.823 -55.52)" fill="#808184"/>
    <path id="Path_26105" data-name="Path 26105" d="M571.483,328.266a1.049,1.049,0,0,0-1.053-1.37,4.215,4.215,0,0,0-2.076.809l-5.151,3.137c1.29-1.052,2.85.129,3.5,1.4s1.4,2.876,2.923,2.719H567.44a2.638,2.638,0,0,0,2.978-.26c-.708-1.639-1.3-3.842.125-5.35A3.875,3.875,0,0,0,571.483,328.266Z" transform="translate(51.828 -49.854)" fill="#808184"/>
    <path id="Path_26106" data-name="Path 26106" d="M567.743,323.174l.419.668a5.472,5.472,0,0,0,.071-3.128,1.65,1.65,0,0,0-2.527-.677A2.065,2.065,0,0,0,567.743,323.174Z" transform="translate(52.565 -52.254)" fill="#808184"/>
    <path id="Path_26107" data-name="Path 26107" d="M561.811,327.078a1.553,1.553,0,0,0,1.586-.778l1.142-2.395-2.695.56Q561.828,325.772,561.811,327.078Z" transform="translate(51.365 -50.85)" fill="#808184"/>
    <path id="Path_26108" data-name="Path 26108" d="M621.139,353.753c-2.307-.872-4.893-2.436-4.462-5.115.143-.893.6-1.95.077-2.562a1.7,1.7,0,0,0-.72-.418,38.736,38.736,0,0,0-15.3-2.32,5.46,5.46,0,0,1-2.053-.145c-1.152-.412-1.765-1.662-2.927-2.051-1.541-.516-3.7,1.013-3.91,2.768-.124,1.036.187,2.319-.722,2.947a1.891,1.891,0,0,1-2-.185l-1.69-.925c-1.573-.858-3.307-2.644-2.073-4.358-3.011-.305-5.956,2.211-7.86,4.645,1.441-.873,3.553-1.017,3.905.8a10.122,10.122,0,0,0,.175,1.244,1.531,1.531,0,0,0,2.342.553,2.022,2.022,0,0,0,.789-2.051c.572.85,1.811,1.132,2.871,1.443,1.251.369,2.584,1.367,2.11,2.75,1.008.353,2.224-.227,3.356-.565s2.567-.267,2.832.794c.341,1.366-1.6,2.884-1.382,4.3.211,1.337,2.063,1.319,3.433.854s3.032-1.08,3.94-.188c.664.653.574,1.851,1.1,2.628.934,1.376,3.419.73,4.687-.772a10.72,10.72,0,0,0,1.965-5.286,3.691,3.691,0,0,1,4.43.1,11.578,11.578,0,0,1,1.434,2.074c2.154,3.145,6.6,3.583,10.628,3.8C626.136,355.865,623.446,354.626,621.139,353.753Z" transform="translate(56.584 -45.148)" fill="#808184"/>
    <path id="Path_26109" data-name="Path 26109" d="M573.407,356.088a2.959,2.959,0,0,0-3.5,2.022l2.482-1.064A.931.931,0,0,0,573.407,356.088Z" transform="translate(54.06 -40.181)" fill="#808184"/>
    <path id="Path_26110" data-name="Path 26110" d="M572.957,347.02a3.063,3.063,0,0,0-3.48,2.054l.806,1.583A3.153,3.153,0,0,0,572.957,347.02Z" transform="translate(53.916 -43.189)" fill="#808184"/>
    <path id="Path_26111" data-name="Path 26111" d="M576.3,347.79l1.559-.268c.928-.814.367-2.507-.766-2.314S575.38,347.291,576.3,347.79Z" transform="translate(56.035 -43.765)" fill="#808184"/>
    <path id="Path_26112" data-name="Path 26112" d="M573.726,341.037q-.052-1.052-.1-2.106l-2.578.444a2.04,2.04,0,0,0,2.1,2.965Z" transform="translate(54.367 -45.849)" fill="#808184"/>
    <path id="Path_26113" data-name="Path 26113" d="M620.586,339.672c-3.861-1.189-12.291,2.089-10.176,7.488a5.658,5.658,0,0,1-.892.443l13.493-3.756a1.838,1.838,0,0,1,1.383-1.017A7.583,7.583,0,0,0,620.586,339.672Z" transform="translate(67.242 -45.684)" fill="#808184"/>
    <path id="Path_26114" data-name="Path 26114" d="M628.158,350.473c-.528-3.016-5.554-3.661-5.639-5.964a9.73,9.73,0,0,1,.169-1.134c.1-1.069-1-1.571-2.009-1.385C623.092,345.415,624.584,350.233,628.158,350.473Z" transform="translate(70.957 -44.844)" fill="#808184"/>
    <path id="Path_26115" data-name="Path 26115" d="M609.822,345.561l-1.218.339A5.16,5.16,0,0,0,609.822,345.561Z" transform="translate(66.938 -43.643)" fill="#808184"/>
    <path id="Path_26116" data-name="Path 26116" d="M623.431,376.066a34.376,34.376,0,0,1-2.611-7.473q-1.6-6-3.193-12a52.366,52.366,0,0,0-6.617,21.092,9.019,9.019,0,0,1-2.275-6.124,13.2,13.2,0,0,1-10.029-1.086c1.6-.405,1.8-3.32.224-3.377l2.49-2.835a7.2,7.2,0,0,1-8.333-2.895q.282,1.887.565,3.773c-1.2.576-2.6,1-3.629.464a1.836,1.836,0,0,1,.009-3.067q-2.135.674-4.269,1.349,1.054,2.811,2.11,5.624a10.845,10.845,0,0,0-6.359,3.245l-1.215-3.685a8.123,8.123,0,0,0-1.574,4.54c-4.806-1.793-10.109,9.447-14.6,7.093,2.618,1.19,3.317,5.1,1.409,7.872a38.52,38.52,0,0,0-4.9,1.074c-2.115,1.089-2.624,3.365-4.581,4.345-4.184,2.1-7.585-.365-9.8,5.157-.748,1.863.405,3.483.109,5.194-.42,2.436-1.9,3.072-2.307,5.551-.89,5.445,1.891,12.157,1.33,18.053-.189,1.981-.966,4.544-2.919,5.031a10.88,10.88,0,0,0,4.454,1.854c1.785-3.881,6.02-6.787,9.953-6.829a23.794,23.794,0,0,0,4.2.036,12.448,12.448,0,0,0,3.229-1.269l11.918-6c1.977-1,4.044-2.017,6.1-2.066,4.8-.117,7.213,4.8,8.782,9.115q1.422-2.327,2.84-4.655c1.052,2.327,1.983,5.3.785,7.757,1.3-1.193,3.753-1.133,4.694.265,1.182,1.755.7,4.338.177,6.661a14.333,14.333,0,0,1,10.1,3.716q-.006-1.418-.013-2.834c1.174-1.307,3.411-1.2,4,.2a9.1,9.1,0,0,0,.47-4.282l7.409-1.7c-1.277-3.26.68-7.936,4.138-9.888a9.868,9.868,0,0,0-1.469-6.11c2.215.66,4.977-.722,6.724-2.75a18.125,18.125,0,0,0,3.371-7.041,55.107,55.107,0,0,0,2.144-15.179L627.527,381.6A31.545,31.545,0,0,1,623.431,376.066Z" transform="translate(44.925 -39.969)" fill="#808184"/>
    <path id="Path_26117" data-name="Path 26117" d="M581.862,412.365a2.457,2.457,0,0,0-.741,1.142A5.3,5.3,0,0,0,581.862,412.365Z" transform="translate(57.791 -21.41)" fill="#808184"/>
    <path id="Path_26118" data-name="Path 26118" d="M589.131,425.077a7.231,7.231,0,0,1-1.241,5.091c1.517-.5,2.655,1,2.823,2.49.165,1.475-.184,3.1.254,4.473a3.713,3.713,0,0,0,3.269-1.579,3.223,3.223,0,0,0,.145-3.677c1.433.028,2.79-1.507,3.12-2.988a8.135,8.135,0,0,0-.488-4.216C594.543,426.5,591.183,426.673,589.131,425.077Z" transform="translate(60.044 -17.315)" fill="#808184"/>
    <path id="Path_26119" data-name="Path 26119" d="M590.276,434.076c-.007-.017-.005-.037-.012-.055-.085-.009-.176.009-.259-.008Z" transform="translate(60.748 -14.205)" fill="#808184"/>
    <path id="Path_26120" data-name="Path 26120" d="M636.56,432.033c-1.5.758-3.1.433-4.657.429s-3.512.624-4.118,2.187c-.451,1.165.049,2.435-.573,3.543-.559.994-1.746,1.4-2.734,1.946-7.581,4.216,3.207,14.2,6.615-1.2.68-3.069,4.374-5.532,7.122-4.749q.194-1.25.389-2.5c2.086-.3,3.9-2.318,4.645-4.4a15.945,15.945,0,0,0,.556-6.286C639.715,422.776,640.571,430,636.56,432.033Z" transform="translate(71.341 -18.533)" fill="#808184"/>
    <path id="Path_26121" data-name="Path 26121" d="M642.523,403.1c.032-.428.079-.858.145-1.29A3.683,3.683,0,0,0,642.523,403.1Z" transform="translate(78.224 -24.922)" fill="#808184"/>
    <path id="Path_26122" data-name="Path 26122" d="M649.543,414.634a2.185,2.185,0,0,1-1.293-3.248,4.071,4.071,0,0,1-2.179,1.625c-.861.129-1.583-.945-.913-1.6a4.549,4.549,0,0,0,2.908-2.1,2.392,2.392,0,0,0-.362-3.081,8.4,8.4,0,0,0-2.332-.638,3.069,3.069,0,0,1-2.056-2.81c-.216,2.876.271,5.668.276,8.529.008,3.287-.816,7.032-3.453,9.458l5.462-.612c-4.719,10.841,4.853,4.547,3.82,1.475-.239-.709-.828-1.2-1.083-1.9-.457-1.251.3-2.891,1.418-3.94a8.321,8.321,0,0,1,1.809-1.255A3.869,3.869,0,0,1,649.543,414.634Z" transform="translate(77.432 -24.6)" fill="#808184"/>
    <path id="Path_26123" data-name="Path 26123" d="M648.709,411.838a8.9,8.9,0,0,0,2.1-.954C650.1,411.175,649.39,411.474,648.709,411.838Z" transform="translate(80.285 -21.903)" fill="#808184"/>
    <path id="Path_26124" data-name="Path 26124" d="M638.856,373.357c-1.529-.678-2.066-2.5-3.009-3.869s-3.1-2.228-4.456-.8c.353,1.973,1.762,3.392,3.117,4.712,1.889,1.838,4.791,3.705,7.291,1.838l-1.093.276C641.45,374.511,639.869,373.807,638.856,373.357Z" transform="translate(74.521 -36.191)" fill="#808184"/>
    <path id="Path_26125" data-name="Path 26125" d="M639.513,361.795l1.048.129a16.266,16.266,0,0,1-1.06-6.772C637.374,357.017,637.381,360.689,639.513,361.795Z" transform="translate(76.691 -40.451)" fill="#808184"/>
    <path id="Path_26126" data-name="Path 26126" d="M631.088,352.195l1.719,1.246c.964.295,1.329-1.537.876-2.427a13.406,13.406,0,0,0-4.129-4.829C628.138,348.427,628.913,351.464,631.088,352.195Z" transform="translate(73.672 -43.435)" fill="#808184"/>
    <path id="Path_26127" data-name="Path 26127" d="M564.749,357.868a4.282,4.282,0,0,0,.219,4.1l1.037.355a1.069,1.069,0,0,0,1.417-.634A4.671,4.671,0,0,0,564.749,357.868Z" transform="translate(52.204 -39.547)" fill="#808184"/>
    <path id="Path_26128" data-name="Path 26128" d="M569.128,289.141a2.285,2.285,0,0,0-2.471,1.8,1.331,1.331,0,0,0,2.107,1.2l1.722-.582A1.984,1.984,0,0,0,569.128,289.141Z" transform="translate(52.974 -62.429)" fill="#808184"/>
    <path id="Path_26129" data-name="Path 26129" d="M573.1,284.611c-1.291.223-1.907,2.41-.821,2.916l1.617-.279C574.99,286.368,574.393,284.389,573.1,284.611Z" transform="translate(54.663 -63.933)" fill="#808184"/>
  </g>
</svg>
