<svg width="16" height="16" viewBox="0 0 16 16" fill="none" xmlns="http://www.w3.org/2000/svg">
<path fill-rule="evenodd" clip-rule="evenodd" d="M8 14.2222C11.4364 14.2222 14.2222 11.4364 14.2222 8C14.2222 4.56356 11.4364 1.77778 8 1.77778C4.56356 1.77778 1.77778 4.56356 1.77778 8C1.77778 11.4364 4.56356 14.2222 8 14.2222ZM8 16C12.4183 16 16 12.4183 16 8C16 3.58172 12.4183 0 8 0C3.58172 0 0 3.58172 0 8C0 12.4183 3.58172 16 8 16Z" fill="white"/>
<path d="M7.11111 4.42585C7.11111 3.9452 7.50075 3.55556 7.9814 3.55556H8.0186C8.49925 3.55556 8.88889 3.9452 8.88889 4.42585V8C8.88889 8.49092 8.49092 8.88889 8 8.88889C7.50908 8.88889 7.11111 8.49092 7.11111 8V4.42585Z" fill="white"/>
<path d="M10.4041 10.4041C10.7542 10.0541 10.7542 9.48649 10.4041 9.13642L8.64136 7.37366C8.29129 7.0236 7.72372 7.0236 7.37366 7.37366C7.0236 7.72372 7.0236 8.29129 7.37366 8.64136L9.13642 10.4041C9.48649 10.7542 10.0541 10.7542 10.4041 10.4041Z" fill="white"/>
</svg>
