<svg width="16" height="18" viewBox="0 0 16 18" fill="none" xmlns="http://www.w3.org/2000/svg">
<path fill-rule="evenodd" clip-rule="evenodd" d="M10.8444 6.22222H14.0444C15.1245 6.22222 16 7.09775 16 8.17778V13.1556C16 14.2356 15.1245 15.1111 14.0444 15.1111H10.8444C9.76442 15.1111 8.88889 14.2356 8.88889 13.1556V8.17778C8.88889 7.09775 9.76442 6.22222 10.8444 6.22222ZM10.8444 8C10.7463 8 10.6667 8.07959 10.6667 8.17778V13.1556C10.6667 13.2537 10.7463 13.3333 10.8444 13.3333H14.0444C14.1426 13.3333 14.2222 13.2537 14.2222 13.1556V8.17778C14.2222 8.07959 14.1426 8 14.0444 8H10.8444Z" fill="white"/>
<path d="M11.5556 3.55556C11.5556 3.06464 11.9535 2.66667 12.4444 2.66667C12.9354 2.66667 13.3333 3.06464 13.3333 3.55556V6.22222C13.3333 6.71314 12.9354 7.11111 12.4444 7.11111C11.9535 7.11111 11.5556 6.71314 11.5556 6.22222V3.55556Z" fill="white"/>
<path d="M11.5556 14.2222C11.5556 13.7313 11.9535 13.3333 12.4444 13.3333C12.9354 13.3333 13.3333 13.7313 13.3333 14.2222V16.8889C13.3333 17.3798 12.9354 17.7778 12.4444 17.7778C11.9535 17.7778 11.5556 17.3798 11.5556 16.8889V14.2222Z" fill="white"/>
<path fill-rule="evenodd" clip-rule="evenodd" d="M3.55556 0C3.06464 0 2.66667 0.397969 2.66667 0.888889V1.77778H1.95556C0.875534 1.77778 0 2.65331 0 3.73333V13.1556C0 14.2356 0.875533 15.1111 1.95556 15.1111H2.66667V16.8889C2.66667 17.3798 3.06464 17.7778 3.55556 17.7778C4.04648 17.7778 4.44444 17.3798 4.44444 16.8889V15.1111H5.15556C6.23558 15.1111 7.11111 14.2356 7.11111 13.1556V3.73333C7.11111 2.65331 6.23558 1.77778 5.15556 1.77778H4.44444V0.888889C4.44444 0.397969 4.04648 0 3.55556 0ZM5.15556 13.3333H1.95556C1.85737 13.3333 1.77778 13.2537 1.77778 13.1556V3.73333C1.77778 3.63515 1.85737 3.55556 1.95556 3.55556H5.15556C5.25374 3.55556 5.33333 3.63515 5.33333 3.73333V13.1556C5.33333 13.2537 5.25374 13.3333 5.15556 13.3333Z" fill="white"/>
</svg>
