<svg width="13" height="16" viewBox="0 0 13 16" fill="none" xmlns="http://www.w3.org/2000/svg">
<path d="M6.95652 12.5217V9.73913H5.56522V12.5217H6.95652Z" fill="white"/>
<path fill-rule="evenodd" clip-rule="evenodd" d="M2.08696 4.17391V6.26087H1.3913C0.622908 6.26087 0 6.88378 0 7.65217V14.6087C0 15.3771 0.622908 16 1.3913 16H11.1304C11.8988 16 12.5217 15.3771 12.5217 14.6087V7.65217C12.5217 6.88378 11.8988 6.26087 11.1304 6.26087H10.4348V4.17391C10.4348 1.86872 8.56606 0 6.26087 0C3.95568 0 2.08696 1.86872 2.08696 4.17391ZM9.04348 6.26087V4.17391C9.04348 2.63712 7.79766 1.3913 6.26087 1.3913C4.72408 1.3913 3.47826 2.63712 3.47826 4.17391V6.26087H9.04348ZM1.3913 7.65217H11.1304V14.6087H1.3913L1.3913 7.65217Z" fill="white"/>
</svg>
