<svg width="8" height="16" viewBox="0 0 8 16" fill="none" xmlns="http://www.w3.org/2000/svg">
<path d="M4.70711 0.29273L7.70711 3.29273C8.09763 3.68325 8.09763 4.31642 7.70711 4.70694C7.31658 5.09747 6.68342 5.09747 6.29289 4.70694L5 3.41405V12.5856L6.29289 11.2927C6.68342 10.9022 7.31658 10.9022 7.70711 11.2927C8.09763 11.6833 8.09763 12.3164 7.70711 12.7069L4.70769 15.7064C4.65888 15.7552 4.60568 15.7985 4.55023 15.8351C4.16208 16.0914 3.6346 16.0487 3.29289 15.7069L0.292893 12.7069C-0.0976311 12.3164 -0.0976311 11.6833 0.292893 11.2927C0.683417 10.9022 1.31658 10.9022 1.70711 11.2927L3 12.5856V3.41405L1.70711 4.70694C1.31658 5.09747 0.683417 5.09747 0.292893 4.70694C-0.0976311 4.31642 -0.0976311 3.68325 0.292893 3.29273L3.29248 0.293145C3.63419 -0.0485637 4.16208 -0.0916924 4.55023 0.164589C4.60568 0.201201 4.65829 0.243914 4.70711 0.29273Z" fill="white"/>
</svg>
