<?xml version="1.0" encoding="utf-8"?>
<!-- Generator: Adobe Illustrator 24.0.0, SVG Export Plug-In . SVG Version: 6.00 Build 0)  -->
<svg version="1.1" id="Layer_1" xmlns="http://www.w3.org/2000/svg" xmlns:xlink="http://www.w3.org/1999/xlink" x="0px" y="0px"
	 viewBox="0 0 54.6 57.2" style="enable-background:new 0 0 54.6 57.2;" xml:space="preserve">
<style type="text/css">
	.st0{fill-rule:evenodd;clip-rule:evenodd;fill:#FFFFFF;stroke:#FFFFFF;stroke-width:3.283;}
	.st1{fill:none;}
	.st2{fill:none;stroke:#1F3F59;stroke-width:1.8;}
	.st3{fill:#1F3F59;}
	.st4{fill:#FFFFFF;}
</style>
<g id="页面1" transform="translate(-0.717)">
	<g id="_1_未登录" transform="translate(-380 -473)">
		<g id="编组-7">
			<g id="编组备份" transform="translate(0 432)">
				<g id="Group-6" transform="translate(360 14)">
					<g id="分组" transform="translate(24 27)">
						<path id="合并形状-copy-2" class="st0" d="M1.1,23.3c1.3,0.4,2.7,0.5,4.1,0.5c9,0,16.3-7.4,16.3-16.4V5.8H23
							c13.7-0.1,25,10.9,25.1,24.7c0.1,13.7-10.9,25-24.7,25.1s-25-10.9-25.1-24.7c0-0.1,0-0.1,0-0.2c0-2.1,0.3-4.2,0.8-6.3l0.4-1.5
							L1.1,23.3z"/>
						<g id="发邀请" transform="translate(11 19)">
							<g id="编组" transform="translate(25.2) rotate(180)">
								<g id="Group_12988">
									<rect id="矩形" x="1.4" y="-25.6" class="st1" width="24.2" height="24.2"/>
									<path id="Path_29246" class="st2" d="M6.3-12l6.7-4.1c0,0,0,0,0.1,0l6.8,4.1c0.8,0.5,1.9,0.2,2.4-0.6
										c0.2-0.3,0.3-0.6,0.3-0.9v-7.8c0-1-0.8-1.8-1.8-1.8l0,0H5.4c-1,0-1.8,0.8-1.8,1.8v7.8c0,1,0.8,1.8,1.8,1.8l0,0
										C5.7-11.8,6-11.9,6.3-12z M7.3-5.3h11.6c0.9,0,1.7-0.7,1.7-1.7l0,0v-3.5c0-0.6-0.3-1.1-0.8-1.4l-5.2-3.3
										c-0.9-0.6-2-0.6-2.9,0l-5.2,3.4c-0.5,0.3-0.8,0.8-0.8,1.4v3.5C5.6-6,6.3-5.3,7.3-5.3L7.3-5.3z"/>
									<path id="形状结合" class="st3" d="M13.8-9.2h1.1c0.4,0,0.7-0.3,0.7-0.7l0,0v0c0-0.4-0.3-0.7-0.7-0.7l0,0h-1.1v-1.1
										c0-0.4-0.3-0.7-0.7-0.7l0,0h0c-0.4,0-0.7,0.3-0.7,0.7l0,0v1.1h-1.1c-0.4,0-0.7,0.3-0.7,0.7l0,0v0c0,0.4,0.3,0.7,0.7,0.7
										l0,0h1.1v1.1c0,0.4,0.3,0.7,0.7,0.7l0,0h0c0.4,0,0.7-0.3,0.7-0.7l0,0L13.8-9.2z"/>
								</g>
							</g>
						</g>
						<path id="_1" class="st4" d="M11.1,2.1L8.4,16.7H6L8.2,5L5.1,7.4l0.5-2.9l3.1-2.4H11.1z"/>
					</g>
				</g>
			</g>
		</g>
	</g>
</g>
</svg>
