<?xml version="1.0" encoding="utf-8"?>
<!-- Generator: Adobe Illustrator 24.0.0, SVG Export Plug-In . SVG Version: 6.00 Build 0)  -->
<svg version="1.1" id="Layer_1" xmlns="http://www.w3.org/2000/svg" xmlns:xlink="http://www.w3.org/1999/xlink" x="0px" y="0px"
	 viewBox="0 0 54.6 57.2" style="enable-background:new 0 0 54.6 57.2;" xml:space="preserve">
<style type="text/css">
	.st0{fill-rule:evenodd;clip-rule:evenodd;fill:#FFFFFF;stroke:#FFFFFF;stroke-width:3.283;}
	.st1{fill:none;}
	.st2{fill:#1F3F59;}
	.st3{fill:#FFFFFF;}
</style>
<g id="页面1" transform="translate(-0.717)">
	<g id="_1_未登录" transform="translate(-809 -473)">
		<g id="编组-7">
			<g id="编组备份" transform="translate(0 432)">
				<g id="Group-6-Copy-3" transform="translate(788 14)">
					<g id="分组-2" transform="translate(25 27)">
						<path id="合并形状-copy" class="st0" d="M1.1,22.7c1.4,0.4,2.8,0.5,4.2,0.5c9.2,0,16.6-7.5,16.5-16.7V5h1.6
							C37.4,4.8,48.8,16.1,49,30S37.8,55.4,23.9,55.5C9.9,55.7-1.5,44.4-1.6,30.4c0-0.1,0-0.1,0-0.2c0-2.2,0.3-4.3,0.8-6.4l0.4-1.6
							L1.1,22.7z"/>
						<g id="完成注册" transform="translate(11 19)">
							<g id="Group_12989">
								<rect id="矩形" x="-0.3" y="0.8" class="st1" width="24.7" height="24.7"/>
								<path id="形状" class="st2" d="M12.1,15.2c3.2,0,5.6-2.8,5.6-6.6c0-3.1-2.5-5.6-5.6-5.6S6.5,5.5,6.5,8.6
									C6.5,12.3,8.9,15.2,12.1,15.2z M12.1,4.9c2,0.1,3.6,1.7,3.6,3.6c0,2.7-1.6,4.7-3.6,4.7s-3.6-2-3.6-4.7
									C8.5,6.6,10.1,5,12.1,4.9L12.1,4.9z M20.1,17.2c-0.5-0.1-2-0.4-2.9-0.6l-0.8-2.3c-0.5,0.4-1.1,0.8-1.7,1.1l1,2.9l0.6,0.1
									c3.6,0.7,4.2,0.6,4.3,1.9c0.1,0.6,0.2,1.4,0.3,3h2c-0.1-1.6-0.2-2.5-0.3-3.2C22.5,18.6,21.5,17.5,20.1,17.2z M13.9,20.4
									L12,23.2l-1.8-2.8l1-0.9l-1.1-3.2h3.7l-1.1,3.2L13.9,20.4z M4,17.2c-1.4,0.3-2.4,1.5-2.5,2.9c-0.1,0.7-0.2,1.6-0.3,3.2h2
									c0.3-3.9,0.2-3.9,1.3-4.2C5,19,6.9,18.6,7.9,18.4l0.6-0.1l1-2.9c-0.6-0.3-1.2-0.6-1.7-1.1l-0.8,2.3
									C6.1,16.7,4.5,17.1,4,17.2z"/>
							</g>
						</g>
						<path id="_2" class="st3" d="M13.9,4.8c0,2-1.3,3.2-2.2,4.1l-4.6,4.8h5.3L12,16H3.5L4,13.7l6.2-6.4c0.7-0.5,1.2-1.4,1.2-2.3
							c0.1-0.7-0.4-1.4-1.1-1.5c-0.1,0-0.2,0-0.3,0C9.1,3.5,8.3,4,8,5.4H5.4C5.6,2.9,7.8,1,10.3,1.2c1.8-0.2,3.5,1.2,3.6,3
							C14,4.4,14,4.6,13.9,4.8z"/>
					</g>
				</g>
			</g>
		</g>
	</g>
</g>
</svg>
