<?xml version="1.0" encoding="utf-8"?>
<!-- Generator: Adobe Illustrator 24.0.0, SVG Export Plug-In . SVG Version: 6.00 Build 0)  -->
<svg version="1.1" id="Layer_1" xmlns="http://www.w3.org/2000/svg" xmlns:xlink="http://www.w3.org/1999/xlink" x="0px" y="0px"
	 viewBox="0 0 54.6 57.3" style="enable-background:new 0 0 54.6 57.3;" xml:space="preserve">
<style type="text/css">
	.st0{fill-rule:evenodd;clip-rule:evenodd;fill:#FFFFFF;stroke:#FFFFFF;stroke-width:3.283;}
	.st1{fill:none;stroke:#1F3F59;stroke-width:1.8;}
	.st2{fill:none;stroke:#1F3F59;stroke-width:1.8;stroke-linecap:round;}
	.st3{fill:#1F3F59;stroke:#1F3F59;stroke-width:0.9;}
	.st4{fill:none;}
	.st5{fill:#FFFFFF;}
</style>
<g id="页面1" transform="translate(-0.717)">
	<g id="_1_未登录" transform="translate(-1235 -473)">
		<g id="编组-7">
			<g id="编组备份" transform="translate(0 432)">
				<g id="Group-6-Copy-4" transform="translate(1215 14)">
					<g id="分组-3" transform="translate(24 27)">
						<path id="合并形状" class="st0" d="M1.2,22.4C2.6,22.8,4,23,5.4,23c9.3,0,16.7-7.6,16.7-16.8V4.5h1.6
							c14.1-0.1,25.6,11.2,25.7,25.3S38.2,55.4,24.1,55.5C10,55.7-1.5,44.3-1.6,30.2c0-0.1,0-0.1,0-0.2c0-2.2,0.3-4.3,0.8-6.4
							l0.4-1.6L1.2,22.4z"/>
						<g id="返佣" transform="translate(11 19)">
							<g id="Group_12990">
								<path id="蒙版" class="st1" d="M5.7,3.5h13.5c0.7,0,1.3,0.6,1.3,1.3l0,0v2.3c0,0.6-0.4,1.2-1,1.3L12.7,10
									c-0.2,0-0.4,0-0.6,0L5.3,8.4c-0.6-0.1-1-0.7-1-1.3V4.8C4.3,4.1,4.9,3.5,5.7,3.5z"/>
								<path id="路径" class="st2" d="M20.5,11v10.2c0,0.5-0.4,0.9-0.9,0.9H5.2c-0.5,0-0.9-0.4-0.9-0.9V11"/>
								<g id="单箭头-左" transform="translate(9 14.4)">
									<path id="路径-2" class="st3" d="M6.4,1.8L5.3,0.6c-0.1-0.1-0.1-0.2,0-0.3c0,0,0,0,0,0c0.1-0.1,0.2-0.1,0.3,0
										c0,0,0,0,0,0l1.5,1.6c0.1,0.1,0.1,0.2,0,0.3c0,0.1-0.1,0.1-0.2,0.1h0h0H0c-0.1,0-0.2,0-0.2-0.1c0-0.1,0-0.2,0-0.2
										c0-0.1,0.1-0.1,0.2-0.1H6.4z"/>
								</g>
								<rect id="矩形" x="-0.1" y="0.4" class="st4" width="24.9" height="24.9"/>
							</g>
						</g>
						<path id="_3" class="st5" d="M13.5,4.1c0.1,1.6-0.8,3.1-2.2,3.8c0.9,0.5,1.4,1.6,1.3,2.6c0.1,2.7-2,4.9-4.7,5c0,0-0.1,0-0.1,0
							c-2.6,0-4.1-1.4-4.1-3.5c0-0.2,0-0.5,0.1-0.7h2.5c0,0.1,0,0.3,0,0.5c0,0.8,0.6,1.5,1.4,1.5c0.1,0,0.2,0,0.2,0
							c1.3-0.1,2.3-1.3,2.3-2.6C10.1,9.8,9.5,9.1,8.7,9C8.6,9,8.5,9,8.4,9H8l0.4-2.2h0.4C10.1,6.7,11,5.6,11,4.4
							C11,3.7,10.5,3,9.8,2.9c-0.1,0-0.1,0-0.2,0c-1,0-1.9,0.8-2.1,1.8H5c0.3-2.5,2.5-4.2,5-4.1c1.9-0.1,3.5,1.3,3.6,3.2
							C13.5,3.9,13.5,4,13.5,4.1z"/>
					</g>
				</g>
			</g>
		</g>
	</g>
</g>
</svg>
